NotoSerifTamil-Light.ufo
<glyph name="exclam" format="2">
  <advance width="304.8181818181818"/>
  <unicode hex="0021"/>
  <outline>
    <contour>
      <point x="135.27272727272728" y="185.54545454545456" type="line"/>
      <point x="169.45454545454547" y="185.54545454545456" type="line"/>
      <point x="189.9090909090909" y="714.0" type="line"/>
      <point x="113.9090909090909" y="714.0" type="line"/>
    </contour>
    <contour>
      <point x="151.45454545454547" y="-6.090909090909091" type="curve" smooth="yes"/>
      <point x="177.27272727272728" y="-6.090909090909091"/>
      <point x="199.0" y="7.272727272727273"/>
      <point x="199.0" y="49.18181818181818" type="curve" smooth="yes"/>
      <point x="199.0" y="91.18181818181819"/>
      <point x="177.27272727272728" y="103.54545454545455"/>
      <point x="151.45454545454547" y="103.54545454545455" type="curve" smooth="yes"/>
      <point x="125.54545454545455" y="103.54545454545455"/>
      <point x="103.9090909090909" y="91.18181818181819"/>
      <point x="103.9090909090909" y="49.18181818181818" type="curve" smooth="yes"/>
      <point x="103.9090909090909" y="7.272727272727273"/>
      <point x="125.54545454545455" y="-6.090909090909091"/>
    </contour>
  </outline>
</glyph>
<glyph name="quotedbl" format="2">
  <advance width="350.72727272727275"/>
  <unicode hex="0022"/>
  <outline>
    <contour>
      <point x="243.1818181818182" y="501.72727272727275" type="line"/>
      <point x="277.3636363636364" y="501.72727272727275" type="line"/>
      <point x="298.27272727272725" y="714.0" type="line"/>
      <point x="221.36363636363637" y="714.0" type="line"/>
    </contour>
    <contour>
      <point x="73.36363636363636" y="501.72727272727275" type="line"/>
      <point x="107.54545454545455" y="501.72727272727275" type="line"/>
      <point x="128.45454545454544" y="714.0" type="line"/>
      <point x="51.54545454545455" y="714.0" type="line"/>
    </contour>
  </outline>
</glyph>
<glyph name="numbersign" format="2">
  <advance width="559.0"/>
  <unicode hex="0023"/>
  <outline>
    <contour>
      <point x="85.36363636363636" y="0.0" type="line"/>
      <point x="130.8181818181818" y="0.0" type="line"/>
      <point x="170.1818181818182" y="210.27272727272728" type="line"/>
      <point x="326.90909090909093" y="210.27272727272728" type="line"/>
      <point x="287.54545454545456" y="0.0" type="line"/>
      <point x="333.0" y="0.0" type="line"/>
      <point x="372.3636363636364" y="210.27272727272728" type="line"/>
      <point x="502.0" y="210.27272727272728" type="line"/>
      <point x="502.0" y="253.8181818181818" type="line"/>
      <point x="381.1818181818182" y="253.8181818181818" type="line"/>
      <point x="420.90909090909093" y="466.1818181818182" type="line"/>
      <point x="534.0" y="466.1818181818182" type="line"/>
      <point x="534.0" y="509.72727272727275" type="line"/>
      <point x="429.1818181818182" y="509.72727272727275" type="line"/>
      <point x="467.54545454545456" y="714.0" type="line"/>
      <point x="422.09090909090907" y="714.0" type="line"/>
      <point x="383.72727272727275" y="509.72727272727275" type="line"/>
      <point x="227.0" y="509.72727272727275" type="line"/>
      <point x="265.3636363636364" y="714.0" type="line"/>
      <point x="219.36363636363637" y="714.0" type="line"/>
      <point x="181.54545454545453" y="509.72727272727275" type="line"/>
      <point x="57.0" y="509.72727272727275" type="line"/>
      <point x="57.0" y="466.1818181818182" type="line"/>
      <point x="173.27272727272728" y="466.1818181818182" type="line"/>
      <point x="133.0" y="253.8181818181818" type="line"/>
      <point x="25.0" y="253.8181818181818" type="line"/>
      <point x="25.0" y="210.27272727272728" type="line"/>
      <point x="124.72727272727272" y="210.27272727272728" type="line"/>
    </contour>
    <contour>
      <point x="179.0" y="253.8181818181818" type="line"/>
      <point x="218.72727272727272" y="466.1818181818182" type="line"/>
      <point x="375.45454545454544" y="466.1818181818182" type="line"/>
      <point x="335.72727272727275" y="253.8181818181818" type="line"/>
    </contour>
  </outline>
</glyph>
<glyph name="percent" format="2">
  <advance width="890.5454545454545"/>
  <unicode hex="0025"/>
  <outline>
    <contour>
      <point x="232.27272727272728" y="0.0" type="line"/>
      <point x="282.8181818181818" y="0.0" type="line"/>
      <point x="654.2727272727273" y="714.0" type="line"/>
      <point x="604.2727272727273" y="714.0" type="line"/>
    </contour>
    <contour>
      <point x="206.27272727272728" y="280.0" type="curve" smooth="yes"/>
      <point x="314.0" y="280.0"/>
      <point x="361.1818181818182" y="369.90909090909093"/>
      <point x="361.1818181818182" y="503.0" type="curve"/>
      <point x="361.1818181818182" y="637.9090909090909"/>
      <point x="310.8181818181818" y="724.0"/>
      <point x="207.27272727272728" y="724.0" type="curve" smooth="yes"/>
      <point x="97.63636363636364" y="724.0"/>
      <point x="51.36363636363636" y="637.0"/>
      <point x="51.36363636363636" y="503.0" type="curve" smooth="yes"/>
      <point x="51.36363636363636" y="367.1818181818182"/>
      <point x="97.18181818181819" y="280.0"/>
    </contour>
    <contour>
      <point x="205.36363636363637" y="313.72727272727275" type="curve" smooth="yes"/>
      <point x="140.0" y="313.72727272727275"/>
      <point x="113.18181818181819" y="382.54545454545456"/>
      <point x="113.18181818181819" y="503.0" type="curve"/>
      <point x="113.18181818181819" y="614.1818181818181"/>
      <point x="137.72727272727272" y="689.7272727272727"/>
      <point x="206.36363636363637" y="689.7272727272727" type="curve" smooth="yes"/>
      <point x="272.1818181818182" y="689.7272727272727"/>
      <point x="298.8181818181818" y="623.2727272727273"/>
      <point x="298.8181818181818" y="503.0" type="curve" smooth="yes"/>
      <point x="298.8181818181818" y="388.45454545454544"/>
      <point x="275.3636363636364" y="313.72727272727275"/>
    </contour>
    <contour>
      <point x="684.2727272727273" y="-10.0" type="curve" smooth="yes"/>
      <point x="792.0" y="-10.0"/>
      <point x="839.1818181818181" y="79.9090909090909"/>
      <point x="839.1818181818181" y="213.0" type="curve" smooth="yes"/>
      <point x="839.1818181818181" y="347.90909090909093"/>
      <point x="788.8181818181819" y="434.0"/>
      <point x="685.2727272727273" y="434.0" type="curve" smooth="yes"/>
      <point x="575.6363636363636" y="434.0"/>
      <point x="529.3636363636364" y="347.0"/>
      <point x="529.3636363636364" y="213.0" type="curve" smooth="yes"/>
      <point x="529.3636363636364" y="77.18181818181819"/>
      <point x="575.1818181818181" y="-10.0"/>
    </contour>
    <contour>
      <point x="683.3636363636364" y="23.727272727272727" type="curve" smooth="yes"/>
      <point x="618.0" y="23.727272727272727"/>
      <point x="591.1818181818181" y="92.54545454545455"/>
      <point x="591.1818181818181" y="213.0" type="curve" smooth="yes"/>
      <point x="591.1818181818181" y="324.1818181818182"/>
      <point x="615.7272727272727" y="399.72727272727275"/>
      <point x="684.3636363636364" y="399.72727272727275" type="curve" smooth="yes"/>
      <point x="750.1818181818181" y="399.72727272727275"/>
      <point x="776.8181818181819" y="333.27272727272725"/>
      <point x="776.8181818181819" y="213.0" type="curve" smooth="yes"/>
      <point x="776.8181818181819" y="98.45454545454545"/>
      <point x="753.3636363636364" y="23.727272727272727"/>
    </contour>
  </outline>
</glyph>
<glyph name="quotesingle" format="2">
  <advance width="180.0"/>
  <unicode hex="0027"/>
  <outline>
    <contour>
      <point x="73.36363636363636" y="501.72727272727275" type="line"/>
      <point x="107.54545454545455" y="501.72727272727275" type="line"/>
      <point x="128.45454545454544" y="714.0" type="line"/>
      <point x="51.54545454545455" y="714.0" type="line"/>
    </contour>
  </outline>
</glyph>
<glyph name="parenleft" format="2">
  <advance width="315.0909090909091"/>
  <unicode hex="0028"/>
  <outline>
    <contour>
      <point x="283.0909090909091" y="-121.63636363636364" type="curve"/>
      <point x="283.0909090909091" y="-85.63636363636364" type="line"/>
      <point x="140.1818181818182" y="-9.0"/>
      <point x="126.45454545454545" y="157.0909090909091"/>
      <point x="126.45454545454545" y="316.09090909090907" type="curve" smooth="yes"/>
      <point x="126.45454545454545" y="475.09090909090907"/>
      <point x="138.8181818181818" y="644.2727272727273"/>
      <point x="283.0909090909091" y="716.8181818181819" type="curve"/>
      <point x="283.0909090909091" y="752.7272727272727" type="line"/>
      <point x="121.81818181818181" y="689.7272727272727"/>
      <point x="57.0" y="570.6363636363636"/>
      <point x="57.0" y="316.09090909090907" type="curve" smooth="yes"/>
      <point x="57.0" y="61.45454545454545"/>
      <point x="121.81818181818181" y="-57.72727272727273"/>
    </contour>
  </outline>
</glyph>
<glyph name="parenright" format="2">
  <advance width="315.0909090909091"/>
  <unicode hex="0029"/>
  <outline>
    <contour>
      <point x="43.36363636363636" y="-121.63636363636364" type="line"/>
      <point x="204.63636363636363" y="-57.72727272727273"/>
      <point x="269.45454545454544" y="61.45454545454545"/>
      <point x="269.45454545454544" y="316.09090909090907" type="curve" smooth="yes"/>
      <point x="269.45454545454544" y="570.6363636363636"/>
      <point x="204.63636363636363" y="689.7272727272727"/>
      <point x="43.36363636363636" y="752.7272727272727" type="curve"/>
      <point x="43.36363636363636" y="716.8181818181819" type="line"/>
      <point x="187.63636363636363" y="644.2727272727273"/>
      <point x="200.0" y="475.09090909090907"/>
      <point x="200.0" y="316.09090909090907" type="curve" smooth="yes"/>
      <point x="200.0" y="157.0909090909091"/>
      <point x="186.27272727272728" y="-9.0"/>
      <point x="43.36363636363636" y="-85.63636363636364" type="curve"/>
    </contour>
  </outline>
</glyph>
<glyph name="asterisk" format="2">
  <advance width="463.6363636363636"/>
  <unicode hex="002A"/>
  <outline>
    <contour>
      <point x="195.8181818181818" y="378.0" type="line"/>
      <point x="263.72727272727275" y="378.0" type="line"/>
      <point x="242.0909090909091" y="544.1818181818181" type="line"/>
      <point x="388.0" y="454.8181818181818" type="line"/>
      <point x="414.8181818181818" y="513.6363636363636" type="line"/>
      <point x="252.1818181818182" y="569.0" type="line"/>
      <point x="414.8181818181818" y="624.3636363636364" type="line"/>
      <point x="388.0" y="685.0909090909091" type="line"/>
      <point x="242.0909090909091" y="593.8181818181819" type="line"/>
      <point x="262.8181818181818" y="760.0" type="line"/>
      <point x="195.8181818181818" y="760.0" type="line"/>
      <point x="216.36363636363637" y="593.7272727272727" type="line"/>
      <point x="71.45454545454545" y="687.0909090909091" type="line"/>
      <point x="43.72727272727273" y="625.3636363636364" type="line"/>
      <point x="205.36363636363637" y="569.0" type="line"/>
      <point x="43.72727272727273" y="512.6363636363636" type="line"/>
      <point x="71.45454545454545" y="452.8181818181818" type="line"/>
      <point x="215.36363636363637" y="544.1818181818181" type="line"/>
    </contour>
  </outline>
</glyph>
<glyph name="plus" format="2">
  <advance width="559.0"/>
  <unicode hex="002B"/>
  <outline>
    <contour>
      <point x="256.27272727272725" y="143.0" type="line"/>
      <point x="301.72727272727275" y="143.0" type="line"/>
      <point x="301.72727272727275" y="334.8181818181818" type="line"/>
      <point x="494.0" y="334.8181818181818" type="line"/>
      <point x="494.0" y="379.72727272727275" type="line"/>
      <point x="301.72727272727275" y="379.72727272727275" type="line"/>
      <point x="301.72727272727275" y="572.0" type="line"/>
      <point x="256.27272727272725" y="572.0" type="line"/>
      <point x="256.27272727272725" y="379.72727272727275" type="line"/>
      <point x="65.0" y="379.72727272727275" type="line"/>
      <point x="65.0" y="334.8181818181818" type="line"/>
      <point x="256.27272727272725" y="334.8181818181818" type="line"/>
    </contour>
  </outline>
</glyph>
<glyph name="comma" format="2">
  <advance width="224.54545454545456"/>
  <unicode hex="002C"/>
  <outline>
    <contour>
      <point x="30.0" y="-154.0" type="line"/>
      <point x="131.72727272727272" y="-122.63636363636364"/>
      <point x="170.36363636363637" y="-53.90909090909091"/>
      <point x="170.36363636363637" y="22.90909090909091" type="curve" smooth="yes"/>
      <point x="170.36363636363637" y="77.0909090909091"/>
      <point x="139.8181818181818" y="103.54545454545455"/>
      <point x="105.18181818181819" y="103.54545454545455" type="curve" smooth="yes"/>
      <point x="76.36363636363636" y="103.54545454545455"/>
      <point x="57.45454545454545" y="86.18181818181819"/>
      <point x="57.45454545454545" y="57.27272727272727" type="curve" smooth="yes"/>
      <point x="57.45454545454545" y="12.636363636363637"/>
      <point x="118.63636363636364" y="11.636363636363637"/>
      <point x="118.63636363636364" y="-25.636363636363637" type="curve" smooth="yes"/>
      <point x="118.63636363636364" y="-61.0"/>
      <point x="92.27272727272727" y="-101.9090909090909"/>
      <point x="30.0" y="-121.0909090909091" type="curve"/>
    </contour>
  </outline>
</glyph>
<glyph name="hyphen" format="2">
  <advance width="310.0"/>
  <unicode hex="002D"/>
  <outline>
    <contour>
      <point x="25.0" y="245.9090909090909" type="line"/>
      <point x="285.0" y="245.9090909090909" type="line"/>
      <point x="285.0" y="299.54545454545456" type="line"/>
      <point x="25.0" y="299.54545454545456" type="line"/>
    </contour>
  </outline>
</glyph>
<glyph name="period" format="2">
  <advance width="224.54545454545456"/>
  <unicode hex="002E"/>
  <outline>
    <contour>
      <point x="112.27272727272728" y="-6.090909090909091" type="curve" smooth="yes"/>
      <point x="138.0909090909091" y="-6.090909090909091"/>
      <point x="159.8181818181818" y="7.272727272727273"/>
      <point x="159.8181818181818" y="49.18181818181818" type="curve" smooth="yes"/>
      <point x="159.8181818181818" y="91.18181818181819"/>
      <point x="138.0909090909091" y="103.54545454545455"/>
      <point x="112.27272727272728" y="103.54545454545455" type="curve" smooth="yes"/>
      <point x="86.36363636363636" y="103.54545454545455"/>
      <point x="64.72727272727273" y="91.18181818181819"/>
      <point x="64.72727272727273" y="49.18181818181818" type="curve" smooth="yes"/>
      <point x="64.72727272727273" y="7.272727272727273"/>
      <point x="86.36363636363636" y="-6.090909090909091"/>
    </contour>
  </outline>
</glyph>
<glyph name="slash" format="2">
  <advance width="288.0"/>
  <unicode hex="002F"/>
  <outline>
    <contour>
      <point x="0.0" y="-121.0" type="line"/>
      <point x="45.36363636363636" y="-121.0" type="line"/>
      <point x="288.0" y="760.0" type="line"/>
      <point x="243.1818181818182" y="760.0" type="line"/>
    </contour>
  </outline>
</glyph>
<glyph name="one" format="2">
  <advance width="559.0"/>
  <unicode hex="0031"/>
  <outline>
    <contour>
      <point x="113.27272727272728" y="0.0" type="line"/>
      <point x="448.8181818181818" y="0.0" type="line"/>
      <point x="448.8181818181818" y="32.0" type="line"/>
      <point x="390.72727272727275" y="32.0" type="line" smooth="yes"/>
      <point x="343.45454545454544" y="32.0"/>
      <point x="320.54545454545456" y="41.90909090909091"/>
      <point x="320.54545454545456" y="111.27272727272727" type="curve" smooth="yes"/>
      <point x="320.54545454545456" y="718.0" type="line"/>
      <point x="276.54545454545456" y="718.0" type="line"/>
      <point x="224.72727272727272" y="671.0" type="line" smooth="yes"/>
      <point x="164.1818181818182" y="614.2727272727273"/>
      <point x="126.0" y="599.4545454545455"/>
      <point x="79.63636363636364" y="589.0" type="curve"/>
      <point x="79.63636363636364" y="566.5454545454545"/>
      <point x="95.18181818181819" y="551.3636363636364"/>
      <point x="121.9090909090909" y="551.3636363636364" type="curve" smooth="yes"/>
      <point x="161.9090909090909" y="551.3636363636364"/>
      <point x="203.54545454545453" y="590.6363636363636"/>
      <point x="252.72727272727272" y="652.6363636363636" type="curve"/>
      <point x="252.72727272727272" y="111.27272727272727" type="line" smooth="yes"/>
      <point x="252.72727272727272" y="41.90909090909091"/>
      <point x="229.8181818181818" y="32.0"/>
      <point x="182.54545454545453" y="32.0" type="curve" smooth="yes"/>
      <point x="113.27272727272728" y="32.0" type="line"/>
    </contour>
  </outline>
</glyph>
<glyph name="two" format="2">
  <advance width="559.0"/>
  <unicode hex="0032"/>
  <outline>
    <contour>
      <point x="60.09090909090909" y="0.0" type="line"/>
      <point x="481.90909090909093" y="0.0" type="line"/>
      <point x="486.90909090909093" y="152.0909090909091" type="line"/>
      <point x="454.90909090909093" y="152.0909090909091" type="line"/>
      <point x="451.8181818181818" y="127.72727272727272" type="line" smooth="yes"/>
      <point x="445.54545454545456" y="81.0"/>
      <point x="434.6363636363636" y="55.0"/>
      <point x="378.27272727272725" y="55.0" type="curve" smooth="yes"/>
      <point x="117.72727272727273" y="55.0" type="line"/>
      <point x="320.3636363636364" y="277.90909090909093" type="line" smooth="yes"/>
      <point x="409.45454545454544" y="376.1818181818182"/>
      <point x="463.72727272727275" y="447.6363636363636"/>
      <point x="463.72727272727275" y="549.7272727272727" type="curve" smooth="yes"/>
      <point x="463.72727272727275" y="647.0909090909091"/>
      <point x="396.72727272727275" y="724.0"/>
      <point x="266.1818181818182" y="724.0" type="curve" smooth="yes"/>
      <point x="140.36363636363637" y="724.0"/>
      <point x="78.36363636363636" y="661.5454545454545"/>
      <point x="78.36363636363636" y="597.7272727272727" type="curve" smooth="yes"/>
      <point x="78.36363636363636" y="559.0"/>
      <point x="102.27272727272727" y="545.0"/>
      <point x="134.8181818181818" y="545.0" type="curve"/>
      <point x="134.8181818181818" y="626.7272727272727"/>
      <point x="172.0" y="685.3636363636364"/>
      <point x="266.1818181818182" y="685.3636363636364" type="curve" smooth="yes"/>
      <point x="359.8181818181818" y="685.3636363636364"/>
      <point x="395.9090909090909" y="618.0"/>
      <point x="395.9090909090909" y="543.3636363636364" type="curve" smooth="yes"/>
      <point x="395.9090909090909" y="445.90909090909093"/>
      <point x="356.72727272727275" y="385.3636363636364"/>
      <point x="258.45454545454544" y="273.27272727272725" type="curve" smooth="yes"/>
      <point x="60.09090909090909" y="49.81818181818182" type="line"/>
    </contour>
  </outline>
</glyph>
<glyph name="three" format="2">
  <advance width="559.0"/>
  <unicode hex="0033"/>
  <outline>
    <contour>
      <point x="258.3636363636364" y="-9.545454545454545" type="curve" smooth="yes"/>
      <point x="371.54545454545456" y="-9.545454545454545"/>
      <point x="493.72727272727275" y="46.63636363636363"/>
      <point x="493.72727272727275" y="198.54545454545453" type="curve" smooth="yes"/>
      <point x="493.72727272727275" y="328.27272727272725"/>
      <point x="401.8181818181818" y="371.1818181818182"/>
      <point x="327.8181818181818" y="379.1818181818182" type="curve"/>
      <point x="405.72727272727275" y="398.45454545454544"/>
      <point x="468.72727272727275" y="465.0"/>
      <point x="468.72727272727275" y="560.4545454545455" type="curve" smooth="yes"/>
      <point x="468.72727272727275" y="665.0909090909091"/>
      <point x="394.72727272727275" y="724.0"/>
      <point x="272.8181818181818" y="724.0" type="curve" smooth="yes"/>
      <point x="150.1818181818182" y="724.0"/>
      <point x="88.18181818181819" y="662.9090909090909"/>
      <point x="88.18181818181819" y="596.3636363636364" type="curve" smooth="yes"/>
      <point x="88.18181818181819" y="559.0"/>
      <point x="112.0909090909091" y="545.0"/>
      <point x="144.63636363636363" y="545.0" type="curve"/>
      <point x="144.63636363636363" y="625.8181818181819"/>
      <point x="178.63636363636363" y="685.3636363636364"/>
      <point x="274.1818181818182" y="685.3636363636364" type="curve" smooth="yes"/>
      <point x="359.8181818181818" y="685.3636363636364"/>
      <point x="399.8181818181818" y="636.6363636363636"/>
      <point x="399.8181818181818" y="551.8181818181819" type="curve" smooth="yes"/>
      <point x="399.8181818181818" y="451.8181818181818"/>
      <point x="331.72727272727275" y="391.3636363636364"/>
      <point x="238.72727272727272" y="391.3636363636364" type="curve"/>
      <point x="208.54545454545453" y="391.3636363636364" type="line"/>
      <point x="208.54545454545453" y="352.1818181818182" type="line"/>
      <point x="241.45454545454544" y="352.1818181818182" type="line" smooth="yes"/>
      <point x="364.8181818181818" y="352.1818181818182"/>
      <point x="424.27272727272725" y="294.0"/>
      <point x="424.27272727272725" y="197.72727272727272" type="curve" smooth="yes"/>
      <point x="424.27272727272725" y="80.9090909090909"/>
      <point x="347.45454545454544" y="31.272727272727273"/>
      <point x="259.3636363636364" y="31.272727272727273" type="curve" smooth="yes"/>
      <point x="162.9090909090909" y="31.272727272727273"/>
      <point x="116.45454545454545" y="81.36363636363636"/>
      <point x="116.45454545454545" y="151.8181818181818" type="curve"/>
      <point x="90.72727272727272" y="151.8181818181818"/>
      <point x="72.54545454545455" y="135.0909090909091"/>
      <point x="72.54545454545455" y="101.45454545454545" type="curve" smooth="yes"/>
      <point x="72.54545454545455" y="44.72727272727273"/>
      <point x="129.0909090909091" y="-9.545454545454545"/>
    </contour>
  </outline>
</glyph>
<glyph name="four" format="2">
  <advance width="559.0"/>
  <unicode hex="0034"/>
  <outline>
    <contour>
      <point x="238.63636363636363" y="0.0" type="line"/>
      <point x="507.8181818181818" y="0.0" type="line"/>
      <point x="507.8181818181818" y="32.0" type="line"/>
      <point x="483.45454545454544" y="32.0" type="line" smooth="yes"/>
      <point x="436.1818181818182" y="32.0"/>
      <point x="413.27272727272725" y="41.90909090909091"/>
      <point x="413.27272727272725" y="111.27272727272727" type="curve" smooth="yes"/>
      <point x="413.27272727272725" y="201.45454545454547" type="line"/>
      <point x="545.0" y="201.45454545454547" type="line"/>
      <point x="545.0" y="243.36363636363637" type="line"/>
      <point x="413.27272727272725" y="243.36363636363637" type="line"/>
      <point x="413.27272727272725" y="714.0" type="line"/>
      <point x="348.27272727272725" y="714.0" type="line"/>
      <point x="19.727272727272727" y="231.54545454545453" type="line"/>
      <point x="19.727272727272727" y="201.45454545454547" type="line"/>
      <point x="348.1818181818182" y="201.45454545454547" type="line"/>
      <point x="348.1818181818182" y="111.27272727272727" type="line" smooth="yes"/>
      <point x="348.1818181818182" y="41.90909090909091"/>
      <point x="325.27272727272725" y="32.0"/>
      <point x="278.0" y="32.0" type="curve" smooth="yes"/>
      <point x="238.63636363636363" y="32.0" type="line"/>
    </contour>
    <contour>
      <point x="75.36363636363636" y="243.36363636363637" type="line"/>
      <point x="250.63636363636363" y="500.0" type="line" smooth="yes"/>
      <point x="279.54545454545456" y="542.3636363636364"/>
      <point x="339.90909090909093" y="636.5454545454545"/>
      <point x="352.90909090909093" y="661.7272727272727" type="curve"/>
      <point x="349.72727272727275" y="599.7272727272727"/>
      <point x="348.1818181818182" y="500.45454545454544"/>
      <point x="348.1818181818182" y="442.45454545454544" type="curve" smooth="yes"/>
      <point x="348.1818181818182" y="243.36363636363637" type="line"/>
    </contour>
  </outline>
</glyph>
<glyph name="five" format="2">
  <advance width="559.0"/>
  <unicode hex="0035"/>
  <outline>
    <contour>
      <point x="246.27272727272728" y="-10.0" type="curve" smooth="yes"/>
      <point x="393.3636363636364" y="-10.0"/>
      <point x="474.1818181818182" y="86.0909090909091"/>
      <point x="474.1818181818182" y="217.0909090909091" type="curve" smooth="yes"/>
      <point x="474.1818181818182" y="356.27272727272725"/>
      <point x="378.8181818181818" y="426.27272727272725"/>
      <point x="257.09090909090907" y="426.27272727272725" type="curve" smooth="yes"/>
      <point x="204.45454545454547" y="426.27272727272725"/>
      <point x="164.63636363636363" y="416.3636363636364"/>
      <point x="139.63636363636363" y="402.54545454545456" type="curve"/>
      <point x="162.72727272727272" y="656.1818181818181" type="line"/>
      <point x="354.0" y="656.1818181818181" type="line" smooth="yes"/>
      <point x="401.90909090909093" y="656.1818181818181"/>
      <point x="409.90909090909093" y="648.1818181818181"/>
      <point x="413.0" y="608.8181818181819" type="curve" smooth="yes"/>
      <point x="415.6363636363636" y="579.7272727272727" type="line"/>
      <point x="447.6363636363636" y="579.7272727272727" type="line"/>
      <point x="443.54545454545456" y="712.5454545454545" type="line"/>
      <point x="127.72727272727272" y="712.5454545454545" type="line"/>
      <point x="94.81818181818181" y="357.1818181818182" type="line"/>
      <point x="113.81818181818181" y="351.54545454545456" type="line"/>
      <point x="143.8181818181818" y="373.45454545454544"/>
      <point x="184.63636363636363" y="384.90909090909093"/>
      <point x="244.54545454545453" y="384.90909090909093" type="curve" smooth="yes"/>
      <point x="337.90909090909093" y="384.90909090909093"/>
      <point x="404.72727272727275" y="327.09090909090907"/>
      <point x="404.72727272727275" y="217.0909090909091" type="curve" smooth="yes"/>
      <point x="404.72727272727275" y="94.63636363636364"/>
      <point x="342.3636363636364" y="33.54545454545455"/>
      <point x="246.27272727272728" y="33.54545454545455" type="curve" smooth="yes"/>
      <point x="163.45454545454547" y="33.54545454545455"/>
      <point x="110.27272727272728" y="71.18181818181819"/>
      <point x="110.27272727272728" y="139.0909090909091" type="curve"/>
      <point x="81.81818181818181" y="139.0909090909091"/>
      <point x="66.36363636363636" y="123.9090909090909"/>
      <point x="66.36363636363636" y="91.9090909090909" type="curve" smooth="yes"/>
      <point x="66.36363636363636" y="42.81818181818182"/>
      <point x="117.81818181818181" y="-10.0"/>
    </contour>
  </outline>
</glyph>
<glyph name="seven" format="2">
  <advance width="559.0"/>
  <unicode hex="0037"/>
  <outline>
    <contour>
      <point x="188.1818181818182" y="0.0" type="line"/>
      <point x="241.36363636363637" y="0.0" type="line"/>
      <point x="502.8181818181818" y="686.7272727272727" type="line"/>
      <point x="502.8181818181818" y="712.5454545454545" type="line"/>
      <point x="64.45454545454545" y="712.5454545454545" type="line"/>
      <point x="59.0" y="548.3636363636364" type="line"/>
      <point x="91.0" y="548.3636363636364" type="line"/>
      <point x="95.0" y="604.2727272727273" type="line" smooth="yes"/>
      <point x="98.0" y="644.5454545454545"/>
      <point x="113.36363636363636" y="656.1818181818181"/>
      <point x="149.36363636363637" y="656.1818181818181" type="curve" smooth="yes"/>
      <point x="443.27272727272725" y="656.1818181818181" type="line"/>
    </contour>
  </outline>
</glyph>
<glyph name="eight" format="2">
  <advance width="559.0"/>
  <unicode hex="0038"/>
  <outline>
    <contour>
      <point x="275.72727272727275" y="-10.0" type="curve" smooth="yes"/>
      <point x="412.6363636363636" y="-10.0"/>
      <point x="503.90909090909093" y="57.63636363636364"/>
      <point x="503.90909090909093" y="180.0909090909091" type="curve" smooth="yes"/>
      <point x="503.90909090909093" y="276.1818181818182"/>
      <point x="445.09090909090907" y="328.72727272727275"/>
      <point x="336.09090909090907" y="378.90909090909093" type="curve"/>
      <point x="423.45454545454544" y="415.27272727272725"/>
      <point x="477.45454545454544" y="466.72727272727275"/>
      <point x="477.45454545454544" y="556.5454545454545" type="curve" smooth="yes"/>
      <point x="477.45454545454544" y="652.4545454545455"/>
      <point x="409.54545454545456" y="724.0"/>
      <point x="284.09090909090907" y="724.0" type="curve" smooth="yes"/>
      <point x="147.36363636363637" y="724.0"/>
      <point x="82.63636363636364" y="647.9090909090909"/>
      <point x="82.63636363636364" y="549.5454545454545" type="curve" smooth="yes"/>
      <point x="82.63636363636364" y="461.90909090909093"/>
      <point x="139.27272727272728" y="410.0"/>
      <point x="222.0909090909091" y="368.3636363636364" type="curve"/>
      <point x="123.72727272727272" y="328.6363636363636"/>
      <point x="58.72727272727273" y="273.1818181818182"/>
      <point x="58.72727272727273" y="174.45454545454547" type="curve" smooth="yes"/>
      <point x="58.72727272727273" y="66.27272727272728"/>
      <point x="133.0" y="-10.0"/>
    </contour>
    <contour>
      <point x="277.09090909090907" y="26.454545454545453" type="curve" smooth="yes"/>
      <point x="175.8181818181818" y="26.454545454545453"/>
      <point x="124.36363636363636" y="82.45454545454545"/>
      <point x="124.36363636363636" y="173.1818181818182" type="curve" smooth="yes"/>
      <point x="124.36363636363636" y="251.8181818181818"/>
      <point x="173.45454545454547" y="313.09090909090907"/>
      <point x="263.72727272727275" y="348.90909090909093" type="curve"/>
      <point x="403.6363636363636" y="290.1818181818182"/>
      <point x="441.54545454545456" y="240.63636363636363"/>
      <point x="441.54545454545456" y="169.0" type="curve" smooth="yes"/>
      <point x="441.54545454545456" y="79.27272727272728"/>
      <point x="376.8181818181818" y="26.454545454545453"/>
    </contour>
    <contour>
      <point x="294.8181818181818" y="397.8181818181818" type="curve"/>
      <point x="196.72727272727272" y="441.09090909090907"/>
      <point x="146.63636363636363" y="477.72727272727275"/>
      <point x="146.63636363636363" y="558.8181818181819" type="curve" smooth="yes"/>
      <point x="146.63636363636363" y="635.0909090909091"/>
      <point x="194.9090909090909" y="687.0"/>
      <point x="283.54545454545456" y="687.0" type="curve" smooth="yes"/>
      <point x="380.27272727272725" y="687.0"/>
      <point x="416.1818181818182" y="622.2727272727273"/>
      <point x="416.1818181818182" y="555.8181818181819" type="curve" smooth="yes"/>
      <point x="416.1818181818182" y="484.0"/>
      <point x="388.45454545454544" y="434.3636363636364"/>
    </contour>
  </outline>
</glyph>
<glyph name="nine" format="2">
  <advance width="559.0"/>
  <unicode hex="0039"/>
  <outline>
    <contour>
      <point x="227.0" y="-11.0" type="curve"/>
      <point x="414.6363636363636" y="-11.0"/>
      <point x="488.90909090909093" y="153.45454545454547"/>
      <point x="488.90909090909093" y="388.0" type="curve"/>
      <point x="488.90909090909093" y="618.4545454545455"/>
      <point x="400.0" y="724.0"/>
      <point x="261.3636363636364" y="724.0" type="curve" smooth="yes"/>
      <point x="131.45454545454547" y="724.0"/>
      <point x="60.09090909090909" y="624.2727272727273"/>
      <point x="60.09090909090909" y="483.45454545454544" type="curve" smooth="yes"/>
      <point x="60.09090909090909" y="357.54545454545456"/>
      <point x="132.45454545454547" y="280.45454545454544"/>
      <point x="258.0" y="280.45454545454544" type="curve" smooth="yes"/>
      <point x="333.90909090909093" y="280.45454545454544"/>
      <point x="393.27272727272725" y="320.72727272727275"/>
      <point x="420.0" y="349.8181818181818" type="curve"/>
      <point x="416.1818181818182" y="137.9090909090909"/>
      <point x="355.8181818181818" y="30.363636363636363"/>
      <point x="231.1818181818182" y="30.363636363636363" type="curve" smooth="yes"/>
      <point x="168.63636363636363" y="30.363636363636363"/>
      <point x="132.27272727272728" y="59.18181818181819"/>
      <point x="112.0" y="103.45454545454545" type="curve"/>
      <point x="101.0909090909091" y="99.36363636363636"/>
      <point x="91.54545454545455" y="86.36363636363636"/>
      <point x="91.54545454545455" y="68.18181818181819" type="curve" smooth="yes"/>
      <point x="91.54545454545455" y="31.181818181818183"/>
      <point x="126.27272727272727" y="-11.0"/>
    </contour>
    <contour>
      <point x="268.1818181818182" y="324.0" type="curve" smooth="yes"/>
      <point x="176.63636363636363" y="324.0"/>
      <point x="129.0" y="381.1818181818182"/>
      <point x="129.0" y="488.0" type="curve" smooth="yes"/>
      <point x="129.0" y="605.0"/>
      <point x="171.8181818181818" y="682.6363636363636"/>
      <point x="263.1818181818182" y="682.6363636363636" type="curve" smooth="yes"/>
      <point x="361.54545454545456" y="682.6363636363636"/>
      <point x="418.9090909090909" y="591.1818181818181"/>
      <point x="420.54545454545456" y="403.1818181818182" type="curve"/>
      <point x="399.8181818181818" y="371.54545454545456"/>
      <point x="348.6363636363636" y="324.0"/>
    </contour>
  </outline>
</glyph>
<glyph name="colon" format="2">
  <advance width="257.8181818181818"/>
  <unicode hex="003A"/>
  <outline>
    <contour>
      <point x="128.54545454545456" y="417.72727272727275" type="curve" smooth="yes"/>
      <point x="154.36363636363637" y="417.72727272727275"/>
      <point x="176.0909090909091" y="431.09090909090907"/>
      <point x="176.0909090909091" y="473.0" type="curve" smooth="yes"/>
      <point x="176.0909090909091" y="515.0"/>
      <point x="154.36363636363637" y="527.3636363636364"/>
      <point x="128.54545454545456" y="527.3636363636364" type="curve" smooth="yes"/>
      <point x="102.63636363636364" y="527.3636363636364"/>
      <point x="81.0" y="515.0"/>
      <point x="81.0" y="473.0" type="curve" smooth="yes"/>
      <point x="81.0" y="431.09090909090907"/>
      <point x="102.63636363636364" y="417.72727272727275"/>
    </contour>
    <contour>
      <point x="128.54545454545456" y="-6.090909090909091" type="curve" smooth="yes"/>
      <point x="154.36363636363637" y="-6.090909090909091"/>
      <point x="176.0909090909091" y="7.272727272727273"/>
      <point x="176.0909090909091" y="49.18181818181818" type="curve" smooth="yes"/>
      <point x="176.0909090909091" y="91.18181818181819"/>
      <point x="154.36363636363637" y="103.54545454545455"/>
      <point x="128.54545454545456" y="103.54545454545455" type="curve" smooth="yes"/>
      <point x="102.63636363636364" y="103.54545454545455"/>
      <point x="81.0" y="91.18181818181819"/>
      <point x="81.0" y="49.18181818181818" type="curve" smooth="yes"/>
      <point x="81.0" y="7.272727272727273"/>
      <point x="102.63636363636364" y="-6.090909090909091"/>
    </contour>
  </outline>
</glyph>
<glyph name="semicolon" format="2">
  <advance width="257.8181818181818"/>
  <unicode hex="003B"/>
  <outline>
    <contour>
      <point x="45.27272727272727" y="-154.0" type="line"/>
      <point x="147.0" y="-122.63636363636364"/>
      <point x="185.63636363636363" y="-53.90909090909091"/>
      <point x="185.63636363636363" y="22.90909090909091" type="curve" smooth="yes"/>
      <point x="185.63636363636363" y="77.0909090909091"/>
      <point x="155.0909090909091" y="103.54545454545455"/>
      <point x="120.45454545454545" y="103.54545454545455" type="curve" smooth="yes"/>
      <point x="91.63636363636364" y="103.54545454545455"/>
      <point x="72.72727272727273" y="86.18181818181819"/>
      <point x="72.72727272727273" y="57.27272727272727" type="curve" smooth="yes"/>
      <point x="72.72727272727273" y="12.636363636363637"/>
      <point x="133.9090909090909" y="11.636363636363637"/>
      <point x="133.9090909090909" y="-25.636363636363637" type="curve" smooth="yes"/>
      <point x="133.9090909090909" y="-61.0"/>
      <point x="107.54545454545455" y="-101.9090909090909"/>
      <point x="45.27272727272727" y="-121.0909090909091" type="curve"/>
    </contour>
    <contour>
      <point x="128.54545454545456" y="417.72727272727275" type="curve" smooth="yes"/>
      <point x="154.36363636363637" y="417.72727272727275"/>
      <point x="176.0909090909091" y="431.09090909090907"/>
      <point x="176.0909090909091" y="473.0" type="curve" smooth="yes"/>
      <point x="176.0909090909091" y="515.0"/>
      <point x="154.36363636363637" y="527.3636363636364"/>
      <point x="128.54545454545456" y="527.3636363636364" type="curve" smooth="yes"/>
      <point x="102.63636363636364" y="527.3636363636364"/>
      <point x="81.0" y="515.0"/>
      <point x="81.0" y="473.0" type="curve" smooth="yes"/>
      <point x="81.0" y="431.09090909090907"/>
      <point x="102.63636363636364" y="417.72727272727275"/>
    </contour>
  </outline>
</glyph>
<glyph name="less" format="2">
  <advance width="559.0"/>
  <unicode hex="003C"/>
  <outline>
    <contour>
      <point x="494.0" y="113.63636363636364" type="line"/>
      <point x="494.0" y="164.27272727272728" type="line"/>
      <point x="129.36363636363637" y="357.0" type="line"/>
      <point x="494.0" y="551.7272727272727" type="line"/>
      <point x="494.0" y="602.3636363636364" type="line"/>
      <point x="65.0" y="373.1818181818182" type="line"/>
      <point x="65.0" y="341.8181818181818" type="line"/>
    </contour>
  </outline>
</glyph>
<glyph name="equal" format="2">
  <advance width="559.0"/>
  <unicode hex="003D"/>
  <outline>
    <contour>
      <point x="65.9090909090909" y="437.3636363636364" type="line"/>
      <point x="492.1818181818182" y="437.3636363636364" type="line"/>
      <point x="492.1818181818182" y="482.27272727272725" type="line"/>
      <point x="65.9090909090909" y="482.27272727272725" type="line"/>
    </contour>
    <contour>
      <point x="65.9090909090909" y="231.72727272727272" type="line"/>
      <point x="492.1818181818182" y="231.72727272727272" type="line"/>
      <point x="492.1818181818182" y="276.6363636363636" type="line"/>
      <point x="65.9090909090909" y="276.6363636363636" type="line"/>
    </contour>
  </outline>
</glyph>
<glyph name="greater" format="2">
  <advance width="559.0"/>
  <unicode hex="003E"/>
  <outline>
    <contour>
      <point x="65.0" y="113.63636363636364" type="line"/>
      <point x="494.0" y="341.8181818181818" type="line"/>
      <point x="494.0" y="373.1818181818182" type="line"/>
      <point x="65.0" y="602.3636363636364" type="line"/>
      <point x="65.0" y="551.7272727272727" type="line"/>
      <point x="427.8181818181818" y="357.0" type="line"/>
      <point x="65.0" y="164.27272727272728" type="line"/>
    </contour>
  </outline>
</glyph>
<glyph name="question" format="2">
  <advance width="481.8181818181818"/>
  <unicode hex="003F"/>
  <outline>
    <contour>
      <point x="200.36363636363637" y="201.0" type="line"/>
      <point x="242.72727272727272" y="201.0" type="line"/>
      <point x="244.54545454545453" y="318.54545454545456" type="line"/>
      <point x="363.09090909090907" y="370.45454545454544"/>
      <point x="422.6363636363636" y="436.6363636363636"/>
      <point x="422.6363636363636" y="546.6363636363636" type="curve" smooth="yes"/>
      <point x="422.6363636363636" y="654.2727272727273"/>
      <point x="342.8181818181818" y="724.0"/>
      <point x="221.8181818181818" y="724.0" type="curve" smooth="yes"/>
      <point x="93.72727272727273" y="724.0"/>
      <point x="45.27272727272727" y="666.9090909090909"/>
      <point x="45.27272727272727" y="614.7272727272727" type="curve" smooth="yes"/>
      <point x="45.27272727272727" y="580.3636363636364"/>
      <point x="67.54545454545455" y="561.5454545454545"/>
      <point x="100.0909090909091" y="561.5454545454545" type="curve"/>
      <point x="100.0909090909091" y="626.4545454545455"/>
      <point x="127.72727272727272" y="685.9090909090909"/>
      <point x="227.0909090909091" y="685.9090909090909" type="curve" smooth="yes"/>
      <point x="314.54545454545456" y="685.9090909090909"/>
      <point x="355.6363636363636" y="631.2727272727273"/>
      <point x="355.6363636363636" y="555.9090909090909" type="curve" smooth="yes"/>
      <point x="355.6363636363636" y="465.45454545454544"/>
      <point x="312.72727272727275" y="395.0"/>
      <point x="198.54545454545453" y="345.72727272727275" type="curve"/>
    </contour>
    <contour>
      <point x="220.27272727272728" y="-6.090909090909091" type="curve" smooth="yes"/>
      <point x="246.0909090909091" y="-6.090909090909091"/>
      <point x="267.8181818181818" y="7.272727272727273"/>
      <point x="267.8181818181818" y="49.18181818181818" type="curve" smooth="yes"/>
      <point x="267.8181818181818" y="91.18181818181819"/>
      <point x="246.0909090909091" y="103.54545454545455"/>
      <point x="220.27272727272728" y="103.54545454545455" type="curve" smooth="yes"/>
      <point x="194.36363636363637" y="103.54545454545455"/>
      <point x="172.72727272727272" y="91.18181818181819"/>
      <point x="172.72727272727272" y="49.18181818181818" type="curve" smooth="yes"/>
      <point x="172.72727272727272" y="7.272727272727273"/>
      <point x="194.36363636363637" y="-6.090909090909091"/>
    </contour>
  </outline>
</glyph>
<glyph name="bracketleft" format="2">
  <advance width="329.0909090909091"/>
  <unicode hex="005B"/>
  <outline>
    <contour>
      <point x="100.0" y="-128.0" type="line"/>
      <point x="292.0909090909091" y="-128.0" type="line"/>
      <point x="292.0909090909091" y="-96.0" type="line"/>
      <point x="236.36363636363637" y="-96.0" type="line" smooth="yes"/>
      <point x="189.0909090909091" y="-96.0"/>
      <point x="166.1818181818182" y="-86.0909090909091"/>
      <point x="166.1818181818182" y="-16.727272727272727" type="curve" smooth="yes"/>
      <point x="166.1818181818182" y="648.7272727272727" type="line" smooth="yes"/>
      <point x="166.1818181818182" y="718.0909090909091"/>
      <point x="189.0909090909091" y="728.0"/>
      <point x="236.36363636363637" y="728.0" type="curve" smooth="yes"/>
      <point x="292.0909090909091" y="728.0" type="line"/>
      <point x="292.0909090909091" y="760.0" type="line"/>
      <point x="100.0" y="760.0" type="line"/>
    </contour>
  </outline>
</glyph>
<glyph name="bracketright" format="2">
  <advance width="329.0909090909091"/>
  <unicode hex="005D"/>
  <outline>
    <contour>
      <point x="37.0" y="-128.0" type="line"/>
      <point x="229.0909090909091" y="-128.0" type="line"/>
      <point x="229.0909090909091" y="760.0" type="line"/>
      <point x="37.0" y="760.0" type="line"/>
      <point x="37.0" y="728.0" type="line"/>
      <point x="92.72727272727272" y="728.0" type="line" smooth="yes"/>
      <point x="140.0" y="728.0"/>
      <point x="162.9090909090909" y="718.0909090909091"/>
      <point x="162.9090909090909" y="648.7272727272727" type="curve" smooth="yes"/>
      <point x="162.9090909090909" y="-16.727272727272727" type="line" smooth="yes"/>
      <point x="162.9090909090909" y="-86.0909090909091"/>
      <point x="140.0" y="-96.0"/>
      <point x="92.72727272727272" y="-96.0" type="curve" smooth="yes"/>
      <point x="37.0" y="-96.0" type="line"/>
    </contour>
  </outline>
</glyph>
<glyph name="asciicircum" format="2">
  <advance width="559.0"/>
  <unicode hex="005E"/>
  <outline>
    <contour>
      <point x="53.72727272727273" y="268.72727272727275" type="line"/>
      <point x="104.36363636363636" y="268.72727272727275" type="line"/>
      <point x="278.0" y="647.9090909090909" type="line"/>
      <point x="453.6363636363636" y="268.72727272727275" type="line"/>
      <point x="504.27272727272725" y="268.72727272727275" type="line"/>
      <point x="293.27272727272725" y="714.0" type="line"/>
      <point x="262.8181818181818" y="714.0" type="line"/>
    </contour>
  </outline>
</glyph>
<glyph name="underscore" format="2">
  <advance width="459.0"/>
  <unicode hex="005F"/>
  <outline>
    <contour>
      <point x="-5.0" y="-126.54545454545455" type="line"/>
      <point x="464.0" y="-126.54545454545455" type="line"/>
      <point x="464.0" y="-83.0" type="line"/>
      <point x="-5.0" y="-83.0" type="line"/>
    </contour>
  </outline>
</glyph>
<glyph name="braceleft" format="2">
  <advance width="419.8181818181818"/>
  <unicode hex="007B"/>
  <outline>
    <contour>
      <point x="309.27272727272725" y="-129.8181818181818" type="curve" smooth="yes"/>
      <point x="358.90909090909093" y="-129.8181818181818" type="line"/>
      <point x="358.90909090909093" y="-95.0" type="line"/>
      <point x="328.90909090909093" y="-95.0" type="line" smooth="yes"/>
      <point x="270.8181818181818" y="-95.0"/>
      <point x="246.9090909090909" y="-57.09090909090909"/>
      <point x="246.9090909090909" y="13.636363636363637" type="curve" smooth="yes"/>
      <point x="246.9090909090909" y="190.27272727272728" type="line" smooth="yes"/>
      <point x="246.9090909090909" y="259.0"/>
      <point x="211.9090909090909" y="305.3636363636364"/>
      <point x="143.63636363636363" y="316.09090909090907" type="curve"/>
      <point x="143.63636363636363" y="317.54545454545456" type="line"/>
      <point x="210.36363636363637" y="327.27272727272725"/>
      <point x="246.9090909090909" y="374.6363636363636"/>
      <point x="246.9090909090909" y="441.90909090909093" type="curve" smooth="yes"/>
      <point x="246.9090909090909" y="615.6363636363636" type="line" smooth="yes"/>
      <point x="246.9090909090909" y="688.2727272727273"/>
      <point x="270.8181818181818" y="725.1818181818181"/>
      <point x="331.1818181818182" y="725.1818181818181" type="curve" smooth="yes"/>
      <point x="358.90909090909093" y="725.1818181818181" type="line"/>
      <point x="358.90909090909093" y="760.0" type="line"/>
      <point x="309.27272727272725" y="760.0" type="line" smooth="yes"/>
      <point x="226.1818181818182" y="760.0"/>
      <point x="180.72727272727272" y="708.9090909090909"/>
      <point x="180.72727272727272" y="618.8181818181819" type="curve" smooth="yes"/>
      <point x="180.72727272727272" y="443.90909090909093" type="line" smooth="yes"/>
      <point x="180.72727272727272" y="359.27272727272725"/>
      <point x="128.72727272727272" y="333.6363636363636"/>
      <point x="61.81818181818182" y="331.6363636363636" type="curve"/>
      <point x="61.81818181818182" y="300.54545454545456" type="line"/>
      <point x="128.72727272727272" y="297.54545454545456"/>
      <point x="180.72727272727272" y="272.90909090909093"/>
      <point x="180.72727272727272" y="187.27272727272728" type="curve" smooth="yes"/>
      <point x="180.72727272727272" y="12.363636363636363" type="line" smooth="yes"/>
      <point x="180.72727272727272" y="-74.72727272727273"/>
      <point x="226.1818181818182" y="-129.8181818181818"/>
    </contour>
  </outline>
</glyph>
<glyph name="bar" format="2">
  <advance width="559.0"/>
  <unicode hex="007C"/>
  <outline>
    <contour>
      <point x="256.27272727272725" y="-240.0" type="line"/>
      <point x="301.72727272727275" y="-240.0" type="line"/>
      <point x="301.72727272727275" y="760.0" type="line"/>
      <point x="256.27272727272725" y="760.0" type="line"/>
    </contour>
  </outline>
</glyph>
<glyph name="braceright" format="2">
  <advance width="419.8181818181818"/>
  <unicode hex="007D"/>
  <outline>
    <contour>
      <point x="61.81818181818182" y="-129.8181818181818" type="line"/>
      <point x="111.45454545454545" y="-129.8181818181818" type="line" smooth="yes"/>
      <point x="194.54545454545456" y="-129.8181818181818"/>
      <point x="240.0" y="-74.72727272727273"/>
      <point x="240.0" y="12.363636363636363" type="curve" smooth="yes"/>
      <point x="240.0" y="187.27272727272728" type="line" smooth="yes"/>
      <point x="240.0" y="272.90909090909093"/>
      <point x="292.0" y="297.54545454545456"/>
      <point x="358.90909090909093" y="300.54545454545456" type="curve"/>
      <point x="358.90909090909093" y="331.6363636363636" type="line"/>
      <point x="292.0" y="333.6363636363636"/>
      <point x="240.0" y="359.27272727272725"/>
      <point x="240.0" y="443.90909090909093" type="curve" smooth="yes"/>
      <point x="240.0" y="618.8181818181819" type="line" smooth="yes"/>
      <point x="240.0" y="708.9090909090909"/>
      <point x="194.54545454545456" y="760.0"/>
      <point x="111.45454545454545" y="760.0" type="curve" smooth="yes"/>
      <point x="61.81818181818182" y="760.0" type="line"/>
      <point x="61.81818181818182" y="725.1818181818181" type="line"/>
      <point x="89.54545454545455" y="725.1818181818181" type="line" smooth="yes"/>
      <point x="149.9090909090909" y="725.1818181818181"/>
      <point x="173.8181818181818" y="688.2727272727273"/>
      <point x="173.8181818181818" y="615.6363636363636" type="curve" smooth="yes"/>
      <point x="173.8181818181818" y="441.90909090909093" type="line" smooth="yes"/>
      <point x="173.8181818181818" y="374.6363636363636"/>
      <point x="210.36363636363637" y="327.27272727272725"/>
      <point x="277.09090909090907" y="317.54545454545456" type="curve"/>
      <point x="277.09090909090907" y="316.09090909090907" type="line"/>
      <point x="208.8181818181818" y="305.3636363636364"/>
      <point x="173.8181818181818" y="259.0"/>
      <point x="173.8181818181818" y="190.27272727272728" type="curve" smooth="yes"/>
      <point x="173.8181818181818" y="13.636363636363637" type="line" smooth="yes"/>
      <point x="173.8181818181818" y="-57.09090909090909"/>
      <point x="149.9090909090909" y="-95.0"/>
      <point x="91.81818181818181" y="-95.0" type="curve" smooth="yes"/>
      <point x="61.81818181818182" y="-95.0" type="line"/>
    </contour>
  </outline>
</glyph>
<glyph name="asciitilde" format="2">
  <advance width="559.0"/>
  <unicode hex="007E"/>
  <outline>
    <contour>
      <point x="58.54545454545455" y="272.6363636363636" type="curve"/>
      <point x="104.36363636363636" y="272.6363636363636" type="line"/>
      <point x="115.9090909090909" y="354.27272727272725"/>
      <point x="131.0909090909091" y="395.45454545454544"/>
      <point x="174.63636363636363" y="395.45454545454544" type="curve" smooth="yes"/>
      <point x="212.9090909090909" y="395.45454545454544"/>
      <point x="239.63636363636363" y="364.27272727272725"/>
      <point x="268.8181818181818" y="335.1818181818182" type="curve" smooth="yes"/>
      <point x="304.0" y="299.6363636363636"/>
      <point x="339.54545454545456" y="272.6363636363636"/>
      <point x="383.8181818181818" y="272.6363636363636" type="curve" smooth="yes"/>
      <point x="471.90909090909093" y="272.6363636363636"/>
      <point x="490.09090909090907" y="377.72727272727275"/>
      <point x="499.45454545454544" y="440.3636363636364" type="curve"/>
      <point x="452.6363636363636" y="440.3636363636364" type="line"/>
      <point x="440.45454545454544" y="370.0"/>
      <point x="427.72727272727275" y="317.54545454545456"/>
      <point x="384.3636363636364" y="317.54545454545456" type="curve" smooth="yes"/>
      <point x="354.09090909090907" y="317.54545454545456"/>
      <point x="325.8181818181818" y="343.3636363636364"/>
      <point x="295.54545454545456" y="373.0" type="curve" smooth="yes"/>
      <point x="254.45454545454547" y="412.3636363636364"/>
      <point x="222.45454545454547" y="440.3636363636364"/>
      <point x="174.63636363636363" y="440.3636363636364" type="curve" smooth="yes"/>
      <point x="84.63636363636364" y="440.3636363636364"/>
      <point x="69.18181818181819" y="343.72727272727275"/>
    </contour>
  </outline>
</glyph>
<glyph name="twosuperior" format="2">
  <advance width="400.0"/>
  <unicode hex="00B2"/>
  <outline>
    <contour>
      <point x="45.18181818181818" y="387.0" type="line"/>
      <point x="334.1818181818182" y="387.0" type="line"/>
      <point x="337.1818181818182" y="497.45454545454544" type="line"/>
      <point x="310.0" y="497.45454545454544" type="line"/>
      <point x="307.3636363636364" y="473.27272727272725" type="line"/>
      <point x="304.72727272727275" y="444.45454545454544"/>
      <point x="298.45454545454544" y="432.27272727272725"/>
      <point x="259.72727272727275" y="432.27272727272725" type="curve"/>
      <point x="107.45454545454545" y="432.27272727272725" type="line"/>
      <point x="231.1818181818182" y="551.0" type="line"/>
      <point x="296.0" y="610.6363636363636"/>
      <point x="325.1818181818182" y="650.3636363636364"/>
      <point x="325.1818181818182" y="715.6363636363636" type="curve" smooth="yes"/>
      <point x="325.1818181818182" y="782.4545454545455"/>
      <point x="276.0" y="825.0"/>
      <point x="188.0" y="825.0" type="curve" smooth="yes"/>
      <point x="97.9090909090909" y="825.0"/>
      <point x="57.72727272727273" y="780.3636363636364"/>
      <point x="57.72727272727273" y="742.3636363636364" type="curve" smooth="yes"/>
      <point x="57.72727272727273" y="715.0909090909091"/>
      <point x="76.54545454545455" y="706.6363636363636"/>
      <point x="107.0" y="706.6363636363636" type="curve"/>
      <point x="107.0" y="748.5454545454545"/>
      <point x="126.27272727272728" y="791.8181818181819"/>
      <point x="187.0909090909091" y="791.8181818181819" type="curve" smooth="yes"/>
      <point x="245.0909090909091" y="791.8181818181819"/>
      <point x="263.3636363636364" y="754.8181818181819"/>
      <point x="263.3636363636364" y="710.3636363636364" type="curve" smooth="yes"/>
      <point x="263.3636363636364" y="650.5454545454545"/>
      <point x="239.8181818181818" y="606.7272727272727"/>
      <point x="182.63636363636363" y="551.4545454545455" type="curve" smooth="yes"/>
      <point x="45.18181818181818" y="417.45454545454544" type="line"/>
    </contour>
  </outline>
</glyph>
<glyph name="threesuperior" format="2">
  <advance width="400.0"/>
  <unicode hex="00B3"/>
  <outline>
    <contour>
      <point x="176.72727272727272" y="380.0" type="curve" smooth="yes"/>
      <point x="263.09090909090907" y="380.0"/>
      <point x="341.90909090909093" y="422.54545454545456"/>
      <point x="341.90909090909093" y="510.09090909090907" type="curve" smooth="yes"/>
      <point x="341.90909090909093" y="577.1818181818181"/>
      <point x="290.0" y="603.0"/>
      <point x="232.0" y="612.4545454545455" type="curve"/>
      <point x="232.0" y="616.5454545454545" type="line"/>
      <point x="282.45454545454544" y="632.5454545454545"/>
      <point x="324.90909090909093" y="662.9090909090909"/>
      <point x="324.90909090909093" y="721.8181818181819" type="curve" smooth="yes"/>
      <point x="324.90909090909093" y="781.5454545454545"/>
      <point x="275.90909090909093" y="824.0"/>
      <point x="185.0909090909091" y="824.0" type="curve" smooth="yes"/>
      <point x="102.27272727272727" y="824.0"/>
      <point x="49.63636363636363" y="782.5454545454545"/>
      <point x="49.63636363636363" y="735.9090909090909" type="curve" smooth="yes"/>
      <point x="49.63636363636363" y="706.3636363636364"/>
      <point x="69.9090909090909" y="697.9090909090909"/>
      <point x="98.18181818181819" y="697.9090909090909" type="curve"/>
      <point x="98.18181818181819" y="751.1818181818181"/>
      <point x="128.63636363636363" y="790.8181818181819"/>
      <point x="184.1818181818182" y="790.8181818181819" type="curve" smooth="yes"/>
      <point x="238.8181818181818" y="790.8181818181819"/>
      <point x="262.54545454545456" y="764.5454545454545"/>
      <point x="262.54545454545456" y="716.4545454545455" type="curve" smooth="yes"/>
      <point x="262.54545454545456" y="661.6363636363636"/>
      <point x="224.0" y="628.1818181818181"/>
      <point x="160.36363636363637" y="628.1818181818181" type="curve" smooth="yes"/>
      <point x="124.63636363636364" y="628.1818181818181" type="line"/>
      <point x="124.63636363636364" y="594.4545454545455" type="line"/>
      <point x="157.63636363636363" y="594.4545454545455" type="line" smooth="yes"/>
      <point x="242.0" y="594.4545454545455"/>
      <point x="279.54545454545456" y="564.9090909090909"/>
      <point x="279.54545454545456" y="510.6363636363636" type="curve" smooth="yes"/>
      <point x="279.54545454545456" y="445.45454545454544"/>
      <point x="239.1818181818182" y="415.90909090909093"/>
      <point x="176.0" y="415.90909090909093" type="curve" smooth="yes"/>
      <point x="107.54545454545455" y="415.90909090909093"/>
      <point x="79.18181818181819" y="455.3636363636364"/>
      <point x="79.18181818181819" y="509.6363636363636" type="curve"/>
      <point x="57.54545454545455" y="509.6363636363636"/>
      <point x="43.63636363636363" y="493.72727272727275"/>
      <point x="43.63636363636363" y="467.0" type="curve" smooth="yes"/>
      <point x="43.63636363636363" y="417.09090909090907"/>
      <point x="91.54545454545455" y="380.0"/>
    </contour>
  </outline>
</glyph>
<glyph name="divide" format="2">
  <advance width="559.0"/>
  <unicode hex="00F7"/>
  <outline>
    <contour>
      <point x="65.0" y="334.8181818181818" type="line"/>
      <point x="494.0" y="334.8181818181818" type="line"/>
      <point x="494.0" y="379.72727272727275" type="line"/>
      <point x="65.0" y="379.72727272727275" type="line"/>
    </contour>
    <contour>
      <point x="280.0" y="127.0909090909091" type="curve" smooth="yes"/>
      <point x="305.27272727272725" y="127.0909090909091"/>
      <point x="326.45454545454544" y="139.72727272727272"/>
      <point x="326.45454545454544" y="176.1818181818182" type="curve" smooth="yes"/>
      <point x="326.45454545454544" y="214.0909090909091"/>
      <point x="305.27272727272725" y="225.72727272727272"/>
      <point x="280.0" y="225.72727272727272" type="curve" smooth="yes"/>
      <point x="253.72727272727272" y="225.72727272727272"/>
      <point x="233.54545454545453" y="214.0909090909091"/>
      <point x="233.54545454545453" y="176.1818181818182" type="curve" smooth="yes"/>
      <point x="233.54545454545453" y="139.72727272727272"/>
      <point x="253.72727272727272" y="127.0909090909091"/>
    </contour>
    <contour>
      <point x="280.0" y="489.27272727272725" type="curve" smooth="yes"/>
      <point x="305.27272727272725" y="489.27272727272725"/>
      <point x="326.45454545454544" y="501.90909090909093"/>
      <point x="326.45454545454544" y="538.8181818181819" type="curve" smooth="yes"/>
      <point x="326.45454545454544" y="576.2727272727273"/>
      <point x="305.27272727272725" y="587.9090909090909"/>
      <point x="280.0" y="587.9090909090909" type="curve" smooth="yes"/>
      <point x="253.72727272727272" y="587.9090909090909"/>
      <point x="233.54545454545453" y="576.2727272727273"/>
      <point x="233.54545454545453" y="538.8181818181819" type="curve" smooth="yes"/>
      <point x="233.54545454545453" y="501.90909090909093"/>
      <point x="253.72727272727272" y="489.27272727272725"/>
    </contour>
  </outline>
</glyph>
<glyph name="udatta-deva" format="2">
  <unicode hex="0951"/>
  <anchor x="0.0" y="548.5454545454545" name="_vedic"/>
  <outline>
    <contour>
      <point x="-20.636363636363637" y="909.7272727272727" type="line"/>
      <point x="20.636363636363637" y="909.7272727272727" type="line"/>
      <point x="20.636363636363637" y="1099.7272727272727" type="line"/>
      <point x="-20.636363636363637" y="1099.7272727272727" type="line"/>
    </contour>
  </outline>
</glyph>
<glyph name="anudatta-deva" format="2">
  <unicode hex="0952"/>
  <anchor x="0.0" y="0.0" name="_bottom"/>
  <outline>
    <contour>
      <point x="-196.63636363636363" y="-515.1818181818181" type="line"/>
      <point x="196.63636363636363" y="-515.1818181818181" type="line"/>
      <point x="196.63636363636363" y="-467.72727272727275" type="line"/>
      <point x="-196.63636363636363" y="-467.72727272727275" type="line"/>
    </contour>
  </outline>
</glyph>
<glyph name="danda-deva" format="2">
  <advance width="296.8181818181818"/>
  <unicode hex="0964"/>
  <outline>
    <contour>
      <point x="115.9090909090909" y="0.0" type="line"/>
      <point x="180.9090909090909" y="0.0" type="line"/>
      <point x="180.9090909090909" y="548.5454545454545" type="line"/>
      <point x="115.9090909090909" y="548.5454545454545" type="line"/>
    </contour>
  </outline>
</glyph>
<glyph name="dbldanda-deva" format="2">
  <advance width="529.6363636363636"/>
  <unicode hex="0965"/>
  <outline>
    <contour>
      <point x="348.72727272727275" y="0.0" type="line"/>
      <point x="413.72727272727275" y="0.0" type="line"/>
      <point x="413.72727272727275" y="548.5454545454545" type="line"/>
      <point x="348.72727272727275" y="548.5454545454545" type="line"/>
    </contour>
    <contour>
      <point x="115.9090909090909" y="0.0" type="line"/>
      <point x="180.9090909090909" y="0.0" type="line"/>
      <point x="180.9090909090909" y="548.5454545454545" type="line"/>
      <point x="115.9090909090909" y="548.5454545454545" type="line"/>
    </contour>
  </outline>
</glyph>
<glyph name="anusvara-tamil" format="2">
  <unicode hex="0B82"/>
  <note>
uni0B82
</note>
  <anchor x="0.0" y="548.5454545454545" name="_top"/>
  <outline>
    <contour>
      <point x="0.0" y="640.7272727272727" type="curve" smooth="yes"/>
      <point x="63.63636363636364" y="640.7272727272727"/>
      <point x="109.18181818181819" y="686.0"/>
      <point x="109.18181818181819" y="748.7272727272727" type="curve" smooth="yes"/>
      <point x="109.18181818181819" y="811.5454545454545"/>
      <point x="63.63636363636364" y="856.8181818181819"/>
      <point x="0.0" y="856.8181818181819" type="curve" smooth="yes"/>
      <point x="-63.63636363636364" y="856.8181818181819"/>
      <point x="-109.18181818181819" y="811.5454545454545"/>
      <point x="-109.18181818181819" y="748.7272727272727" type="curve" smooth="yes"/>
      <point x="-109.18181818181819" y="686.0"/>
      <point x="-63.63636363636364" y="640.7272727272727"/>
    </contour>
    <contour>
      <point x="0.0" y="681.0909090909091" type="curve" smooth="yes"/>
      <point x="-38.81818181818182" y="681.0909090909091"/>
      <point x="-65.27272727272727" y="709.3636363636364"/>
      <point x="-65.27272727272727" y="748.7272727272727" type="curve" smooth="yes"/>
      <point x="-65.27272727272727" y="788.1818181818181"/>
      <point x="-38.81818181818182" y="816.4545454545455"/>
      <point x="0.0" y="816.4545454545455" type="curve" smooth="yes"/>
      <point x="38.81818181818182" y="816.4545454545455"/>
      <point x="65.27272727272727" y="788.1818181818181"/>
      <point x="65.27272727272727" y="748.7272727272727" type="curve" smooth="yes"/>
      <point x="65.27272727272727" y="709.3636363636364"/>
      <point x="38.81818181818182" y="681.0909090909091"/>
    </contour>
  </outline>
</glyph>
<glyph name="visarga-tamil" format="2">
  <advance width="884.2727272727273"/>
  <unicode hex="0B83"/>
  <note>
uni0B83
</note>
  <outline>
    <contour>
      <point x="659.3636363636364" y="0.0" type="curve" smooth="yes"/>
      <point x="751.5454545454545" y="0.0"/>
      <point x="821.2727272727273" y="75.9090909090909"/>
      <point x="821.2727272727273" y="183.1818181818182" type="curve" smooth="yes"/>
      <point x="821.2727272727273" y="289.0"/>
      <point x="754.7272727272727" y="365.8181818181818"/>
      <point x="660.7272727272727" y="365.8181818181818" type="curve" smooth="yes"/>
      <point x="560.8181818181819" y="365.8181818181818"/>
      <point x="498.8181818181818" y="286.27272727272725"/>
      <point x="498.8181818181818" y="183.1818181818182" type="curve" smooth="yes"/>
      <point x="498.8181818181818" y="77.72727272727273"/>
      <point x="560.8181818181819" y="0.0"/>
    </contour>
    <contour>
      <point x="223.54545454545453" y="0.0" type="curve" smooth="yes"/>
      <point x="315.72727272727275" y="0.0"/>
      <point x="385.45454545454544" y="75.9090909090909"/>
      <point x="385.45454545454544" y="183.1818181818182" type="curve" smooth="yes"/>
      <point x="385.45454545454544" y="289.0"/>
      <point x="318.90909090909093" y="365.8181818181818"/>
      <point x="224.9090909090909" y="365.8181818181818" type="curve" smooth="yes"/>
      <point x="125.0" y="365.8181818181818"/>
      <point x="63.09090909090909" y="286.27272727272725"/>
      <point x="63.09090909090909" y="183.1818181818182" type="curve" smooth="yes"/>
      <point x="63.09090909090909" y="77.72727272727273"/>
      <point x="125.0" y="0.0"/>
    </contour>
    <contour>
      <point x="442.8181818181818" y="408.3636363636364" type="curve" smooth="yes"/>
      <point x="535.0" y="408.3636363636364"/>
      <point x="604.7272727272727" y="483.27272727272725"/>
      <point x="604.7272727272727" y="591.0" type="curve" smooth="yes"/>
      <point x="604.7272727272727" y="697.3636363636364"/>
      <point x="538.1818181818181" y="773.6363636363636"/>
      <point x="444.1818181818182" y="773.6363636363636" type="curve" smooth="yes"/>
      <point x="344.27272727272725" y="773.6363636363636"/>
      <point x="282.27272727272725" y="694.6363636363636"/>
      <point x="282.27272727272725" y="591.0" type="curve" smooth="yes"/>
      <point x="282.27272727272725" y="485.54545454545456"/>
      <point x="344.27272727272725" y="408.3636363636364"/>
    </contour>
    <contour>
      <point x="214.0" y="38.54545454545455" type="curve" smooth="yes"/>
      <point x="143.63636363636363" y="38.54545454545455"/>
      <point x="101.54545454545455" y="99.27272727272727"/>
      <point x="101.54545454545455" y="183.1818181818182" type="curve" smooth="yes"/>
      <point x="101.54545454545455" y="265.6363636363636"/>
      <point x="144.54545454545453" y="327.72727272727275"/>
      <point x="215.36363636363637" y="327.72727272727275" type="curve" smooth="yes"/>
      <point x="289.8181818181818" y="327.72727272727275"/>
      <point x="331.72727272727275" y="270.8181818181818"/>
      <point x="331.72727272727275" y="183.1818181818182" type="curve" smooth="yes"/>
      <point x="331.72727272727275" y="92.63636363636364"/>
      <point x="286.6363636363636" y="38.54545454545455"/>
    </contour>
    <contour>
      <point x="433.27272727272725" y="446.3636363636364" type="curve" smooth="yes"/>
      <point x="363.3636363636364" y="446.3636363636364"/>
      <point x="320.8181818181818" y="507.09090909090907"/>
      <point x="320.8181818181818" y="591.0" type="curve" smooth="yes"/>
      <point x="320.8181818181818" y="673.4545454545455"/>
      <point x="363.8181818181818" y="735.5454545454545"/>
      <point x="435.09090909090907" y="735.5454545454545" type="curve" smooth="yes"/>
      <point x="509.09090909090907" y="735.5454545454545"/>
      <point x="550.4545454545455" y="679.1818181818181"/>
      <point x="550.4545454545455" y="591.0" type="curve" smooth="yes"/>
      <point x="550.4545454545455" y="501.0"/>
      <point x="505.90909090909093" y="446.3636363636364"/>
    </contour>
    <contour>
      <point x="649.8181818181819" y="38.54545454545455" type="curve" smooth="yes"/>
      <point x="579.9090909090909" y="38.54545454545455"/>
      <point x="537.3636363636364" y="99.27272727272727"/>
      <point x="537.3636363636364" y="183.1818181818182" type="curve" smooth="yes"/>
      <point x="537.3636363636364" y="265.6363636363636"/>
      <point x="580.3636363636364" y="327.72727272727275"/>
      <point x="651.6363636363636" y="327.72727272727275" type="curve" smooth="yes"/>
      <point x="725.6363636363636" y="327.72727272727275"/>
      <point x="767.5454545454545" y="270.8181818181818"/>
      <point x="767.5454545454545" y="183.1818181818182" type="curve" smooth="yes"/>
      <point x="767.5454545454545" y="92.63636363636364"/>
      <point x="722.4545454545455" y="38.54545454545455"/>
    </contour>
  </outline>
</glyph>
<glyph name="a-tamil" format="2">
  <advance width="1307.7272727272727"/>
  <unicode hex="0B85"/>
  <note>
uni0B85
</note>
  <anchor x="631.7272727272727" y="0.0" name="bottom"/>
  <anchor x="453.1818181818182" y="-109.72727272727273" name="nukta"/>
  <anchor x="639.5454545454545" y="548.5454545454545" name="top"/>
  <anchor x="639.5454545454545" y="548.5454545454545" name="vedic"/>
  <outline>
    <contour>
      <point x="1132.090909090909" y="-183.54545454545456" type="line"/>
      <point x="1197.090909090909" y="-183.54545454545456" type="line"/>
      <point x="1197.090909090909" y="548.5454545454545" type="line"/>
      <point x="1132.090909090909" y="548.5454545454545" type="line"/>
      <point x="1132.090909090909" y="165.54545454545453" type="line"/>
      <point x="119.81818181818181" y="165.54545454545453" type="line" smooth="yes"/>
      <point x="69.0" y="165.54545454545453"/>
      <point x="44.45454545454545" y="141.1818181818182"/>
      <point x="44.45454545454545" y="100.81818181818181" type="curve" smooth="yes"/>
      <point x="44.45454545454545" y="13.09090909090909"/>
      <point x="203.63636363636363" y="-109.72727272727273"/>
      <point x="453.1818181818182" y="-109.72727272727273" type="curve" smooth="yes"/>
      <point x="725.6363636363636" y="-109.72727272727273"/>
      <point x="950.0909090909091" y="9.272727272727273"/>
      <point x="950.0909090909091" y="254.54545454545453" type="curve" smooth="yes"/>
      <point x="950.0909090909091" y="448.8181818181818"/>
      <point x="810.6363636363636" y="555.3636363636364"/>
      <point x="639.5454545454545" y="555.3636363636364" type="curve" smooth="yes"/>
      <point x="509.09090909090907" y="555.3636363636364"/>
      <point x="416.6363636363636" y="484.1818181818182"/>
      <point x="416.6363636363636" y="389.09090909090907" type="curve" smooth="yes"/>
      <point x="416.6363636363636" y="312.0"/>
      <point x="474.6363636363636" y="255.63636363636363"/>
      <point x="560.8181818181819" y="255.63636363636363" type="curve" smooth="yes"/>
      <point x="642.3636363636364" y="255.63636363636363"/>
      <point x="703.3636363636364" y="304.6363636363636"/>
      <point x="703.3636363636364" y="383.3636363636364" type="curve" smooth="yes"/>
      <point x="703.3636363636364" y="453.8181818181818"/>
      <point x="645.6363636363636" y="510.27272727272725"/>
      <point x="591.1818181818181" y="526.2727272727273" type="curve"/>
      <point x="547.0909090909091" y="522.3636363636364" type="line"/>
      <point x="608.4545454545455" y="496.8181818181818"/>
      <point x="641.0" y="442.6363636363636"/>
      <point x="641.0" y="388.27272727272725" type="curve" smooth="yes"/>
      <point x="641.0" y="335.1818181818182"/>
      <point x="609.1818181818181" y="296.45454545454544"/>
      <point x="548.9090909090909" y="296.45454545454544" type="curve" smooth="yes"/>
      <point x="496.54545454545456" y="296.45454545454544"/>
      <point x="461.54545454545456" y="329.3636363636364"/>
      <point x="461.54545454545456" y="386.54545454545456" type="curve" smooth="yes"/>
      <point x="461.54545454545456" y="461.45454545454544"/>
      <point x="531.5454545454545" y="515.0"/>
      <point x="631.1818181818181" y="515.0" type="curve" smooth="yes"/>
      <point x="767.2727272727273" y="515.0"/>
      <point x="884.0909090909091" y="424.3636363636364"/>
      <point x="884.0909090909091" y="255.0" type="curve" smooth="yes"/>
      <point x="884.0909090909091" y="38.81818181818182"/>
      <point x="691.9090909090909" y="-68.45454545454545"/>
      <point x="450.0" y="-68.45454545454545" type="curve" smooth="yes"/>
      <point x="242.0" y="-68.45454545454545"/>
      <point x="88.45454545454545" y="31.272727272727273"/>
      <point x="88.45454545454545" y="98.72727272727272" type="curve" smooth="yes"/>
      <point x="88.45454545454545" y="113.81818181818181"/>
      <point x="97.72727272727273" y="125.63636363636364"/>
      <point x="123.81818181818181" y="125.63636363636364" type="curve" smooth="yes"/>
      <point x="1132.090909090909" y="125.63636363636364" type="line"/>
    </contour>
  </outline>
</glyph>
<glyph name="aa-tamil" format="2">
  <advance width="1442.5454545454545"/>
  <unicode hex="0B86"/>
  <note>
uni0B86
</note>
  <anchor x="704.7272727272727" y="0.0" name="bottom"/>
  <anchor x="453.1818181818182" y="-109.72727272727273" name="nukta"/>
  <anchor x="712.6363636363636" y="548.5454545454545" name="top"/>
  <anchor x="712.5454545454545" y="548.5454545454545" name="vedic"/>
  <outline>
    <contour>
      <point x="1026.1818181818182" y="-431.6363636363636" type="curve" smooth="yes"/>
      <point x="1213.909090909091" y="-431.6363636363636"/>
      <point x="1409.6363636363637" y="-310.8181818181818"/>
      <point x="1409.6363636363637" y="-114.81818181818181" type="curve" smooth="yes"/>
      <point x="1409.6363636363637" y="-28.18181818181818"/>
      <point x="1368.5454545454545" y="25.0"/>
      <point x="1296.8181818181818" y="25.0" type="curve" smooth="yes"/>
      <point x="1219.0" y="25.0"/>
      <point x="1173.7272727272727" y="-32.27272727272727"/>
      <point x="1166.7272727272727" y="-115.45454545454545" type="curve"/>
      <point x="1190.2727272727273" y="-126.54545454545455" type="line"/>
      <point x="1191.6363636363637" y="-66.9090909090909"/>
      <point x="1229.8181818181818" y="-31.454545454545453"/>
      <point x="1274.8181818181818" y="-31.454545454545453" type="curve" smooth="yes"/>
      <point x="1320.0" y="-31.454545454545453"/>
      <point x="1345.7272727272727" y="-60.63636363636364"/>
      <point x="1345.7272727272727" y="-120.0909090909091" type="curve" smooth="yes"/>
      <point x="1345.7272727272727" y="-284.27272727272725"/>
      <point x="1170.2727272727273" y="-389.90909090909093"/>
      <point x="1016.4545454545455" y="-389.90909090909093" type="curve" smooth="yes"/>
      <point x="925.2727272727273" y="-389.90909090909093"/>
      <point x="836.8181818181819" y="-359.72727272727275"/>
      <point x="836.8181818181819" y="-283.45454545454544" type="curve" smooth="yes"/>
      <point x="836.8181818181819" y="-236.9090909090909"/>
      <point x="867.3636363636364" y="-201.0"/>
      <point x="935.1818181818181" y="-189.8181818181818" type="curve"/>
      <point x="925.3636363636364" y="-149.0909090909091" type="line"/>
      <point x="833.2727272727273" y="-165.45454545454547"/>
      <point x="793.5454545454545" y="-216.1818181818182"/>
      <point x="793.5454545454545" y="-279.8181818181818" type="curve" smooth="yes"/>
      <point x="793.5454545454545" y="-381.72727272727275"/>
      <point x="898.4545454545455" y="-431.6363636363636"/>
    </contour>
    <component base="a-tamil"/>
  </outline>
</glyph>
<glyph name="i-tamil" format="2">
  <advance width="1000.7272727272727"/>
  <unicode hex="0B87"/>
  <note>
uni0B87
</note>
  <anchor x="490.1818181818182" y="0.0" name="bottom"/>
  <anchor x="488.1818181818182" y="-253.45454545454547" name="nukta"/>
  <anchor x="494.3636363636364" y="812.1818181818181" name="top"/>
  <anchor x="496.1818181818182" y="548.5454545454545" name="vedic"/>
  <outline>
    <contour>
      <point x="232.36363636363637" y="-288.3636363636364" type="curve" smooth="yes"/>
      <point x="518.2727272727273" y="-288.3636363636364"/>
      <point x="750.7272727272727" y="-18.81818181818182"/>
      <point x="750.7272727272727" y="251.72727272727272" type="curve" smooth="yes"/>
      <point x="750.7272727272727" y="439.54545454545456"/>
      <point x="652.1818181818181" y="555.3636363636364"/>
      <point x="486.1818181818182" y="555.3636363636364" type="curve" smooth="yes"/>
      <point x="361.27272727272725" y="555.3636363636364"/>
      <point x="272.45454545454544" y="485.8181818181818"/>
      <point x="272.45454545454544" y="387.45454545454544" type="curve" smooth="yes"/>
      <point x="272.45454545454544" y="308.1818181818182"/>
      <point x="334.27272727272725" y="256.1818181818182"/>
      <point x="410.09090909090907" y="256.1818181818182" type="curve" smooth="yes"/>
      <point x="493.27272727272725" y="256.1818181818182"/>
      <point x="546.9090909090909" y="305.72727272727275"/>
      <point x="546.9090909090909" y="381.72727272727275" type="curve" smooth="yes"/>
      <point x="546.9090909090909" y="445.09090909090907"/>
      <point x="504.90909090909093" y="502.6363636363636"/>
      <point x="430.3636363636364" y="525.1818181818181" type="curve"/>
      <point x="384.09090909090907" y="520.1818181818181" type="line"/>
      <point x="447.09090909090907" y="495.1818181818182"/>
      <point x="485.54545454545456" y="443.1818181818182"/>
      <point x="485.54545454545456" y="387.1818181818182" type="curve" smooth="yes"/>
      <point x="485.54545454545456" y="334.6363636363636"/>
      <point x="458.45454545454544" y="297.0"/>
      <point x="399.27272727272725" y="297.0" type="curve" smooth="yes"/>
      <point x="347.54545454545456" y="297.0"/>
      <point x="317.3636363636364" y="332.6363636363636"/>
      <point x="317.3636363636364" y="385.45454545454544" type="curve" smooth="yes"/>
      <point x="317.3636363636364" y="460.90909090909093"/>
      <point x="382.09090909090907" y="515.0"/>
      <point x="474.54545454545456" y="515.0" type="curve" smooth="yes"/>
      <point x="613.8181818181819" y="515.0"/>
      <point x="685.1818181818181" y="416.1818181818182"/>
      <point x="685.1818181818181" y="264.72727272727275" type="curve" smooth="yes"/>
      <point x="685.1818181818181" y="10.909090909090908"/>
      <point x="507.0" y="-247.0909090909091"/>
      <point x="243.9090909090909" y="-247.0909090909091" type="curve" smooth="yes"/>
      <point x="158.45454545454547" y="-247.0909090909091"/>
      <point x="106.0909090909091" y="-212.36363636363637"/>
      <point x="106.0909090909091" y="-145.27272727272728" type="curve" smooth="yes"/>
      <point x="106.0909090909091" y="-17.636363636363637"/>
      <point x="301.0" y="67.45454545454545"/>
      <point x="476.27272727272725" y="67.45454545454545" type="curve" smooth="yes"/>
      <point x="649.5454545454545" y="67.45454545454545"/>
      <point x="857.0" y="-8.636363636363637"/>
      <point x="857.0" y="-140.36363636363637" type="curve" smooth="yes"/>
      <point x="857.0" y="-215.9090909090909"/>
      <point x="793.5454545454545" y="-247.0909090909091"/>
      <point x="705.7272727272727" y="-247.0909090909091" type="curve" smooth="yes"/>
      <point x="463.8181818181818" y="-247.0909090909091"/>
      <point x="126.72727272727273" y="73.0"/>
      <point x="126.72727272727273" y="382.45454545454544" type="curve" smooth="yes"/>
      <point x="126.72727272727273" y="613.5454545454545"/>
      <point x="273.1818181818182" y="749.0"/>
      <point x="493.45454545454544" y="749.0" type="curve" smooth="yes"/>
      <point x="754.0909090909091" y="749.0"/>
      <point x="889.1818181818181" y="573.6363636363636"/>
      <point x="889.1818181818181" y="314.6363636363636" type="curve" smooth="yes"/>
      <point x="889.1818181818181" y="96.0" type="line"/>
      <point x="932.1818181818181" y="96.0" type="line"/>
      <point x="932.1818181818181" y="314.6363636363636" type="line" smooth="yes"/>
      <point x="932.1818181818181" y="633.0"/>
      <point x="780.0" y="812.1818181818181"/>
      <point x="494.3636363636364" y="812.1818181818181" type="curve" smooth="yes"/>
      <point x="235.9090909090909" y="812.1818181818181"/>
      <point x="75.81818181818181" y="631.1818181818181"/>
      <point x="75.81818181818181" y="403.27272727272725" type="curve" smooth="yes"/>
      <point x="75.81818181818181" y="60.27272727272727"/>
      <point x="438.0" y="-288.3636363636364"/>
      <point x="725.3636363636364" y="-288.3636363636364" type="curve" smooth="yes"/>
      <point x="829.4545454545455" y="-288.3636363636364"/>
      <point x="908.8181818181819" y="-243.54545454545453"/>
      <point x="908.8181818181819" y="-148.9090909090909" type="curve" smooth="yes"/>
      <point x="908.8181818181819" y="11.636363636363637"/>
      <point x="681.2727272727273" y="107.72727272727273"/>
      <point x="476.27272727272725" y="107.72727272727273" type="curve" smooth="yes"/>
      <point x="267.90909090909093" y="107.72727272727273"/>
      <point x="55.36363636363636" y="11.181818181818182"/>
      <point x="55.36363636363636" y="-145.27272727272728" type="curve" smooth="yes"/>
      <point x="55.36363636363636" y="-237.1818181818182"/>
      <point x="126.45454545454545" y="-288.3636363636364"/>
    </contour>
  </outline>
</glyph>
<glyph name="ii-tamil" format="2">
  <advance width="757.3636363636364"/>
  <unicode hex="0B88"/>
  <note>
uni0B88
</note>
  <anchor x="399.09090909090907" y="0.0" name="bottom"/>
  <anchor x="399.54545454545456" y="0.0" name="nukta"/>
  <anchor x="401.54545454545456" y="548.5454545454545" name="top"/>
  <anchor x="401.54545454545456" y="548.5454545454545" name="vedic"/>
  <outline>
    <contour>
      <point x="111.18181818181819" y="0.0" type="line"/>
      <point x="156.27272727272728" y="0.0" type="line"/>
      <point x="156.27272727272728" y="508.6363636363636" type="line"/>
      <point x="446.09090909090907" y="508.6363636363636" type="line"/>
      <point x="446.09090909090907" y="0.0" type="line"/>
      <point x="511.09090909090907" y="0.0" type="line"/>
      <point x="511.09090909090907" y="508.6363636363636" type="line"/>
      <point x="707.7272727272727" y="508.6363636363636" type="line"/>
      <point x="707.7272727272727" y="548.5454545454545" type="line"/>
      <point x="111.18181818181819" y="548.5454545454545" type="line"/>
    </contour>
    <contour>
      <point x="300.72727272727275" y="218.27272727272728" type="curve" smooth="yes"/>
      <point x="325.72727272727275" y="218.27272727272728"/>
      <point x="345.6363636363636" y="238.1818181818182"/>
      <point x="345.6363636363636" y="262.6363636363636" type="curve" smooth="yes"/>
      <point x="345.6363636363636" y="286.09090909090907"/>
      <point x="325.72727272727275" y="306.45454545454544"/>
      <point x="300.72727272727275" y="306.45454545454544" type="curve" smooth="yes"/>
      <point x="275.27272727272725" y="306.45454545454544"/>
      <point x="254.9090909090909" y="286.09090909090907"/>
      <point x="254.9090909090909" y="262.6363636363636" type="curve" smooth="yes"/>
      <point x="254.9090909090909" y="238.1818181818182"/>
      <point x="275.27272727272725" y="218.27272727272728"/>
    </contour>
    <contour>
      <point x="654.6363636363636" y="218.27272727272728" type="curve" smooth="yes"/>
      <point x="680.6363636363636" y="218.27272727272728"/>
      <point x="700.0" y="238.1818181818182"/>
      <point x="700.0" y="262.6363636363636" type="curve" smooth="yes"/>
      <point x="700.0" y="286.09090909090907"/>
      <point x="680.6363636363636" y="306.45454545454544"/>
      <point x="654.6363636363636" y="306.45454545454544" type="curve" smooth="yes"/>
      <point x="629.1818181818181" y="306.45454545454544"/>
      <point x="609.8181818181819" y="286.09090909090907"/>
      <point x="609.8181818181819" y="262.6363636363636" type="curve" smooth="yes"/>
      <point x="609.8181818181819" y="238.1818181818182"/>
      <point x="629.1818181818181" y="218.27272727272728"/>
    </contour>
  </outline>
</glyph>
<glyph name="u-tamil" format="2">
  <advance width="1041.6363636363637"/>
  <unicode hex="0B89"/>
  <note>
uni0B89
</note>
  <anchor x="548.2727272727273" y="0.0" name="bottom"/>
  <anchor x="548.2727272727273" y="0.0" name="nukta"/>
  <anchor x="550.2727272727273" y="548.5454545454545" name="top"/>
  <anchor x="551.2727272727273" y="548.5454545454545" name="vedic"/>
  <outline>
    <contour>
      <point x="156.27272727272728" y="0.0" type="curve" smooth="yes"/>
      <point x="1018.4545454545455" y="0.0" type="line"/>
      <point x="1018.4545454545455" y="39.90909090909091" type="line"/>
      <point x="151.0" y="39.90909090909091" type="line" smooth="yes"/>
      <point x="119.0909090909091" y="39.90909090909091"/>
      <point x="97.45454545454545" y="59.90909090909091"/>
      <point x="97.45454545454545" y="90.36363636363636" type="curve" smooth="yes"/>
      <point x="97.45454545454545" y="121.81818181818181"/>
      <point x="118.63636363636364" y="140.0"/>
      <point x="151.0" y="140.0" type="curve" smooth="yes"/>
      <point x="399.6363636363636" y="140.0" type="line" smooth="yes"/>
      <point x="543.9090909090909" y="140.0"/>
      <point x="650.5454545454545" y="205.0"/>
      <point x="650.5454545454545" y="337.3636363636364" type="curve" smooth="yes"/>
      <point x="650.5454545454545" y="476.45454545454544"/>
      <point x="536.7272727272727" y="555.3636363636364"/>
      <point x="374.45454545454544" y="555.3636363636364" type="curve" smooth="yes"/>
      <point x="238.54545454545453" y="555.3636363636364"/>
      <point x="147.1818181818182" y="483.6363636363636"/>
      <point x="147.1818181818182" y="389.09090909090907" type="curve" smooth="yes"/>
      <point x="147.1818181818182" y="312.0"/>
      <point x="205.63636363636363" y="255.63636363636363"/>
      <point x="290.8181818181818" y="255.63636363636363" type="curve" smooth="yes"/>
      <point x="372.3636363636364" y="255.63636363636363"/>
      <point x="433.3636363636364" y="304.6363636363636"/>
      <point x="433.3636363636364" y="383.3636363636364" type="curve" smooth="yes"/>
      <point x="433.3636363636364" y="453.8181818181818"/>
      <point x="376.09090909090907" y="510.27272727272725"/>
      <point x="321.1818181818182" y="526.2727272727273" type="curve"/>
      <point x="277.6363636363636" y="522.3636363636364" type="line"/>
      <point x="338.45454545454544" y="496.8181818181818"/>
      <point x="371.0" y="442.6363636363636"/>
      <point x="371.0" y="388.27272727272725" type="curve" smooth="yes"/>
      <point x="371.0" y="335.1818181818182"/>
      <point x="339.6363636363636" y="296.45454545454544"/>
      <point x="278.90909090909093" y="296.45454545454544" type="curve" smooth="yes"/>
      <point x="226.54545454545453" y="296.45454545454544"/>
      <point x="191.54545454545453" y="329.3636363636364"/>
      <point x="191.54545454545453" y="386.54545454545456" type="curve" smooth="yes"/>
      <point x="191.54545454545453" y="461.45454545454544"/>
      <point x="262.09090909090907" y="515.0"/>
      <point x="361.1818181818182" y="515.0" type="curve" smooth="yes"/>
      <point x="489.09090909090907" y="515.0"/>
      <point x="585.0909090909091" y="452.0"/>
      <point x="585.0909090909091" y="344.90909090909093" type="curve" smooth="yes"/>
      <point x="585.0909090909091" y="236.27272727272728"/>
      <point x="510.0" y="179.8181818181818"/>
      <point x="388.8181818181818" y="179.8181818181818" type="curve" smooth="yes"/>
      <point x="156.27272727272728" y="179.8181818181818" type="line" smooth="yes"/>
      <point x="92.27272727272727" y="179.8181818181818"/>
      <point x="53.54545454545455" y="146.72727272727272"/>
      <point x="53.54545454545455" y="90.36363636363636" type="curve" smooth="yes"/>
      <point x="53.54545454545455" y="35.0"/>
      <point x="92.27272727272727" y="0.0"/>
    </contour>
  </outline>
</glyph>
<glyph name="uu-tamil" format="2">
  <advance width="1697.8181818181818"/>
  <unicode hex="0B8A"/>
  <note>
uni0B8A
</note>
  <anchor x="884.1818181818181" y="0.0" name="bottom"/>
  <anchor x="885.1818181818181" y="0.0" name="nukta"/>
  <anchor x="887.7272727272727" y="548.5454545454545" name="top"/>
  <anchor x="887.1818181818181" y="548.5454545454545" name="vedic"/>
  <outline>
    <contour>
      <point x="156.27272727272728" y="0.0" type="curve" smooth="yes"/>
      <point x="1677.3636363636363" y="0.0" type="line"/>
      <point x="1677.3636363636363" y="39.90909090909091" type="line"/>
      <point x="151.0" y="39.90909090909091" type="line" smooth="yes"/>
      <point x="119.0909090909091" y="39.90909090909091"/>
      <point x="97.45454545454545" y="59.90909090909091"/>
      <point x="97.45454545454545" y="90.36363636363636" type="curve" smooth="yes"/>
      <point x="97.45454545454545" y="121.81818181818181"/>
      <point x="118.63636363636364" y="140.0"/>
      <point x="151.0" y="140.0" type="curve" smooth="yes"/>
      <point x="399.6363636363636" y="140.0" type="line" smooth="yes"/>
      <point x="543.9090909090909" y="140.0"/>
      <point x="650.5454545454545" y="205.0"/>
      <point x="650.5454545454545" y="337.3636363636364" type="curve" smooth="yes"/>
      <point x="650.5454545454545" y="476.45454545454544"/>
      <point x="536.7272727272727" y="555.3636363636364"/>
      <point x="374.45454545454544" y="555.3636363636364" type="curve" smooth="yes"/>
      <point x="238.54545454545453" y="555.3636363636364"/>
      <point x="147.1818181818182" y="483.6363636363636"/>
      <point x="147.1818181818182" y="389.09090909090907" type="curve" smooth="yes"/>
      <point x="147.1818181818182" y="312.0"/>
      <point x="205.63636363636363" y="255.63636363636363"/>
      <point x="290.8181818181818" y="255.63636363636363" type="curve" smooth="yes"/>
      <point x="372.3636363636364" y="255.63636363636363"/>
      <point x="433.3636363636364" y="304.6363636363636"/>
      <point x="433.3636363636364" y="383.3636363636364" type="curve" smooth="yes"/>
      <point x="433.3636363636364" y="453.8181818181818"/>
      <point x="376.09090909090907" y="510.27272727272725"/>
      <point x="321.1818181818182" y="526.2727272727273" type="curve"/>
      <point x="277.6363636363636" y="522.3636363636364" type="line"/>
      <point x="338.45454545454544" y="496.8181818181818"/>
      <point x="371.0" y="442.6363636363636"/>
      <point x="371.0" y="388.27272727272725" type="curve" smooth="yes"/>
      <point x="371.0" y="335.1818181818182"/>
      <point x="339.6363636363636" y="296.45454545454544"/>
      <point x="278.90909090909093" y="296.45454545454544" type="curve" smooth="yes"/>
      <point x="226.54545454545453" y="296.45454545454544"/>
      <point x="191.54545454545453" y="329.3636363636364"/>
      <point x="191.54545454545453" y="386.54545454545456" type="curve" smooth="yes"/>
      <point x="191.54545454545453" y="461.45454545454544"/>
      <point x="262.09090909090907" y="515.0"/>
      <point x="361.1818181818182" y="515.0" type="curve" smooth="yes"/>
      <point x="489.09090909090907" y="515.0"/>
      <point x="585.0909090909091" y="452.0"/>
      <point x="585.0909090909091" y="344.90909090909093" type="curve" smooth="yes"/>
      <point x="585.0909090909091" y="236.27272727272728"/>
      <point x="510.0" y="179.8181818181818"/>
      <point x="388.8181818181818" y="179.8181818181818" type="curve" smooth="yes"/>
      <point x="156.27272727272728" y="179.8181818181818" type="line" smooth="yes"/>
      <point x="92.27272727272727" y="179.8181818181818"/>
      <point x="53.54545454545455" y="146.72727272727272"/>
      <point x="53.54545454545455" y="90.36363636363636" type="curve" smooth="yes"/>
      <point x="53.54545454545455" y="35.0"/>
      <point x="92.27272727272727" y="0.0"/>
    </contour>
    <contour>
      <point x="931.8181818181819" y="103.45454545454545" type="curve" smooth="yes"/>
      <point x="1027.7272727272727" y="103.45454545454545"/>
      <point x="1086.0" y="162.72727272727272"/>
      <point x="1086.0" y="242.9090909090909" type="curve" smooth="yes"/>
      <point x="1086.0" y="329.0"/>
      <point x="1025.0" y="381.8181818181818"/>
      <point x="946.5454545454545" y="381.8181818181818" type="curve" smooth="yes"/>
      <point x="864.0909090909091" y="381.8181818181818"/>
      <point x="801.0" y="316.72727272727275"/>
      <point x="784.1818181818181" y="243.8181818181818" type="curve"/>
      <point x="797.7272727272727" y="209.0" type="line"/>
      <point x="815.3636363636364" y="272.90909090909093"/>
      <point x="864.5454545454545" y="336.09090909090907"/>
      <point x="931.2727272727273" y="336.09090909090907" type="curve" smooth="yes"/>
      <point x="986.0" y="336.09090909090907"/>
      <point x="1022.5454545454545" y="301.90909090909093"/>
      <point x="1022.5454545454545" y="242.72727272727272" type="curve" smooth="yes"/>
      <point x="1022.5454545454545" y="184.54545454545456"/>
      <point x="983.1818181818181" y="143.72727272727272"/>
      <point x="921.0909090909091" y="143.72727272727272" type="curve" smooth="yes"/>
      <point x="849.8181818181819" y="143.72727272727272"/>
      <point x="793.9090909090909" y="197.63636363636363"/>
      <point x="793.9090909090909" y="304.45454545454544" type="curve" smooth="yes"/>
      <point x="793.9090909090909" y="426.3636363636364"/>
      <point x="871.7272727272727" y="515.0"/>
      <point x="997.5454545454545" y="515.0" type="curve" smooth="yes"/>
      <point x="1117.1818181818182" y="515.0"/>
      <point x="1209.5454545454545" y="442.09090909090907"/>
      <point x="1209.5454545454545" y="313.72727272727275" type="curve"/>
      <point x="1242.4545454545455" y="314.1818181818182" type="line"/>
      <point x="1242.4545454545455" y="473.90909090909093"/>
      <point x="1136.2727272727273" y="555.3636363636364"/>
      <point x="996.4545454545455" y="555.3636363636364" type="curve" smooth="yes"/>
      <point x="844.1818181818181" y="555.3636363636364"/>
      <point x="749.0" y="446.90909090909093"/>
      <point x="749.0" y="304.27272727272725" type="curve" smooth="yes"/>
      <point x="749.0" y="180.54545454545453"/>
      <point x="828.9090909090909" y="103.45454545454545"/>
    </contour>
    <contour>
      <point x="1209.5454545454545" y="107.0" type="line"/>
      <point x="1274.090909090909" y="107.0" type="line"/>
      <point x="1274.090909090909" y="509.72727272727275" type="line"/>
      <point x="1485.8181818181818" y="509.72727272727275" type="line"/>
      <point x="1485.8181818181818" y="107.0" type="line"/>
      <point x="1550.3636363636363" y="107.0" type="line"/>
      <point x="1550.3636363636363" y="509.72727272727275" type="line"/>
      <point x="1677.3636363636363" y="509.72727272727275" type="line"/>
      <point x="1677.3636363636363" y="548.5454545454545" type="line"/>
      <point x="1212.2727272727273" y="548.5454545454545" type="line"/>
      <point x="1212.2727272727273" y="395.8181818181818" type="line"/>
      <point x="1209.5454545454545" y="384.09090909090907" type="line"/>
    </contour>
  </outline>
</glyph>
<glyph name="e-tamil" format="2">
  <advance width="896.6363636363636"/>
  <unicode hex="0B8E"/>
  <note>
uni0B8E
</note>
  <anchor x="478.6363636363636" y="0.0" name="bottom"/>
  <anchor x="479.6363636363636" y="0.0" name="nukta"/>
  <anchor x="480.54545454545456" y="548.5454545454545" name="top"/>
  <anchor x="481.6363636363636" y="548.5454545454545" name="vedic"/>
  <outline>
    <contour>
      <point x="266.1818181818182" y="-4.545454545454546" type="curve" smooth="yes"/>
      <point x="366.54545454545456" y="-4.545454545454546"/>
      <point x="434.90909090909093" y="55.36363636363637"/>
      <point x="434.90909090909093" y="148.1818181818182" type="curve" smooth="yes"/>
      <point x="434.90909090909093" y="237.9090909090909"/>
      <point x="374.1818181818182" y="293.90909090909093"/>
      <point x="289.27272727272725" y="293.90909090909093" type="curve" smooth="yes"/>
      <point x="191.72727272727272" y="293.90909090909093"/>
      <point x="122.9090909090909" y="219.45454545454547"/>
      <point x="108.18181818181819" y="127.54545454545455" type="curve"/>
      <point x="130.0" y="101.45454545454545" type="line"/>
      <point x="146.0" y="185.8181818181818"/>
      <point x="193.1818181818182" y="246.0"/>
      <point x="266.3636363636364" y="246.0" type="curve" smooth="yes"/>
      <point x="334.72727272727275" y="246.0"/>
      <point x="371.45454545454544" y="201.36363636363637"/>
      <point x="371.45454545454544" y="144.1818181818182" type="curve" smooth="yes"/>
      <point x="371.45454545454544" y="77.81818181818181"/>
      <point x="324.72727272727275" y="36.27272727272727"/>
      <point x="255.0909090909091" y="36.27272727272727" type="curve" smooth="yes"/>
      <point x="170.63636363636363" y="36.27272727272727"/>
      <point x="106.54545454545455" y="111.81818181818181"/>
      <point x="106.54545454545455" y="239.9090909090909" type="curve" smooth="yes"/>
      <point x="106.54545454545455" y="405.8181818181818"/>
      <point x="227.72727272727272" y="508.6363636363636"/>
      <point x="411.1818181818182" y="508.6363636363636" type="curve" smooth="yes"/>
      <point x="635.2727272727273" y="508.6363636363636" type="line"/>
      <point x="635.2727272727273" y="0.0" type="line"/>
      <point x="700.2727272727273" y="0.0" type="line"/>
      <point x="700.2727272727273" y="508.6363636363636" type="line"/>
      <point x="874.0" y="508.6363636363636" type="line"/>
      <point x="874.0" y="548.5454545454545" type="line"/>
      <point x="413.1818181818182" y="548.5454545454545" type="line" smooth="yes"/>
      <point x="201.54545454545456" y="548.5454545454545"/>
      <point x="62.18181818181818" y="432.09090909090907"/>
      <point x="62.18181818181818" y="240.9090909090909" type="curve" smooth="yes"/>
      <point x="62.18181818181818" y="88.45454545454545"/>
      <point x="150.1818181818182" y="-4.545454545454546"/>
    </contour>
  </outline>
</glyph>
<glyph name="ee-tamil" format="2">
  <advance width="896.6363636363636"/>
  <unicode hex="0B8F"/>
  <note>
uni0B8F
</note>
  <anchor x="478.6363636363636" y="0.0" name="bottom"/>
  <anchor x="479.6363636363636" y="-195.0" name="nukta"/>
  <anchor x="481.1818181818182" y="548.5454545454545" name="top"/>
  <anchor x="481.6363636363636" y="548.5454545454545" name="vedic"/>
  <outline>
    <contour>
      <point x="482.3636363636364" y="-225.45454545454547" type="line"/>
      <point x="700.2727272727273" y="6.272727272727273" type="line"/>
      <point x="700.2727272727273" y="508.6363636363636" type="line"/>
      <point x="874.0" y="508.6363636363636" type="line"/>
      <point x="874.0" y="548.5454545454545" type="line"/>
      <point x="410.45454545454544" y="548.5454545454545" type="line" smooth="yes"/>
      <point x="198.8181818181818" y="548.5454545454545"/>
      <point x="62.18181818181818" y="432.09090909090907"/>
      <point x="62.18181818181818" y="240.9090909090909" type="curve" smooth="yes"/>
      <point x="62.18181818181818" y="88.45454545454545"/>
      <point x="150.1818181818182" y="-4.0"/>
      <point x="266.1818181818182" y="-4.0" type="curve" smooth="yes"/>
      <point x="366.54545454545456" y="-4.0"/>
      <point x="434.90909090909093" y="55.90909090909091"/>
      <point x="434.90909090909093" y="148.1818181818182" type="curve" smooth="yes"/>
      <point x="434.90909090909093" y="237.9090909090909"/>
      <point x="374.1818181818182" y="294.45454545454544"/>
      <point x="289.27272727272725" y="294.45454545454544" type="curve" smooth="yes"/>
      <point x="191.72727272727272" y="294.45454545454544"/>
      <point x="122.9090909090909" y="219.45454545454547"/>
      <point x="108.18181818181819" y="128.0909090909091" type="curve"/>
      <point x="130.0" y="102.0" type="line"/>
      <point x="146.0" y="186.36363636363637"/>
      <point x="193.1818181818182" y="246.0"/>
      <point x="266.3636363636364" y="246.0" type="curve" smooth="yes"/>
      <point x="334.72727272727275" y="246.0"/>
      <point x="371.45454545454544" y="201.9090909090909"/>
      <point x="371.45454545454544" y="144.1818181818182" type="curve" smooth="yes"/>
      <point x="371.45454545454544" y="78.36363636363636"/>
      <point x="324.72727272727275" y="36.27272727272727"/>
      <point x="255.0909090909091" y="36.27272727272727" type="curve" smooth="yes"/>
      <point x="170.63636363636363" y="36.27272727272727"/>
      <point x="106.54545454545455" y="111.81818181818181"/>
      <point x="106.54545454545455" y="239.9090909090909" type="curve" smooth="yes"/>
      <point x="106.54545454545455" y="405.8181818181818"/>
      <point x="227.72727272727272" y="508.6363636363636"/>
      <point x="411.1818181818182" y="508.6363636363636" type="curve" smooth="yes"/>
      <point x="635.2727272727273" y="508.6363636363636" type="line"/>
      <point x="635.2727272727273" y="1.1818181818181817" type="line"/>
      <point x="450.8181818181818" y="-194.45454545454547" type="line"/>
    </contour>
  </outline>
</glyph>
<glyph name="ai-tamil" format="2">
  <advance width="975.8181818181819"/>
  <unicode hex="0B90"/>
  <note>
uni0B90
</note>
  <anchor x="501.09090909090907" y="0.0" name="bottom"/>
  <anchor x="496.1818181818182" y="-287.8181818181818" name="nukta"/>
  <anchor x="505.8181818181818" y="548.5454545454545" name="top"/>
  <anchor x="505.72727272727275" y="548.5454545454545" name="vedic"/>
  <outline>
    <contour>
      <point x="292.72727272727275" y="-287.8181818181818" type="curve" smooth="yes"/>
      <point x="405.27272727272725" y="-287.8181818181818"/>
      <point x="477.1818181818182" y="-238.63636363636363"/>
      <point x="507.54545454545456" y="-168.45454545454547" type="curve"/>
      <point x="535.5454545454545" y="-236.36363636363637"/>
      <point x="606.3636363636364" y="-287.8181818181818"/>
      <point x="698.7272727272727" y="-287.8181818181818" type="curve" smooth="yes"/>
      <point x="818.4545454545455" y="-287.8181818181818"/>
      <point x="914.1818181818181" y="-226.54545454545453"/>
      <point x="914.1818181818181" y="-96.36363636363636" type="curve" smooth="yes"/>
      <point x="914.1818181818181" y="-31.454545454545453"/>
      <point x="886.0" y="23.90909090909091"/>
      <point x="835.5454545454545" y="79.36363636363636" type="curve"/>
      <point x="804.1818181818181" y="53.18181818181818" type="line"/>
      <point x="844.8181818181819" y="10.545454545454545"/>
      <point x="869.2727272727273" y="-41.54545454545455"/>
      <point x="869.2727272727273" y="-92.54545454545455" type="curve" smooth="yes"/>
      <point x="869.2727272727273" y="-196.36363636363637"/>
      <point x="796.0909090909091" y="-243.63636363636363"/>
      <point x="699.6363636363636" y="-243.63636363636363" type="curve" smooth="yes"/>
      <point x="599.8181818181819" y="-243.63636363636363"/>
      <point x="541.6363636363636" y="-174.1818181818182"/>
      <point x="541.6363636363636" y="-73.0909090909091" type="curve" smooth="yes"/>
      <point x="541.6363636363636" y="-26.0" type="line"/>
      <point x="479.0" y="-26.0" type="line"/>
      <point x="479.0" y="-88.45454545454545" type="line" smooth="yes"/>
      <point x="479.0" y="-177.54545454545453"/>
      <point x="413.54545454545456" y="-246.9090909090909"/>
      <point x="297.27272727272725" y="-246.9090909090909" type="curve" smooth="yes"/>
      <point x="194.8181818181818" y="-246.9090909090909"/>
      <point x="133.0909090909091" y="-197.9090909090909"/>
      <point x="133.0909090909091" y="-109.27272727272728" type="curve" smooth="yes"/>
      <point x="133.0909090909091" y="27.454545454545453"/>
      <point x="254.27272727272728" y="64.0"/>
      <point x="518.5454545454545" y="82.36363636363636" type="curve" smooth="yes"/>
      <point x="739.7272727272727" y="97.9090909090909"/>
      <point x="911.4545454545455" y="150.1818181818182"/>
      <point x="911.4545454545455" y="345.45454545454544" type="curve" smooth="yes"/>
      <point x="911.4545454545455" y="487.72727272727275"/>
      <point x="819.3636363636364" y="555.3636363636364"/>
      <point x="706.1818181818181" y="555.3636363636364" type="curve" smooth="yes"/>
      <point x="608.8181818181819" y="555.3636363636364"/>
      <point x="541.4545454545455" y="505.1818181818182"/>
      <point x="511.8181818181818" y="432.1818181818182" type="curve"/>
      <point x="478.09090909090907" y="506.6363636363636"/>
      <point x="406.0" y="555.3636363636364"/>
      <point x="305.3636363636364" y="555.3636363636364" type="curve" smooth="yes"/>
      <point x="161.54545454545453" y="555.3636363636364"/>
      <point x="64.36363636363636" y="467.8181818181818"/>
      <point x="64.36363636363636" y="349.90909090909093" type="curve" smooth="yes"/>
      <point x="64.36363636363636" y="238.45454545454547"/>
      <point x="127.0909090909091" y="159.63636363636363"/>
      <point x="226.1818181818182" y="159.63636363636363" type="curve" smooth="yes"/>
      <point x="307.09090909090907" y="159.63636363636363"/>
      <point x="365.8181818181818" y="206.36363636363637"/>
      <point x="365.8181818181818" y="280.54545454545456" type="curve" smooth="yes"/>
      <point x="365.8181818181818" y="356.45454545454544"/>
      <point x="314.45454545454544" y="405.6363636363636"/>
      <point x="243.36363636363637" y="405.6363636363636" type="curve" smooth="yes"/>
      <point x="177.27272727272728" y="405.6363636363636"/>
      <point x="112.72727272727273" y="359.3636363636364"/>
      <point x="98.54545454545455" y="264.72727272727275" type="curve"/>
      <point x="121.0" y="234.45454545454547" type="line"/>
      <point x="135.9090909090909" y="321.09090909090907"/>
      <point x="175.9090909090909" y="362.0"/>
      <point x="226.27272727272728" y="362.0" type="curve" smooth="yes"/>
      <point x="272.72727272727275" y="362.0"/>
      <point x="302.3636363636364" y="329.45454545454544"/>
      <point x="302.3636363636364" y="280.8181818181818" type="curve" smooth="yes"/>
      <point x="302.3636363636364" y="231.54545454545453"/>
      <point x="269.6363636363636" y="200.9090909090909"/>
      <point x="220.0" y="200.9090909090909" type="curve" smooth="yes"/>
      <point x="158.0909090909091" y="200.9090909090909"/>
      <point x="109.27272727272728" y="245.27272727272728"/>
      <point x="109.27272727272728" y="345.3636363636364" type="curve" smooth="yes"/>
      <point x="109.27272727272728" y="445.27272727272725"/>
      <point x="188.1818181818182" y="514.5454545454545"/>
      <point x="292.1818181818182" y="514.5454545454545" type="curve" smooth="yes"/>
      <point x="405.27272727272725" y="514.5454545454545"/>
      <point x="479.0" y="447.72727272727275"/>
      <point x="479.0" y="336.8181818181818" type="curve" smooth="yes"/>
      <point x="479.0" y="211.8181818181818" type="line"/>
      <point x="541.6363636363636" y="211.8181818181818" type="line"/>
      <point x="541.6363636363636" y="358.72727272727275" type="line" smooth="yes"/>
      <point x="541.6363636363636" y="438.09090909090907"/>
      <point x="598.5454545454545" y="515.0"/>
      <point x="697.7272727272727" y="515.0" type="curve" smooth="yes"/>
      <point x="797.9090909090909" y="515.0"/>
      <point x="845.5454545454545" y="446.3636363636364"/>
      <point x="845.5454545454545" y="352.27272727272725" type="curve" smooth="yes"/>
      <point x="845.5454545454545" y="189.54545454545453"/>
      <point x="738.8181818181819" y="132.36363636363637"/>
      <point x="474.09090909090907" y="114.81818181818181" type="curve" smooth="yes"/>
      <point x="201.63636363636363" y="96.9090909090909"/>
      <point x="67.63636363636364" y="50.18181818181818"/>
      <point x="67.63636363636364" y="-101.36363636363636" type="curve" smooth="yes"/>
      <point x="67.63636363636364" y="-220.0"/>
      <point x="157.0909090909091" y="-287.8181818181818"/>
    </contour>
  </outline>
</glyph>
<glyph name="o-tamil" format="2">
  <advance width="994.7272727272727"/>
  <unicode hex="0B92"/>
  <note>
uni0B92
</note>
  <anchor x="503.45454545454544" y="0.0" name="bottom"/>
  <anchor x="501.45454545454544" y="-335.0" name="nukta"/>
  <anchor x="496.45454545454544" y="548.5454545454545" name="top"/>
  <anchor x="496.45454545454544" y="548.5454545454545" name="vedic"/>
  <outline>
    <contour>
      <point x="372.54545454545456" y="-325.72727272727275" type="curve" smooth="yes"/>
      <point x="562.7272727272727" y="-325.72727272727275"/>
      <point x="582.4545454545455" y="-139.63636363636363"/>
      <point x="762.4545454545455" y="-139.63636363636363" type="curve" smooth="yes"/>
      <point x="789.5454545454545" y="-139.63636363636363" type="line"/>
      <point x="789.5454545454545" y="-99.81818181818181" type="line"/>
      <point x="757.4545454545455" y="-99.81818181818181" type="line" smooth="yes"/>
      <point x="602.6363636363636" y="-99.81818181818181"/>
      <point x="477.27272727272725" y="60.72727272727273"/>
      <point x="616.0909090909091" y="220.72727272727272" type="curve"/>
      <point x="621.5454545454545" y="216.72727272727272" type="line"/>
      <point x="577.8181818181819" y="132.72727272727272"/>
      <point x="610.5454545454545" y="-5.0"/>
      <point x="748.0909090909091" y="-5.0" type="curve" smooth="yes"/>
      <point x="850.6363636363636" y="-5.0"/>
      <point x="933.0909090909091" y="73.0909090909091"/>
      <point x="933.0909090909091" y="201.9090909090909" type="curve" smooth="yes"/>
      <point x="933.0909090909091" y="418.0"/>
      <point x="722.9090909090909" y="555.3636363636364"/>
      <point x="480.8181818181818" y="555.3636363636364" type="curve" smooth="yes"/>
      <point x="245.9090909090909" y="555.3636363636364"/>
      <point x="62.18181818181818" y="429.0"/>
      <point x="62.18181818181818" y="227.9090909090909" type="curve" smooth="yes"/>
      <point x="62.18181818181818" y="85.81818181818181"/>
      <point x="156.72727272727272" y="-4.545454545454546"/>
      <point x="269.3636363636364" y="-4.545454545454546" type="curve" smooth="yes"/>
      <point x="370.1818181818182" y="-4.545454545454546"/>
      <point x="438.09090909090907" y="56.81818181818182"/>
      <point x="438.09090909090907" y="149.0909090909091" type="curve" smooth="yes"/>
      <point x="438.09090909090907" y="238.36363636363637"/>
      <point x="377.3636363636364" y="294.45454545454544"/>
      <point x="292.90909090909093" y="294.45454545454544" type="curve" smooth="yes"/>
      <point x="194.9090909090909" y="294.45454545454544"/>
      <point x="123.81818181818181" y="220.36363636363637"/>
      <point x="109.0909090909091" y="128.54545454545453" type="curve"/>
      <point x="130.9090909090909" y="102.45454545454545" type="line"/>
      <point x="146.9090909090909" y="187.27272727272728"/>
      <point x="196.8181818181818" y="246.0"/>
      <point x="270.0" y="246.0" type="curve" smooth="yes"/>
      <point x="337.90909090909093" y="246.0"/>
      <point x="374.6363636363636" y="202.8181818181818"/>
      <point x="374.6363636363636" y="145.0909090909091" type="curve" smooth="yes"/>
      <point x="374.6363636363636" y="79.27272727272728"/>
      <point x="328.8181818181818" y="36.27272727272727"/>
      <point x="259.1818181818182" y="36.27272727272727" type="curve" smooth="yes"/>
      <point x="177.54545454545453" y="36.27272727272727"/>
      <point x="106.54545454545455" y="107.45454545454545"/>
      <point x="106.54545454545455" y="225.9090909090909" type="curve" smooth="yes"/>
      <point x="106.54545454545455" y="403.3636363636364"/>
      <point x="275.0" y="515.0"/>
      <point x="480.09090909090907" y="515.0" type="curve" smooth="yes"/>
      <point x="689.5454545454545" y="515.0"/>
      <point x="867.6363636363636" y="399.45454545454544"/>
      <point x="867.6363636363636" y="209.63636363636363" type="curve" smooth="yes"/>
      <point x="867.6363636363636" y="103.18181818181819"/>
      <point x="816.4545454545455" y="36.27272727272727"/>
      <point x="739.1818181818181" y="36.27272727272727" type="curve" smooth="yes"/>
      <point x="634.9090909090909" y="36.27272727272727"/>
      <point x="614.3636363636364" y="164.45454545454547"/>
      <point x="682.0909090909091" y="258.1818181818182" type="curve"/>
      <point x="636.5454545454545" y="293.54545454545456" type="line"/>
      <point x="440.54545454545456" y="129.8181818181818"/>
      <point x="516.6363636363636" y="-68.27272727272728"/>
      <point x="658.4545454545455" y="-117.72727272727273" type="curve"/>
      <point x="658.4545454545455" y="-122.27272727272727" type="line"/>
      <point x="514.0" y="-137.63636363636363"/>
      <point x="498.09090909090907" y="-277.0"/>
      <point x="357.45454545454544" y="-277.0" type="curve" smooth="yes"/>
      <point x="296.09090909090907" y="-277.0"/>
      <point x="258.0" y="-237.36363636363637"/>
      <point x="258.0" y="-185.8181818181818" type="curve" smooth="yes"/>
      <point x="258.0" y="-143.1818181818182"/>
      <point x="275.09090909090907" y="-116.72727272727273"/>
      <point x="316.8181818181818" y="-87.27272727272728" type="curve"/>
      <point x="288.72727272727275" y="-55.36363636363637" type="line"/>
      <point x="235.27272727272728" y="-94.0909090909091"/>
      <point x="213.54545454545453" y="-129.9090909090909"/>
      <point x="213.54545454545453" y="-184.8181818181818" type="curve" smooth="yes"/>
      <point x="213.54545454545453" y="-264.72727272727275"/>
      <point x="277.3636363636364" y="-325.72727272727275"/>
    </contour>
  </outline>
</glyph>
<glyph name="oo-tamil" format="2">
  <advance width="994.7272727272727"/>
  <unicode hex="0B93"/>
  <note>
uni0B93
</note>
  <anchor x="488.8181818181818" y="0.0" name="bottom"/>
  <anchor x="486.8181818181818" y="-306.3636363636364" name="nukta"/>
  <anchor x="481.8181818181818" y="548.5454545454545" name="top"/>
  <anchor x="481.8181818181818" y="548.5454545454545" name="vedic"/>
  <outline>
    <contour>
      <point x="356.0" y="-333.45454545454544" type="curve" smooth="yes"/>
      <point x="555.9090909090909" y="-333.45454545454544"/>
      <point x="572.3636363636364" y="-139.63636363636363"/>
      <point x="745.1818181818181" y="-139.63636363636363" type="curve" smooth="yes"/>
      <point x="772.9090909090909" y="-139.63636363636363" type="line"/>
      <point x="772.9090909090909" y="-99.81818181818181" type="line"/>
      <point x="745.7272727272727" y="-99.81818181818181" type="line" smooth="yes"/>
      <point x="595.4545454545455" y="-99.81818181818181"/>
      <point x="479.54545454545456" y="60.72727272727273"/>
      <point x="616.0909090909091" y="220.72727272727272" type="curve"/>
      <point x="621.5454545454545" y="216.72727272727272" type="line"/>
      <point x="577.8181818181819" y="132.72727272727272"/>
      <point x="610.5454545454545" y="-5.0"/>
      <point x="748.0909090909091" y="-5.0" type="curve" smooth="yes"/>
      <point x="850.6363636363636" y="-5.0"/>
      <point x="933.0909090909091" y="73.0909090909091"/>
      <point x="933.0909090909091" y="201.9090909090909" type="curve" smooth="yes"/>
      <point x="933.0909090909091" y="418.0"/>
      <point x="722.9090909090909" y="555.3636363636364"/>
      <point x="480.8181818181818" y="555.3636363636364" type="curve" smooth="yes"/>
      <point x="245.9090909090909" y="555.3636363636364"/>
      <point x="62.18181818181818" y="429.0"/>
      <point x="62.18181818181818" y="227.9090909090909" type="curve" smooth="yes"/>
      <point x="62.18181818181818" y="85.81818181818181"/>
      <point x="156.72727272727272" y="-4.545454545454546"/>
      <point x="269.3636363636364" y="-4.545454545454546" type="curve" smooth="yes"/>
      <point x="370.1818181818182" y="-4.545454545454546"/>
      <point x="438.09090909090907" y="56.81818181818182"/>
      <point x="438.09090909090907" y="149.0909090909091" type="curve" smooth="yes"/>
      <point x="438.09090909090907" y="238.36363636363637"/>
      <point x="377.3636363636364" y="294.45454545454544"/>
      <point x="292.90909090909093" y="294.45454545454544" type="curve" smooth="yes"/>
      <point x="194.9090909090909" y="294.45454545454544"/>
      <point x="123.81818181818181" y="220.36363636363637"/>
      <point x="109.0909090909091" y="128.54545454545453" type="curve"/>
      <point x="130.9090909090909" y="102.45454545454545" type="line"/>
      <point x="146.9090909090909" y="187.27272727272728"/>
      <point x="196.8181818181818" y="246.0"/>
      <point x="270.0" y="246.0" type="curve" smooth="yes"/>
      <point x="337.90909090909093" y="246.0"/>
      <point x="374.6363636363636" y="202.8181818181818"/>
      <point x="374.6363636363636" y="145.0909090909091" type="curve" smooth="yes"/>
      <point x="374.6363636363636" y="79.27272727272728"/>
      <point x="328.8181818181818" y="36.27272727272727"/>
      <point x="259.1818181818182" y="36.27272727272727" type="curve" smooth="yes"/>
      <point x="177.54545454545453" y="36.27272727272727"/>
      <point x="106.54545454545455" y="107.45454545454545"/>
      <point x="106.54545454545455" y="225.9090909090909" type="curve" smooth="yes"/>
      <point x="106.54545454545455" y="403.3636363636364"/>
      <point x="275.0" y="515.0"/>
      <point x="480.09090909090907" y="515.0" type="curve" smooth="yes"/>
      <point x="689.5454545454545" y="515.0"/>
      <point x="867.6363636363636" y="399.45454545454544"/>
      <point x="867.6363636363636" y="209.63636363636363" type="curve" smooth="yes"/>
      <point x="867.6363636363636" y="103.18181818181819"/>
      <point x="816.4545454545455" y="36.27272727272727"/>
      <point x="739.1818181818181" y="36.27272727272727" type="curve" smooth="yes"/>
      <point x="634.9090909090909" y="36.27272727272727"/>
      <point x="614.3636363636364" y="164.45454545454547"/>
      <point x="682.0909090909091" y="258.1818181818182" type="curve"/>
      <point x="636.5454545454545" y="293.54545454545456" type="line"/>
      <point x="443.72727272727275" y="131.1818181818182"/>
      <point x="508.90909090909093" y="-66.9090909090909"/>
      <point x="646.6363636363636" y="-117.72727272727273" type="curve"/>
      <point x="646.6363636363636" y="-122.27272727272727" type="line"/>
      <point x="502.27272727272725" y="-140.36363636363637"/>
      <point x="491.3636363636364" y="-285.1818181818182"/>
      <point x="339.8181818181818" y="-285.1818181818182" type="curve" smooth="yes"/>
      <point x="274.54545454545456" y="-285.1818181818182"/>
      <point x="239.8181818181818" y="-248.1818181818182"/>
      <point x="239.8181818181818" y="-199.54545454545453" type="curve" smooth="yes"/>
      <point x="239.8181818181818" y="-150.63636363636363"/>
      <point x="277.8181818181818" y="-122.18181818181819"/>
      <point x="321.6363636363636" y="-122.18181818181819" type="curve" smooth="yes"/>
      <point x="356.72727272727275" y="-122.18181818181819"/>
      <point x="388.09090909090907" y="-139.63636363636363"/>
      <point x="399.1818181818182" y="-168.1818181818182" type="curve"/>
      <point x="419.8181818181818" y="-158.0"/>
      <point x="434.90909090909093" y="-137.63636363636363"/>
      <point x="434.90909090909093" y="-116.81818181818181" type="curve" smooth="yes"/>
      <point x="434.90909090909093" y="-79.9090909090909"/>
      <point x="395.54545454545456" y="-59.72727272727273"/>
      <point x="349.6363636363636" y="-59.72727272727273" type="curve" smooth="yes"/>
      <point x="270.09090909090907" y="-59.72727272727273"/>
      <point x="195.36363636363637" y="-112.9090909090909"/>
      <point x="195.36363636363637" y="-196.9090909090909" type="curve" smooth="yes"/>
      <point x="195.36363636363637" y="-279.54545454545456"/>
      <point x="263.27272727272725" y="-333.45454545454544"/>
    </contour>
  </outline>
</glyph>
<glyph name="au-tamil" format="2">
  <advance width="2217.0"/>
  <unicode hex="0B94"/>
  <note>
uni0B94
</note>
  <anchor x="1119.4545454545455" y="0.0" name="bottom"/>
  <anchor x="1193.1818181818182" y="0.0" name="nukta"/>
  <anchor x="1112.4545454545455" y="548.5454545454545" name="top"/>
  <anchor x="1112.4545454545455" y="548.5454545454545" name="vedic"/>
  <outline>
    <contour>
      <point x="1248.5454545454545" y="-4.0" type="curve" smooth="yes"/>
      <point x="1348.3636363636363" y="-4.0"/>
      <point x="1416.3636363636363" y="56.81818181818182"/>
      <point x="1416.3636363636363" y="149.0909090909091" type="curve" smooth="yes"/>
      <point x="1416.3636363636363" y="238.36363636363637"/>
      <point x="1355.090909090909" y="294.45454545454544"/>
      <point x="1270.6363636363637" y="294.45454545454544" type="curve" smooth="yes"/>
      <point x="1174.5454545454545" y="294.45454545454544"/>
      <point x="1104.3636363636363" y="220.8181818181818"/>
      <point x="1089.6363636363637" y="128.54545454545453" type="curve"/>
      <point x="1111.909090909091" y="102.0" type="line"/>
      <point x="1127.4545454545455" y="186.8181818181818"/>
      <point x="1174.6363636363637" y="246.0"/>
      <point x="1247.2727272727273" y="246.0" type="curve" smooth="yes"/>
      <point x="1316.1818181818182" y="246.0"/>
      <point x="1352.909090909091" y="202.8181818181818"/>
      <point x="1352.909090909091" y="145.0909090909091" type="curve" smooth="yes"/>
      <point x="1352.909090909091" y="79.27272727272728"/>
      <point x="1307.090909090909" y="36.27272727272727"/>
      <point x="1237.4545454545455" y="36.27272727272727" type="curve" smooth="yes"/>
      <point x="1153.3636363636363" y="36.27272727272727"/>
      <point x="1088.0" y="110.0"/>
      <point x="1088.0" y="237.63636363636363" type="curve" smooth="yes"/>
      <point x="1088.0" y="407.27272727272725"/>
      <point x="1198.3636363636363" y="515.0"/>
      <point x="1359.4545454545455" y="515.0" type="curve" smooth="yes"/>
      <point x="1511.0" y="515.0"/>
      <point x="1621.8181818181818" y="438.6363636363636"/>
      <point x="1621.8181818181818" y="271.72727272727275" type="curve"/>
      <point x="1662.2727272727273" y="274.3636363636364" type="line"/>
      <point x="1659.5454545454545" y="466.3636363636364"/>
      <point x="1533.0" y="555.3636363636364"/>
      <point x="1359.4545454545455" y="555.3636363636364" type="curve" smooth="yes"/>
      <point x="1173.7272727272727" y="555.3636363636364"/>
      <point x="1043.090909090909" y="433.09090909090907"/>
      <point x="1043.090909090909" y="239.0909090909091" type="curve" smooth="yes"/>
      <point x="1043.090909090909" y="86.18181818181819"/>
      <point x="1132.5454545454545" y="-4.0"/>
    </contour>
    <contour>
      <point x="1621.8181818181818" y="0.0" type="line"/>
      <point x="1685.8181818181818" y="0.0" type="line"/>
      <point x="1685.8181818181818" y="508.6363636363636" type="line"/>
      <point x="1939.2727272727273" y="508.6363636363636" type="line"/>
      <point x="1939.2727272727273" y="0.0" type="line"/>
      <point x="2003.8181818181818" y="0.0" type="line"/>
      <point x="2003.8181818181818" y="508.6363636363636" type="line"/>
      <point x="2194.3636363636365" y="508.6363636363636" type="line"/>
      <point x="2194.3636363636365" y="548.5454545454545" type="line"/>
      <point x="1624.0" y="548.5454545454545" type="line"/>
      <point x="1624.0" y="385.1818181818182" type="line"/>
      <point x="1621.8181818181818" y="370.6363636363636" type="line"/>
    </contour>
    <component base="o-tamil"/>
  </outline>
</glyph>
<glyph name="ka-tamil" format="2">
  <advance width="822.1818181818181"/>
  <unicode hex="0B95"/>
  <note>
uni0B95
</note>
  <anchor x="422.45454545454544" y="0.0" name="bottom"/>
  <anchor x="547.3636363636364" y="548.5454545454545" name="imatra"/>
  <anchor x="424.72727272727275" y="0.0" name="nukta"/>
  <anchor x="437.90909090909093" y="548.5454545454545" name="top"/>
  <anchor x="447.90909090909093" y="548.5454545454545" name="vedic"/>
  <outline>
    <contour>
      <point x="264.8181818181818" y="-4.0" type="curve" smooth="yes"/>
      <point x="403.3636363636364" y="-4.0"/>
      <point x="482.6363636363636" y="76.81818181818181"/>
      <point x="482.6363636363636" y="196.36363636363637" type="curve" smooth="yes"/>
      <point x="482.6363636363636" y="268.45454545454544" type="line"/>
      <point x="539.5454545454545" y="268.45454545454544" type="line" smooth="yes"/>
      <point x="642.0909090909091" y="268.45454545454544"/>
      <point x="695.4545454545455" y="226.72727272727272"/>
      <point x="695.4545454545455" y="151.27272727272728" type="curve" smooth="yes"/>
      <point x="695.4545454545455" y="92.27272727272727"/>
      <point x="655.2727272727273" y="37.36363636363636"/>
      <point x="577.5454545454545" y="37.36363636363636" type="curve" smooth="yes"/>
      <point x="534.5454545454545" y="37.36363636363636" type="line"/>
      <point x="534.5454545454545" y="-2.0" type="line"/>
      <point x="590.0909090909091" y="-2.0" type="line" smooth="yes"/>
      <point x="685.3636363636364" y="-2.0"/>
      <point x="760.0" y="50.63636363636363"/>
      <point x="760.0" y="149.1818181818182" type="curve" smooth="yes"/>
      <point x="760.0" y="253.0909090909091"/>
      <point x="683.5454545454545" y="308.8181818181818"/>
      <point x="538.5454545454545" y="308.8181818181818" type="curve" smooth="yes"/>
      <point x="482.6363636363636" y="308.8181818181818" type="line"/>
      <point x="482.6363636363636" y="508.6363636363636" type="line"/>
      <point x="659.9090909090909" y="508.6363636363636" type="line"/>
      <point x="659.9090909090909" y="548.5454545454545" type="line"/>
      <point x="192.27272727272728" y="548.5454545454545" type="line"/>
      <point x="192.27272727272728" y="285.09090909090907" type="line"/>
      <point x="237.36363636363637" y="285.09090909090907" type="line"/>
      <point x="237.36363636363637" y="508.6363636363636" type="line"/>
      <point x="418.09090909090907" y="508.6363636363636" type="line"/>
      <point x="418.09090909090907" y="308.8181818181818" type="line"/>
      <point x="249.1818181818182" y="308.8181818181818" type="line" smooth="yes"/>
      <point x="137.36363636363637" y="308.8181818181818"/>
      <point x="66.63636363636364" y="244.1818181818182"/>
      <point x="66.63636363636364" y="154.72727272727272" type="curve" smooth="yes"/>
      <point x="66.63636363636364" y="60.36363636363637"/>
      <point x="149.0" y="-4.0"/>
    </contour>
    <contour>
      <point x="261.3636363636364" y="36.27272727272727" type="curve" smooth="yes"/>
      <point x="178.0" y="36.27272727272727"/>
      <point x="117.0909090909091" y="81.0"/>
      <point x="117.0909090909091" y="154.54545454545453" type="curve" smooth="yes"/>
      <point x="117.0909090909091" y="218.9090909090909"/>
      <point x="165.63636363636363" y="268.45454545454544"/>
      <point x="254.9090909090909" y="268.45454545454544" type="curve" smooth="yes"/>
      <point x="418.09090909090907" y="268.45454545454544" type="line"/>
      <point x="418.09090909090907" y="189.0" type="line" smooth="yes"/>
      <point x="418.09090909090907" y="92.0"/>
      <point x="351.45454545454544" y="36.27272727272727"/>
    </contour>
  </outline>
</glyph>
<glyph name="nga-tamil" format="2">
  <advance width="1024.909090909091"/>
  <unicode hex="0B99"/>
  <note>
uni0B99
</note>
  <anchor x="514.7272727272727" y="0.0" name="bottom"/>
  <anchor x="578.9090909090909" y="548.5454545454545" name="imatra"/>
  <anchor x="514.7272727272727" y="0.0" name="nukta"/>
  <anchor x="515.6363636363636" y="548.5454545454545" name="top"/>
  <anchor x="513.3636363636364" y="548.5454545454545" name="vedic"/>
  <outline>
    <contour>
      <point x="111.18181818181819" y="0.0" type="line"/>
      <point x="156.27272727272728" y="0.0" type="line"/>
      <point x="156.27272727272728" y="508.6363636363636" type="line"/>
      <point x="358.72727272727275" y="508.6363636363636" type="line"/>
      <point x="358.72727272727275" y="192.36363636363637" type="line"/>
      <point x="423.72727272727275" y="192.36363636363637" type="line"/>
      <point x="423.72727272727275" y="213.9090909090909" type="line" smooth="yes"/>
      <point x="423.72727272727275" y="266.54545454545456"/>
      <point x="456.72727272727275" y="323.27272727272725"/>
      <point x="529.6363636363636" y="323.27272727272725" type="curve" smooth="yes"/>
      <point x="591.9090909090909" y="323.27272727272725"/>
      <point x="633.6363636363636" y="280.27272727272725"/>
      <point x="633.6363636363636" y="209.0909090909091" type="curve" smooth="yes"/>
      <point x="633.6363636363636" y="80.0909090909091"/>
      <point x="508.6363636363636" y="39.90909090909091"/>
      <point x="448.1818181818182" y="39.90909090909091" type="curve" smooth="yes"/>
      <point x="358.72727272727275" y="39.90909090909091" type="line"/>
      <point x="358.72727272727275" y="0.0" type="line"/>
      <point x="914.2727272727273" y="0.0" type="line"/>
      <point x="914.2727272727273" y="548.5454545454545" type="line"/>
      <point x="849.2727272727273" y="548.5454545454545" type="line"/>
      <point x="849.2727272727273" y="39.90909090909091" type="line"/>
      <point x="555.4545454545455" y="39.90909090909091" type="line"/>
      <point x="632.8181818181819" y="62.27272727272727"/>
      <point x="698.0" y="124.36363636363636"/>
      <point x="698.0" y="220.54545454545453" type="curve" smooth="yes"/>
      <point x="698.0" y="310.90909090909093"/>
      <point x="633.1818181818181" y="368.09090909090907"/>
      <point x="549.3636363636364" y="368.09090909090907" type="curve" smooth="yes"/>
      <point x="475.90909090909093" y="368.09090909090907"/>
      <point x="437.8181818181818" y="328.0"/>
      <point x="423.72727272727275" y="297.3636363636364" type="curve"/>
      <point x="423.72727272727275" y="508.6363636363636" type="line"/>
      <point x="613.2727272727273" y="508.6363636363636" type="line"/>
      <point x="613.2727272727273" y="548.5454545454545" type="line"/>
      <point x="111.18181818181819" y="548.5454545454545" type="line"/>
    </contour>
  </outline>
</glyph>
<glyph name="ja-tamil" format="2">
  <advance width="973.6363636363636"/>
  <unicode hex="0B9C"/>
  <note>
uni0B9C
</note>
  <anchor x="501.09090909090907" y="0.0" name="bottom"/>
  <anchor x="496.1818181818182" y="-287.8181818181818" name="nukta"/>
  <anchor x="507.90909090909093" y="548.5454545454545" name="top"/>
  <anchor x="502.45454545454544" y="548.5454545454545" name="vedic"/>
  <outline>
    <contour>
      <point x="268.6363636363636" y="-287.8181818181818" type="curve" smooth="yes"/>
      <point x="501.72727272727275" y="-287.8181818181818"/>
      <point x="520.5454545454545" y="-8.363636363636363"/>
      <point x="721.5454545454545" y="-8.363636363636363" type="curve" smooth="yes"/>
      <point x="799.9090909090909" y="-8.363636363636363"/>
      <point x="846.5454545454545" y="-55.0"/>
      <point x="846.5454545454545" y="-129.8181818181818" type="curve" smooth="yes"/>
      <point x="846.5454545454545" y="-200.27272727272728"/>
      <point x="795.6363636363636" y="-250.1818181818182"/>
      <point x="723.0" y="-250.1818181818182" type="curve" smooth="yes"/>
      <point x="685.3636363636364" y="-250.1818181818182"/>
      <point x="651.4545454545455" y="-239.45454545454547"/>
      <point x="613.9090909090909" y="-218.54545454545453" type="curve"/>
      <point x="598.5454545454545" y="-249.8181818181818" type="line"/>
      <point x="641.2727272727273" y="-275.3636363636364"/>
      <point x="683.3636363636364" y="-287.8181818181818"/>
      <point x="735.6363636363636" y="-287.8181818181818" type="curve" smooth="yes"/>
      <point x="831.7272727272727" y="-287.8181818181818"/>
      <point x="912.0" y="-228.63636363636363"/>
      <point x="912.0" y="-133.9090909090909" type="curve" smooth="yes"/>
      <point x="912.0" y="-22.727272727272727"/>
      <point x="832.0" y="32.0"/>
      <point x="728.3636363636364" y="32.0" type="curve" smooth="yes"/>
      <point x="488.6363636363636" y="32.0"/>
      <point x="470.1818181818182" y="-246.1818181818182"/>
      <point x="271.72727272727275" y="-246.1818181818182" type="curve" smooth="yes"/>
      <point x="186.27272727272728" y="-246.1818181818182"/>
      <point x="132.54545454545456" y="-195.0"/>
      <point x="132.54545454545456" y="-107.63636363636364" type="curve" smooth="yes"/>
      <point x="132.54545454545456" y="39.0"/>
      <point x="280.0909090909091" y="61.90909090909091"/>
      <point x="519.9090909090909" y="83.0909090909091" type="curve" smooth="yes"/>
      <point x="741.5454545454545" y="102.54545454545455"/>
      <point x="912.0" y="149.0909090909091"/>
      <point x="912.0" y="345.45454545454544" type="curve" smooth="yes"/>
      <point x="912.0" y="487.72727272727275"/>
      <point x="820.3636363636364" y="555.3636363636364"/>
      <point x="706.6363636363636" y="555.3636363636364" type="curve" smooth="yes"/>
      <point x="609.8181818181819" y="555.3636363636364"/>
      <point x="542.8181818181819" y="505.1818181818182"/>
      <point x="513.1818181818181" y="432.1818181818182" type="curve"/>
      <point x="480.0" y="506.6363636363636"/>
      <point x="406.45454545454544" y="555.3636363636364"/>
      <point x="305.8181818181818" y="555.3636363636364" type="curve" smooth="yes"/>
      <point x="162.54545454545453" y="555.3636363636364"/>
      <point x="64.36363636363636" y="468.27272727272725"/>
      <point x="64.36363636363636" y="349.90909090909093" type="curve" smooth="yes"/>
      <point x="64.36363636363636" y="238.45454545454547"/>
      <point x="126.54545454545455" y="159.63636363636363"/>
      <point x="226.1818181818182" y="159.63636363636363" type="curve" smooth="yes"/>
      <point x="303.27272727272725" y="159.63636363636363"/>
      <point x="365.8181818181818" y="204.1818181818182"/>
      <point x="365.8181818181818" y="280.54545454545456" type="curve" smooth="yes"/>
      <point x="365.8181818181818" y="357.54545454545456"/>
      <point x="312.27272727272725" y="405.6363636363636"/>
      <point x="243.36363636363637" y="405.6363636363636" type="curve" smooth="yes"/>
      <point x="177.27272727272728" y="405.6363636363636"/>
      <point x="113.27272727272727" y="359.3636363636364"/>
      <point x="99.0909090909091" y="264.72727272727275" type="curve"/>
      <point x="121.54545454545455" y="234.45454545454547" type="line"/>
      <point x="136.45454545454547" y="321.09090909090907"/>
      <point x="174.8181818181818" y="362.0"/>
      <point x="227.9090909090909" y="362.0" type="curve" smooth="yes"/>
      <point x="273.27272727272725" y="362.0"/>
      <point x="302.90909090909093" y="328.90909090909093"/>
      <point x="302.90909090909093" y="280.8181818181818" type="curve" smooth="yes"/>
      <point x="302.90909090909093" y="233.72727272727272"/>
      <point x="271.3636363636364" y="200.9090909090909"/>
      <point x="220.0" y="200.9090909090909" type="curve" smooth="yes"/>
      <point x="158.0909090909091" y="200.9090909090909"/>
      <point x="109.27272727272728" y="245.27272727272728"/>
      <point x="109.27272727272728" y="345.3636363636364" type="curve" smooth="yes"/>
      <point x="109.27272727272728" y="445.8181818181818"/>
      <point x="189.1818181818182" y="514.5454545454545"/>
      <point x="293.1818181818182" y="514.5454545454545" type="curve" smooth="yes"/>
      <point x="406.27272727272725" y="514.5454545454545"/>
      <point x="480.3636363636364" y="447.72727272727275"/>
      <point x="480.3636363636364" y="336.8181818181818" type="curve" smooth="yes"/>
      <point x="480.3636363636364" y="211.8181818181818" type="line"/>
      <point x="543.5454545454545" y="211.8181818181818" type="line"/>
      <point x="543.5454545454545" y="358.72727272727275" type="line" smooth="yes"/>
      <point x="543.5454545454545" y="438.09090909090907"/>
      <point x="599.0" y="515.0"/>
      <point x="698.1818181818181" y="515.0" type="curve" smooth="yes"/>
      <point x="798.3636363636364" y="515.0"/>
      <point x="846.0909090909091" y="446.3636363636364"/>
      <point x="846.0909090909091" y="352.27272727272725" type="curve" smooth="yes"/>
      <point x="846.0909090909091" y="190.0909090909091"/>
      <point x="737.9090909090909" y="141.45454545454547"/>
      <point x="476.45454545454544" y="119.0" type="curve" smooth="yes"/>
      <point x="225.27272727272728" y="97.81818181818181"/>
      <point x="67.63636363636364" y="65.18181818181819"/>
      <point x="67.63636363636364" y="-105.18181818181819" type="curve" smooth="yes"/>
      <point x="67.63636363636364" y="-222.0"/>
      <point x="156.0909090909091" y="-287.8181818181818"/>
    </contour>
  </outline>
</glyph>
<glyph name="nya-tamil" format="2">
  <advance width="1263.5454545454545"/>
  <unicode hex="0B9E"/>
  <note>
uni0B9E
</note>
  <anchor x="668.8181818181819" y="0.0" name="bottom"/>
  <anchor x="1018.8181818181819" y="548.5454545454545" name="imatra"/>
  <anchor x="671.0909090909091" y="-333.0" name="nukta"/>
  <anchor x="678.4545454545455" y="548.5454545454545" name="top"/>
  <anchor x="634.4545454545455" y="548.5454545454545" name="vedic"/>
  <outline>
    <contour>
      <point x="671.0909090909091" y="-333.0" type="curve" smooth="yes"/>
      <point x="972.3636363636364" y="-333.0"/>
      <point x="1204.1818181818182" y="-158.8181818181818"/>
      <point x="1204.1818181818182" y="109.36363636363636" type="curve" smooth="yes"/>
      <point x="1204.1818181818182" y="256.72727272727275"/>
      <point x="1129.7272727272727" y="337.27272727272725"/>
      <point x="1027.8181818181818" y="337.27272727272725" type="curve" smooth="yes"/>
      <point x="939.2727272727273" y="337.27272727272725"/>
      <point x="882.4545454545455" y="273.27272727272725"/>
      <point x="882.4545454545455" y="175.0" type="curve" smooth="yes"/>
      <point x="882.4545454545455" y="143.0" type="line"/>
      <point x="905.3636363636364" y="143.0" type="line"/>
      <point x="905.3636363636364" y="173.9090909090909" type="line" smooth="yes"/>
      <point x="905.3636363636364" y="240.0909090909091"/>
      <point x="940.4545454545455" y="294.1818181818182"/>
      <point x="1012.7272727272727" y="294.1818181818182" type="curve" smooth="yes"/>
      <point x="1086.3636363636363" y="294.1818181818182"/>
      <point x="1139.1818181818182" y="232.54545454545453"/>
      <point x="1139.1818181818182" y="106.0" type="curve" smooth="yes"/>
      <point x="1139.1818181818182" y="-140.8181818181818"/>
      <point x="934.1818181818181" y="-292.1818181818182"/>
      <point x="668.8181818181819" y="-292.1818181818182" type="curve" smooth="yes"/>
      <point x="367.27272727272725" y="-292.1818181818182"/>
      <point x="109.54545454545455" y="-108.0"/>
      <point x="109.54545454545455" y="219.0" type="curve" smooth="yes"/>
      <point x="109.54545454545455" y="398.8181818181818"/>
      <point x="169.72727272727272" y="523.5454545454545"/>
      <point x="310.72727272727275" y="627.7272727272727" type="curve"/>
      <point x="284.09090909090907" y="663.2727272727273" type="line"/>
      <point x="139.0909090909091" y="555.1818181818181"/>
      <point x="65.27272727272727" y="418.72727272727275"/>
      <point x="65.27272727272727" y="217.1818181818182" type="curve" smooth="yes"/>
      <point x="65.27272727272727" y="-92.45454545454545"/>
      <point x="299.0" y="-333.0"/>
    </contour>
    <component base="e-tamil" xOffset="210.54545454545453"/>
  </outline>
</glyph>
<glyph name="tta-tamil" format="2">
  <advance width="889.0"/>
  <unicode hex="0B9F"/>
  <note>
uni0B9F
</note>
  <anchor x="494.0" y="0.0" name="bottom"/>
  <anchor x="494.0" y="0.0" name="nukta"/>
  <anchor x="521.3636363636364" y="548.5454545454545" name="top"/>
  <anchor x="491.72727272727275" y="548.5454545454545" name="vedic"/>
  <outline>
    <contour>
      <point x="111.18181818181819" y="0.0" type="line"/>
      <point x="872.2727272727273" y="0.0" type="line"/>
      <point x="872.2727272727273" y="39.90909090909091" type="line"/>
      <point x="175.63636363636363" y="39.90909090909091" type="line"/>
      <point x="175.63636363636363" y="548.5454545454545" type="line"/>
      <point x="111.18181818181819" y="548.5454545454545" type="line"/>
    </contour>
  </outline>
</glyph>
<glyph name="ta-tamil" format="2">
  <advance width="823.0909090909091"/>
  <unicode hex="0BA4"/>
  <note>
uni0BA4
</note>
  <anchor x="410.6363636363636" y="0.0" name="bottom"/>
  <anchor x="593.0" y="548.5454545454545" name="imatra"/>
  <anchor x="410.6363636363636" y="-135.9090909090909" name="nukta"/>
  <anchor x="432.90909090909093" y="548.5454545454545" name="top"/>
  <anchor x="415.3636363636364" y="548.5454545454545" name="vedic"/>
  <outline>
    <contour>
      <point x="151.72727272727272" y="-228.0909090909091" type="curve"/>
      <point x="151.72727272727272" y="-174.0909090909091"/>
      <point x="172.1818181818182" y="-135.45454545454547"/>
      <point x="247.54545454545456" y="-135.45454545454547" type="curve" smooth="yes"/>
      <point x="435.3636363636364" y="-135.45454545454547" type="line" smooth="yes"/>
      <point x="644.1818181818181" y="-135.45454545454547"/>
      <point x="760.9090909090909" y="-59.18181818181818"/>
      <point x="760.9090909090909" y="95.27272727272727" type="curve" smooth="yes"/>
      <point x="760.9090909090909" y="229.36363636363637"/>
      <point x="660.9090909090909" y="308.8181818181818"/>
      <point x="519.6363636363636" y="308.8181818181818" type="curve" smooth="yes"/>
      <point x="482.6363636363636" y="308.8181818181818" type="line"/>
      <point x="482.6363636363636" y="508.6363636363636" type="line"/>
      <point x="666.2727272727273" y="508.6363636363636" type="line"/>
      <point x="666.2727272727273" y="548.5454545454545" type="line"/>
      <point x="192.27272727272728" y="548.5454545454545" type="line"/>
      <point x="192.27272727272728" y="285.09090909090907" type="line"/>
      <point x="237.36363636363637" y="285.09090909090907" type="line"/>
      <point x="237.36363636363637" y="508.6363636363636" type="line"/>
      <point x="418.09090909090907" y="508.6363636363636" type="line"/>
      <point x="418.09090909090907" y="308.8181818181818" type="line"/>
      <point x="249.1818181818182" y="308.8181818181818" type="line" smooth="yes"/>
      <point x="137.36363636363637" y="308.8181818181818"/>
      <point x="66.63636363636364" y="244.1818181818182"/>
      <point x="66.63636363636364" y="154.72727272727272" type="curve" smooth="yes"/>
      <point x="66.63636363636364" y="60.36363636363637"/>
      <point x="149.0" y="-4.0"/>
      <point x="264.8181818181818" y="-4.0" type="curve" smooth="yes"/>
      <point x="398.8181818181818" y="-4.0"/>
      <point x="482.6363636363636" y="76.81818181818181"/>
      <point x="482.6363636363636" y="196.36363636363637" type="curve" smooth="yes"/>
      <point x="482.6363636363636" y="268.45454545454544" type="line"/>
      <point x="520.0909090909091" y="268.45454545454544" type="line" smooth="yes"/>
      <point x="629.0" y="268.45454545454544"/>
      <point x="697.4545454545455" y="198.0909090909091"/>
      <point x="697.4545454545455" y="97.36363636363636" type="curve" smooth="yes"/>
      <point x="697.4545454545455" y="-24.909090909090907"/>
      <point x="605.8181818181819" y="-98.27272727272727"/>
      <point x="418.8181818181818" y="-98.27272727272727" type="curve" smooth="yes"/>
      <point x="212.0909090909091" y="-98.27272727272727" type="line" smooth="yes"/>
      <point x="140.45454545454547" y="-98.27272727272727"/>
      <point x="82.72727272727272" y="-118.0"/>
      <point x="82.72727272727272" y="-171.72727272727272" type="curve" smooth="yes"/>
      <point x="82.72727272727272" y="-208.9090909090909"/>
      <point x="106.9090909090909" y="-228.0909090909091"/>
    </contour>
    <contour>
      <point x="259.09090909090907" y="36.27272727272727" type="curve" smooth="yes"/>
      <point x="173.54545454545456" y="36.27272727272727"/>
      <point x="115.45454545454545" y="79.9090909090909"/>
      <point x="115.45454545454545" y="154.54545454545453" type="curve" smooth="yes"/>
      <point x="115.45454545454545" y="218.9090909090909"/>
      <point x="163.45454545454547" y="268.45454545454544"/>
      <point x="254.9090909090909" y="268.45454545454544" type="curve" smooth="yes"/>
      <point x="418.09090909090907" y="268.45454545454544" type="line"/>
      <point x="418.09090909090907" y="189.0" type="line" smooth="yes"/>
      <point x="418.09090909090907" y="90.9090909090909"/>
      <point x="349.1818181818182" y="36.27272727272727"/>
    </contour>
  </outline>
</glyph>
<glyph name="pa-tamil" format="2">
  <advance width="893.4545454545455"/>
  <unicode hex="0BAA"/>
  <note>
uni0BAA
</note>
  <anchor x="449.0" y="0.0" name="bottom"/>
  <anchor x="772.8181818181819" y="548.5454545454545" name="imatra"/>
  <anchor x="449.0" y="0.0" name="nukta"/>
  <anchor x="449.45454545454544" y="548.5454545454545" name="top"/>
  <anchor x="446.72727272727275" y="548.5454545454545" name="vedic"/>
  <outline>
    <contour>
      <point x="111.18181818181819" y="0.0" type="line"/>
      <point x="782.8181818181819" y="0.0" type="line"/>
      <point x="782.8181818181819" y="548.5454545454545" type="line"/>
      <point x="717.8181818181819" y="548.5454545454545" type="line"/>
      <point x="717.8181818181819" y="39.90909090909091" type="line"/>
      <point x="175.63636363636363" y="39.90909090909091" type="line"/>
      <point x="175.63636363636363" y="548.5454545454545" type="line"/>
      <point x="111.18181818181819" y="548.5454545454545" type="line"/>
    </contour>
  </outline>
</glyph>
<glyph name="ma-tamil" format="2">
  <advance width="912.6363636363636"/>
  <unicode hex="0BAE"/>
  <note>
uni0BAE
</note>
  <anchor x="459.6363636363636" y="0.0" name="bottom"/>
  <anchor x="804.6363636363636" y="548.5454545454545" name="imatra"/>
  <anchor x="460.6363636363636" y="0.0" name="nukta"/>
  <anchor x="489.8181818181818" y="548.5454545454545" name="top"/>
  <anchor x="479.0" y="548.5454545454545" name="vedic"/>
  <outline>
    <contour>
      <point x="111.18181818181819" y="0.0" type="line"/>
      <point x="679.0909090909091" y="0.0" type="line" smooth="yes"/>
      <point x="800.1818181818181" y="0.0"/>
      <point x="846.8181818181819" y="84.0909090909091"/>
      <point x="846.8181818181819" y="229.45454545454547" type="curve" smooth="yes"/>
      <point x="846.8181818181819" y="427.3636363636364"/>
      <point x="758.9090909090909" y="555.3636363636364"/>
      <point x="621.4545454545455" y="555.3636363636364" type="curve" smooth="yes"/>
      <point x="516.6363636363636" y="555.3636363636364"/>
      <point x="455.45454545454544" y="487.90909090909093"/>
      <point x="455.45454545454544" y="375.09090909090907" type="curve" smooth="yes"/>
      <point x="455.45454545454544" y="39.90909090909091" type="line"/>
      <point x="175.63636363636363" y="39.90909090909091" type="line"/>
      <point x="175.63636363636363" y="548.5454545454545" type="line"/>
      <point x="111.18181818181819" y="548.5454545454545" type="line"/>
    </contour>
    <contour>
      <point x="520.4545454545455" y="39.90909090909091" type="line"/>
      <point x="520.4545454545455" y="375.6363636363636" type="line" smooth="yes"/>
      <point x="520.4545454545455" y="466.45454545454544"/>
      <point x="558.4545454545455" y="512.2727272727273"/>
      <point x="629.1818181818181" y="512.2727272727273" type="curve" smooth="yes"/>
      <point x="725.0" y="512.2727272727273"/>
      <point x="800.8181818181819" y="405.45454545454544"/>
      <point x="800.8181818181819" y="227.45454545454547" type="curve" smooth="yes"/>
      <point x="800.8181818181819" y="113.45454545454545"/>
      <point x="771.8181818181819" y="39.90909090909091"/>
      <point x="672.3636363636364" y="39.90909090909091" type="curve" smooth="yes"/>
    </contour>
  </outline>
</glyph>
<glyph name="ra-tamil" format="2">
  <advance width="672.5454545454545"/>
  <unicode hex="0BB0"/>
  <note>
uni0BB0
</note>
  <anchor x="347.6363636363636" y="0.0" name="bottom"/>
  <anchor x="584.9090909090909" y="548.5454545454545" name="imatra"/>
  <anchor x="346.27272727272725" y="-183.54545454545456" name="nukta"/>
  <anchor x="372.3636363636364" y="548.5454545454545" name="top"/>
  <anchor x="378.0" y="548.5454545454545" name="vedic"/>
  <outline>
    <contour>
      <point x="242.0" y="-225.45454545454547" type="line"/>
      <point x="459.8181818181818" y="6.272727272727273" type="line"/>
      <point x="459.8181818181818" y="508.6363636363636" type="line"/>
      <point x="649.9090909090909" y="508.6363636363636" type="line"/>
      <point x="649.9090909090909" y="548.5454545454545" type="line"/>
      <point x="111.18181818181819" y="548.5454545454545" type="line"/>
      <point x="111.18181818181819" y="0.0" type="line"/>
      <point x="156.27272727272728" y="0.0" type="line"/>
      <point x="156.27272727272728" y="508.6363636363636" type="line"/>
      <point x="395.3636363636364" y="508.6363636363636" type="line"/>
      <point x="395.3636363636364" y="1.1818181818181817" type="line"/>
      <point x="210.9090909090909" y="-194.45454545454547" type="line"/>
    </contour>
  </outline>
</glyph>
<glyph name="la-tamil" format="2">
  <advance width="1033.090909090909"/>
  <unicode hex="0BB2"/>
  <note>
uni0BB2
</note>
  <anchor x="517.9090909090909" y="0.0" name="bottom"/>
  <anchor x="517.9090909090909" y="0.0" name="nukta"/>
  <anchor x="536.8181818181819" y="548.5454545454545" name="top"/>
  <anchor x="516.7272727272727" y="548.5454545454545" name="vedic"/>
  <outline>
    <contour>
      <point x="266.72727272727275" y="-4.0" type="curve" smooth="yes"/>
      <point x="366.54545454545456" y="-4.0"/>
      <point x="434.90909090909093" y="55.90909090909091"/>
      <point x="434.90909090909093" y="148.1818181818182" type="curve" smooth="yes"/>
      <point x="434.90909090909093" y="237.9090909090909"/>
      <point x="374.1818181818182" y="294.45454545454544"/>
      <point x="289.27272727272725" y="294.45454545454544" type="curve" smooth="yes"/>
      <point x="192.27272727272728" y="294.45454545454544"/>
      <point x="123.45454545454545" y="219.45454545454547"/>
      <point x="108.72727272727273" y="128.0909090909091" type="curve"/>
      <point x="130.54545454545456" y="102.0" type="line"/>
      <point x="146.54545454545453" y="186.36363636363637"/>
      <point x="193.72727272727272" y="246.0"/>
      <point x="266.3636363636364" y="246.0" type="curve" smooth="yes"/>
      <point x="335.27272727272725" y="246.0"/>
      <point x="372.0" y="201.9090909090909"/>
      <point x="372.0" y="144.1818181818182" type="curve" smooth="yes"/>
      <point x="372.0" y="78.36363636363636"/>
      <point x="325.27272727272725" y="36.27272727272727"/>
      <point x="255.63636363636363" y="36.27272727272727" type="curve" smooth="yes"/>
      <point x="172.27272727272728" y="36.27272727272727"/>
      <point x="106.54545454545455" y="108.54545454545455"/>
      <point x="106.54545454545455" y="230.0909090909091" type="curve" smooth="yes"/>
      <point x="106.54545454545455" y="399.8181818181818"/>
      <point x="204.0909090909091" y="515.0"/>
      <point x="364.0" y="515.0" type="curve" smooth="yes"/>
      <point x="489.0" y="515.0"/>
      <point x="572.5454545454545" y="443.6363636363636"/>
      <point x="572.5454545454545" y="319.09090909090907" type="curve" smooth="yes"/>
      <point x="572.5454545454545" y="164.36363636363637" type="line" smooth="yes"/>
      <point x="572.5454545454545" y="58.45454545454545"/>
      <point x="638.7272727272727" y="-1.8181818181818181"/>
      <point x="737.6363636363636" y="-1.8181818181818181" type="curve" smooth="yes"/>
      <point x="869.7272727272727" y="-1.8181818181818181"/>
      <point x="967.8181818181819" y="123.27272727272728"/>
      <point x="967.8181818181819" y="281.27272727272725" type="curve" smooth="yes"/>
      <point x="967.8181818181819" y="379.09090909090907"/>
      <point x="939.9090909090909" y="471.54545454545456"/>
      <point x="856.1818181818181" y="553.5454545454545" type="curve"/>
      <point x="826.4545454545455" y="525.1818181818181" type="line"/>
      <point x="896.1818181818181" y="459.72727272727275"/>
      <point x="925.6363636363636" y="380.45454545454544"/>
      <point x="925.6363636363636" y="286.72727272727275" type="curve" smooth="yes"/>
      <point x="925.6363636363636" y="147.0909090909091"/>
      <point x="843.6363636363636" y="41.27272727272727"/>
      <point x="744.0909090909091" y="41.27272727272727" type="curve" smooth="yes"/>
      <point x="668.0" y="41.27272727272727"/>
      <point x="637.5454545454545" y="85.36363636363636"/>
      <point x="637.5454545454545" y="162.9090909090909" type="curve" smooth="yes"/>
      <point x="637.5454545454545" y="317.09090909090907" type="line" smooth="yes"/>
      <point x="637.5454545454545" y="471.09090909090907"/>
      <point x="522.5454545454545" y="555.3636363636364"/>
      <point x="368.90909090909093" y="555.3636363636364" type="curve" smooth="yes"/>
      <point x="184.1818181818182" y="555.3636363636364"/>
      <point x="62.18181818181818" y="425.0"/>
      <point x="62.18181818181818" y="232.1818181818182" type="curve" smooth="yes"/>
      <point x="62.18181818181818" y="85.18181818181819"/>
      <point x="152.9090909090909" y="-4.0"/>
    </contour>
  </outline>
</glyph>
<glyph name="ssa-tamil" format="2">
  <advance width="1407.4545454545455"/>
  <unicode hex="0BB7"/>
  <note>
uni0BB7
</note>
  <anchor x="716.9090909090909" y="0.0" name="bottom"/>
  <anchor x="666.3636363636364" y="0.0" name="nukta"/>
  <anchor x="735.0909090909091" y="548.5454545454545" name="top"/>
  <anchor x="697.3636363636364" y="548.5454545454545" name="vedic"/>
  <outline>
    <contour>
      <point x="266.72727272727275" y="-4.0" type="curve" smooth="yes"/>
      <point x="366.54545454545456" y="-4.0"/>
      <point x="434.90909090909093" y="55.90909090909091"/>
      <point x="434.90909090909093" y="148.1818181818182" type="curve" smooth="yes"/>
      <point x="434.90909090909093" y="237.9090909090909"/>
      <point x="374.1818181818182" y="294.45454545454544"/>
      <point x="289.27272727272725" y="294.45454545454544" type="curve" smooth="yes"/>
      <point x="192.27272727272728" y="294.45454545454544"/>
      <point x="123.45454545454545" y="219.45454545454547"/>
      <point x="108.72727272727273" y="128.0909090909091" type="curve"/>
      <point x="130.54545454545456" y="102.0" type="line"/>
      <point x="146.54545454545453" y="186.36363636363637"/>
      <point x="193.72727272727272" y="246.0"/>
      <point x="266.3636363636364" y="246.0" type="curve" smooth="yes"/>
      <point x="335.27272727272725" y="246.0"/>
      <point x="372.0" y="201.9090909090909"/>
      <point x="372.0" y="144.1818181818182" type="curve" smooth="yes"/>
      <point x="372.0" y="78.36363636363636"/>
      <point x="325.27272727272725" y="36.27272727272727"/>
      <point x="255.63636363636363" y="36.27272727272727" type="curve" smooth="yes"/>
      <point x="172.27272727272728" y="36.27272727272727"/>
      <point x="106.54545454545455" y="108.54545454545455"/>
      <point x="106.54545454545455" y="230.0909090909091" type="curve" smooth="yes"/>
      <point x="106.54545454545455" y="400.72727272727275"/>
      <point x="220.63636363636363" y="515.0"/>
      <point x="397.6363636363636" y="515.0" type="curve" smooth="yes"/>
      <point x="550.2727272727273" y="515.0"/>
      <point x="675.7272727272727" y="417.90909090909093"/>
      <point x="675.7272727272727" y="257.90909090909093" type="curve" smooth="yes"/>
      <point x="675.7272727272727" y="148.63636363636363"/>
      <point x="634.9090909090909" y="81.18181818181819"/>
      <point x="585.6363636363636" y="32.09090909090909" type="curve"/>
      <point x="600.4545454545455" y="0.0" type="line"/>
      <point x="1341.7272727272727" y="0.0" type="line"/>
      <point x="1341.7272727272727" y="343.1818181818182" type="line"/>
      <point x="1276.1818181818182" y="311.72727272727275" type="line"/>
      <point x="1276.1818181818182" y="39.90909090909091" type="line"/>
      <point x="652.3636363636364" y="39.90909090909091" type="line"/>
      <point x="699.0" y="90.18181818181819"/>
      <point x="741.2727272727273" y="158.0909090909091"/>
      <point x="741.2727272727273" y="259.6363636363636" type="curve" smooth="yes"/>
      <point x="741.2727272727273" y="444.6363636363636"/>
      <point x="591.2727272727273" y="555.3636363636364"/>
      <point x="406.54545454545456" y="555.3636363636364" type="curve" smooth="yes"/>
      <point x="203.27272727272728" y="555.3636363636364"/>
      <point x="62.18181818181818" y="425.45454545454544"/>
      <point x="62.18181818181818" y="232.1818181818182" type="curve" smooth="yes"/>
      <point x="62.18181818181818" y="85.18181818181819"/>
      <point x="152.9090909090909" y="-4.0"/>
    </contour>
    <contour>
      <point x="1036.6363636363637" y="-287.8181818181818" type="line"/>
      <point x="1101.1818181818182" y="-287.8181818181818" type="line"/>
      <point x="1101.1818181818182" y="428.3636363636364" type="line" smooth="yes"/>
      <point x="1101.1818181818182" y="503.90909090909093"/>
      <point x="1049.4545454545455" y="555.3636363636364"/>
      <point x="972.5454545454545" y="555.3636363636364" type="curve" smooth="yes"/>
      <point x="886.8181818181819" y="555.3636363636364"/>
      <point x="833.0" y="500.27272727272725"/>
      <point x="833.0" y="412.72727272727275" type="curve" smooth="yes"/>
      <point x="833.0" y="291.09090909090907"/>
      <point x="925.0909090909091" y="219.36363636363637"/>
      <point x="1057.0" y="219.36363636363637" type="curve" smooth="yes"/>
      <point x="1156.6363636363637" y="219.36363636363637"/>
      <point x="1243.8181818181818" y="240.9090909090909"/>
      <point x="1341.7272727272727" y="338.1818181818182" type="curve"/>
      <point x="1341.7272727272727" y="349.1818181818182" type="line"/>
      <point x="1312.5454545454545" y="368.90909090909093" type="line"/>
      <point x="1229.090909090909" y="289.09090909090907"/>
      <point x="1157.4545454545455" y="259.1818181818182"/>
      <point x="1054.5454545454545" y="259.1818181818182" type="curve" smooth="yes"/>
      <point x="947.6363636363636" y="259.1818181818182"/>
      <point x="875.7272727272727" y="305.1818181818182"/>
      <point x="875.7272727272727" y="411.27272727272725" type="curve" smooth="yes"/>
      <point x="875.7272727272727" y="474.72727272727275"/>
      <point x="909.0" y="515.0"/>
      <point x="961.6363636363636" y="515.0" type="curve" smooth="yes"/>
      <point x="1005.4545454545455" y="515.0"/>
      <point x="1036.6363636363637" y="489.0"/>
      <point x="1036.6363636363637" y="435.90909090909093" type="curve" smooth="yes"/>
    </contour>
  </outline>
</glyph>
<glyph name="sa-tamil" format="2">
  <advance width="1343.6363636363637"/>
  <unicode hex="0BB8"/>
  <note>
uni0BB8
</note>
  <anchor x="683.9090909090909" y="0.0" name="bottom"/>
  <anchor x="683.9090909090909" y="0.0" name="nukta"/>
  <anchor x="669.4545454545455" y="548.5454545454545" name="top"/>
  <anchor x="672.2727272727273" y="548.5454545454545" name="vedic"/>
  <outline>
    <contour>
      <point x="616.2727272727273" y="0.0" type="line"/>
      <point x="680.8181818181819" y="0.0" type="line"/>
      <point x="680.8181818181819" y="407.1818181818182" type="line" smooth="yes"/>
      <point x="680.8181818181819" y="471.1818181818182"/>
      <point x="715.9090909090909" y="514.4545454545455"/>
      <point x="781.8181818181819" y="514.4545454545455" type="curve" smooth="yes"/>
      <point x="843.7272727272727" y="514.4545454545455"/>
      <point x="877.6363636363636" y="473.72727272727275"/>
      <point x="877.6363636363636" y="412.90909090909093" type="curve" smooth="yes"/>
      <point x="877.6363636363636" y="167.0909090909091" type="line" smooth="yes"/>
      <point x="877.6363636363636" y="61.18181818181818"/>
      <point x="943.8181818181819" y="-1.8181818181818181"/>
      <point x="1043.1818181818182" y="-1.8181818181818181" type="curve" smooth="yes"/>
      <point x="1180.8181818181818" y="-1.8181818181818181"/>
      <point x="1278.3636363636363" y="123.27272727272728"/>
      <point x="1278.3636363636363" y="281.27272727272725" type="curve" smooth="yes"/>
      <point x="1278.3636363636363" y="379.54545454545456"/>
      <point x="1247.7272727272727" y="472.09090909090907"/>
      <point x="1162.909090909091" y="553.5454545454545" type="curve"/>
      <point x="1130.4545454545455" y="523.5454545454545" type="line"/>
      <point x="1202.2727272727273" y="455.90909090909093"/>
      <point x="1230.7272727272727" y="380.90909090909093"/>
      <point x="1230.7272727272727" y="286.72727272727275" type="curve" smooth="yes"/>
      <point x="1230.7272727272727" y="147.0909090909091"/>
      <point x="1148.7272727272727" y="41.27272727272727"/>
      <point x="1049.090909090909" y="41.27272727272727" type="curve" smooth="yes"/>
      <point x="983.3636363636364" y="41.27272727272727"/>
      <point x="942.6363636363636" y="85.36363636363636"/>
      <point x="942.6363636363636" y="165.63636363636363" type="curve" smooth="yes"/>
      <point x="942.6363636363636" y="402.8181818181818" type="line" smooth="yes"/>
      <point x="942.6363636363636" y="497.09090909090907"/>
      <point x="880.5454545454545" y="555.3636363636364"/>
      <point x="789.4545454545455" y="555.3636363636364" type="curve" smooth="yes"/>
      <point x="692.8181818181819" y="555.3636363636364"/>
      <point x="641.1818181818182" y="489.45454545454544"/>
      <point x="641.1818181818182" y="413.1818181818182" type="curve" smooth="yes"/>
      <point x="641.1818181818182" y="349.54545454545456" type="line"/>
      <point x="616.2727272727273" y="349.54545454545456" type="line"/>
    </contour>
    <contour>
      <point x="271.1818181818182" y="-4.0" type="curve" smooth="yes"/>
      <point x="371.54545454545456" y="-4.0"/>
      <point x="439.90909090909093" y="55.90909090909091"/>
      <point x="439.90909090909093" y="148.1818181818182" type="curve" smooth="yes"/>
      <point x="439.90909090909093" y="237.9090909090909"/>
      <point x="379.1818181818182" y="294.45454545454544"/>
      <point x="293.8181818181818" y="294.45454545454544" type="curve" smooth="yes"/>
      <point x="196.72727272727272" y="294.45454545454544"/>
      <point x="127.9090909090909" y="219.45454545454547"/>
      <point x="113.18181818181819" y="128.0909090909091" type="curve"/>
      <point x="135.0" y="102.0" type="line"/>
      <point x="151.0" y="186.36363636363637"/>
      <point x="198.1818181818182" y="246.0"/>
      <point x="270.8181818181818" y="246.0" type="curve" smooth="yes"/>
      <point x="339.72727272727275" y="246.0"/>
      <point x="376.45454545454544" y="201.9090909090909"/>
      <point x="376.45454545454544" y="144.1818181818182" type="curve" smooth="yes"/>
      <point x="376.45454545454544" y="78.36363636363636"/>
      <point x="329.72727272727275" y="36.27272727272727"/>
      <point x="260.09090909090907" y="36.27272727272727" type="curve" smooth="yes"/>
      <point x="175.0909090909091" y="36.27272727272727"/>
      <point x="111.54545454545455" y="111.81818181818181"/>
      <point x="111.54545454545455" y="239.9090909090909" type="curve" smooth="yes"/>
      <point x="111.54545454545455" y="403.09090909090907"/>
      <point x="215.1818181818182" y="515.0"/>
      <point x="380.45454545454544" y="515.0" type="curve" smooth="yes"/>
      <point x="507.1818181818182" y="515.0"/>
      <point x="616.2727272727273" y="446.90909090909093"/>
      <point x="616.2727272727273" y="301.6363636363636" type="curve"/>
      <point x="661.2727272727273" y="303.45454545454544" type="line"/>
      <point x="658.5454545454545" y="475.45454545454544"/>
      <point x="531.9090909090909" y="555.3636363636364"/>
      <point x="380.0" y="555.3636363636364" type="curve" smooth="yes"/>
      <point x="190.27272727272728" y="555.3636363636364"/>
      <point x="66.63636363636364" y="427.72727272727275"/>
      <point x="66.63636363636364" y="240.9090909090909" type="curve" smooth="yes"/>
      <point x="66.63636363636364" y="88.45454545454545"/>
      <point x="155.1818181818182" y="-4.0"/>
    </contour>
  </outline>
</glyph>
<glyph name="aaMatra-tamil" format="2">
  <advance width="690.0909090909091"/>
  <unicode hex="0BBE"/>
  <note>
uni0BBE
</note>
  <anchor x="378.45454545454544" y="0.0" name="bottom"/>
  <anchor x="377.45454545454544" y="0.0" name="nukta"/>
  <anchor x="371.45454545454544" y="548.5454545454545" name="top"/>
  <anchor x="371.45454545454544" y="548.5454545454545" name="vedic"/>
  <outline>
    <contour>
      <point x="111.18181818181819" y="0.0" type="line"/>
      <point x="156.27272727272728" y="0.0" type="line"/>
      <point x="156.27272727272728" y="508.6363636363636" type="line"/>
      <point x="412.9090909090909" y="508.6363636363636" type="line"/>
      <point x="412.9090909090909" y="0.0" type="line"/>
      <point x="477.3636363636364" y="0.0" type="line"/>
      <point x="477.3636363636364" y="508.6363636363636" type="line"/>
      <point x="667.4545454545455" y="508.6363636363636" type="line"/>
      <point x="667.4545454545455" y="548.5454545454545" type="line"/>
      <point x="111.18181818181819" y="548.5454545454545" type="line"/>
    </contour>
  </outline>
</glyph>
<glyph name="iMatra-tamil" format="2">
  <advance width="232.9090909090909"/>
  <unicode hex="0BBF"/>
  <note>
uni0BBF
</note>
  <anchor x="-111.81818181818181" y="818.5454545454545" name="top"/>
  <outline>
    <contour>
      <point x="84.36363636363636" y="0.0" type="line"/>
      <point x="130.8181818181818" y="0.0" type="line"/>
      <point x="130.8181818181818" y="560.4545454545455" type="line" smooth="yes"/>
      <point x="130.8181818181818" y="721.9090909090909"/>
      <point x="35.72727272727273" y="818.5454545454545"/>
      <point x="-111.81818181818181" y="818.5454545454545" type="curve" smooth="yes"/>
      <point x="-229.27272727272728" y="818.5454545454545"/>
      <point x="-308.72727272727275" y="748.1818181818181"/>
      <point x="-308.72727272727275" y="650.6363636363636" type="curve" smooth="yes"/>
      <point x="-308.72727272727275" y="563.9090909090909"/>
      <point x="-242.0909090909091" y="508.6363636363636"/>
      <point x="-167.8181818181818" y="508.6363636363636" type="curve" smooth="yes"/>
      <point x="-161.45454545454547" y="508.6363636363636" type="line"/>
      <point x="-161.45454545454547" y="548.5454545454545" type="line"/>
      <point x="-166.45454545454547" y="548.5454545454545" type="line" smooth="yes"/>
      <point x="-220.54545454545453" y="548.5454545454545"/>
      <point x="-260.54545454545456" y="584.7272727272727"/>
      <point x="-260.54545454545456" y="641.2727272727273" type="curve" smooth="yes"/>
      <point x="-260.54545454545456" y="714.0"/>
      <point x="-204.0909090909091" y="756.9090909090909"/>
      <point x="-116.0909090909091" y="756.9090909090909" type="curve" smooth="yes"/>
      <point x="9.636363636363637" y="756.9090909090909"/>
      <point x="84.36363636363636" y="682.5454545454545"/>
      <point x="84.36363636363636" y="538.6363636363636" type="curve" smooth="yes"/>
    </contour>
  </outline>
</glyph>
<glyph name="iiMatra-tamil" format="2">
  <unicode hex="0BC0"/>
  <note>
uni0BC0
</note>
  <anchor x="0.0" y="548.5454545454545" name="_imatra"/>
  <anchor x="12.454545454545455" y="877.4545454545455" name="top"/>
  <outline>
    <contour>
      <point x="-20.81818181818182" y="512.2727272727273" type="curve" smooth="yes"/>
      <point x="0.0" y="512.2727272727273" type="line"/>
      <point x="0.0" y="548.5454545454545" type="line"/>
      <point x="-20.81818181818182" y="548.5454545454545" type="line" smooth="yes"/>
      <point x="-102.81818181818181" y="548.5454545454545"/>
      <point x="-159.8181818181818" y="601.7272727272727"/>
      <point x="-159.8181818181818" y="685.8181818181819" type="curve" smooth="yes"/>
      <point x="-159.8181818181818" y="775.0"/>
      <point x="-100.63636363636364" y="838.0"/>
      <point x="9.363636363636363" y="838.0" type="curve" smooth="yes"/>
      <point x="89.81818181818181" y="838.0"/>
      <point x="147.1818181818182" y="799.7272727272727"/>
      <point x="147.1818181818182" y="732.7272727272727" type="curve" smooth="yes"/>
      <point x="147.1818181818182" y="686.0909090909091"/>
      <point x="112.81818181818181" y="651.0"/>
      <point x="59.63636363636363" y="651.0" type="curve" smooth="yes"/>
      <point x="-37.18181818181818" y="651.0"/>
      <point x="-60.54545454545455" y="758.2727272727273"/>
      <point x="-9.545454545454545" y="852.8181818181819" type="curve"/>
      <point x="-42.09090909090909" y="856.8181818181819" type="line"/>
      <point x="-112.0" y="739.4545454545455"/>
      <point x="-66.81818181818181" y="611.0909090909091"/>
      <point x="68.63636363636364" y="611.0909090909091" type="curve" smooth="yes"/>
      <point x="149.63636363636363" y="611.0909090909091"/>
      <point x="205.63636363636363" y="661.0"/>
      <point x="205.63636363636363" y="729.0909090909091" type="curve" smooth="yes"/>
      <point x="205.63636363636363" y="818.9090909090909"/>
      <point x="128.9090909090909" y="877.4545454545455"/>
      <point x="12.454545454545455" y="877.4545454545455" type="curve" smooth="yes"/>
      <point x="-119.9090909090909" y="877.4545454545455"/>
      <point x="-205.0909090909091" y="795.4545454545455"/>
      <point x="-205.0909090909091" y="686.3636363636364" type="curve" smooth="yes"/>
      <point x="-205.0909090909091" y="580.5454545454545"/>
      <point x="-126.54545454545455" y="512.2727272727273"/>
    </contour>
  </outline>
</glyph>
<glyph name="uMatra-tamil" format="2">
  <advance width="550.8181818181819"/>
  <unicode hex="0BC1"/>
  <note>
uni0BC1
</note>
  <anchor x="239.0" y="548.5454545454545" name="top"/>
  <outline>
    <contour>
      <point x="344.90909090909093" y="220.8181818181818" type="curve" smooth="yes"/>
      <point x="447.0" y="220.8181818181818"/>
      <point x="525.0" y="284.1818181818182"/>
      <point x="525.0" y="392.54545454545456" type="curve" smooth="yes"/>
      <point x="525.0" y="548.5454545454545" type="line"/>
      <point x="-250.36363636363637" y="548.5454545454545" type="line"/>
      <point x="-213.1818181818182" y="508.6363636363636" type="line"/>
      <point x="460.0" y="508.6363636363636" type="line"/>
      <point x="460.0" y="384.90909090909093" type="line" smooth="yes"/>
      <point x="460.0" y="312.09090909090907"/>
      <point x="410.1818181818182" y="262.09090909090907"/>
      <point x="338.72727272727275" y="262.09090909090907" type="curve" smooth="yes"/>
      <point x="261.90909090909093" y="262.09090909090907"/>
      <point x="222.63636363636363" y="313.09090909090907"/>
      <point x="222.63636363636363" y="393.0" type="curve" smooth="yes"/>
      <point x="222.63636363636363" y="525.7272727272727" type="line"/>
      <point x="177.54545454545453" y="525.7272727272727" type="line"/>
      <point x="177.54545454545453" y="397.09090909090907" type="line" smooth="yes"/>
      <point x="177.54545454545453" y="289.3636363636364"/>
      <point x="236.9090909090909" y="220.8181818181818"/>
    </contour>
  </outline>
</glyph>
<glyph name="uuMatra-tamil" format="2">
  <advance width="894.4545454545455"/>
  <unicode hex="0BC2"/>
  <note>
uni0BC2
</note>
  <anchor x="490.45454545454544" y="780.0" name="top"/>
  <outline>
    <contour>
      <point x="416.72727272727275" y="0.45454545454545453" type="curve" smooth="yes"/>
      <point x="683.7272727272727" y="0.45454545454545453"/>
      <point x="845.4545454545455" y="168.54545454545453"/>
      <point x="845.4545454545455" y="409.1818181818182" type="curve" smooth="yes"/>
      <point x="845.4545454545455" y="611.3636363636364"/>
      <point x="706.6363636363636" y="780.0"/>
      <point x="490.45454545454544" y="780.0" type="curve" smooth="yes"/>
      <point x="278.27272727272725" y="780.0"/>
      <point x="188.45454545454547" y="648.9090909090909"/>
      <point x="188.45454545454547" y="522.5454545454545" type="curve" smooth="yes"/>
      <point x="188.45454545454547" y="405.27272727272725" type="line" smooth="yes"/>
      <point x="188.45454545454547" y="292.6363636363636"/>
      <point x="249.45454545454547" y="220.8181818181818"/>
      <point x="361.3636363636364" y="220.8181818181818" type="curve" smooth="yes"/>
      <point x="460.1818181818182" y="220.8181818181818"/>
      <point x="534.9090909090909" y="285.8181818181818"/>
      <point x="534.9090909090909" y="392.54545454545456" type="curve" smooth="yes"/>
      <point x="534.9090909090909" y="548.5454545454545" type="line"/>
      <point x="-252.72727272727272" y="548.5454545454545" type="line"/>
      <point x="-224.1818181818182" y="508.6363636363636" type="line"/>
      <point x="470.45454545454544" y="508.6363636363636" type="line"/>
      <point x="470.45454545454544" y="384.90909090909093" type="line" smooth="yes"/>
      <point x="470.45454545454544" y="312.09090909090907"/>
      <point x="420.6363636363636" y="262.09090909090907"/>
      <point x="349.6363636363636" y="262.09090909090907" type="curve" smooth="yes"/>
      <point x="271.27272727272725" y="262.09090909090907"/>
      <point x="233.54545454545453" y="318.0"/>
      <point x="233.54545454545453" y="401.1818181818182" type="curve" smooth="yes"/>
      <point x="233.54545454545453" y="522.5454545454545" type="line" smooth="yes"/>
      <point x="233.54545454545453" y="634.0909090909091"/>
      <point x="314.45454545454544" y="740.1818181818181"/>
      <point x="478.3636363636364" y="740.1818181818181" type="curve" smooth="yes"/>
      <point x="681.0" y="740.1818181818181"/>
      <point x="780.9090909090909" y="591.8181818181819"/>
      <point x="780.9090909090909" y="418.6363636363636" type="curve" smooth="yes"/>
      <point x="780.9090909090909" y="205.63636363636363"/>
      <point x="663.9090909090909" y="40.81818181818182"/>
      <point x="416.8181818181818" y="40.81818181818182" type="curve" smooth="yes"/>
      <point x="289.90909090909093" y="40.81818181818182"/>
      <point x="189.63636363636363" y="83.63636363636364"/>
      <point x="106.36363636363636" y="187.9090909090909" type="curve"/>
      <point x="75.54545454545455" y="162.8181818181818" type="line"/>
      <point x="164.36363636363637" y="55.09090909090909"/>
      <point x="268.09090909090907" y="0.45454545454545453"/>
    </contour>
  </outline>
</glyph>
<glyph name="eMatra-tamil" format="2">
  <advance width="847.5454545454545"/>
  <unicode hex="0BC6"/>
  <note>
uni0BC6
</note>
  <outline>
    <contour>
      <point x="327.0" y="-4.0" type="curve" smooth="yes"/>
      <point x="427.72727272727275" y="-4.0"/>
      <point x="498.3636363636364" y="56.81818181818182"/>
      <point x="498.3636363636364" y="150.0" type="curve" smooth="yes"/>
      <point x="498.3636363636364" y="242.45454545454547"/>
      <point x="438.0909090909091" y="300.3636363636364"/>
      <point x="347.27272727272725" y="300.3636363636364" type="curve" smooth="yes"/>
      <point x="249.36363636363637" y="300.3636363636364"/>
      <point x="170.54545454545456" y="229.0"/>
      <point x="154.45454545454547" y="112.18181818181819" type="curve"/>
      <point x="177.63636363636363" y="86.54545454545455" type="line"/>
      <point x="193.1818181818182" y="192.72727272727272"/>
      <point x="249.45454545454547" y="251.9090909090909"/>
      <point x="324.8181818181818" y="251.9090909090909" type="curve" smooth="yes"/>
      <point x="396.90909090909093" y="251.9090909090909"/>
      <point x="435.3636363636364" y="206.9090909090909"/>
      <point x="435.3636363636364" y="146.45454545454547" type="curve" smooth="yes"/>
      <point x="435.3636363636364" y="80.63636363636364"/>
      <point x="385.90909090909093" y="36.27272727272727"/>
      <point x="315.3636363636364" y="36.27272727272727" type="curve" smooth="yes"/>
      <point x="164.1818181818182" y="36.27272727272727"/>
      <point x="104.72727272727272" y="201.0909090909091"/>
      <point x="104.72727272727272" y="364.6363636363636" type="curve" smooth="yes"/>
      <point x="104.72727272727272" y="592.6363636363636"/>
      <point x="226.1818181818182" y="753.0909090909091"/>
      <point x="437.6363636363636" y="753.0909090909091" type="curve" smooth="yes"/>
      <point x="607.2727272727273" y="753.0909090909091"/>
      <point x="699.0" y="669.5454545454545"/>
      <point x="699.0" y="469.6363636363636" type="curve" smooth="yes"/>
      <point x="699.0" y="0.0" type="line"/>
      <point x="745.4545454545455" y="0.0" type="line"/>
      <point x="745.4545454545455" y="476.0" type="line" smooth="yes"/>
      <point x="745.4545454545455" y="703.9090909090909"/>
      <point x="634.4545454545455" y="815.8181818181819"/>
      <point x="440.72727272727275" y="815.8181818181819" type="curve" smooth="yes"/>
      <point x="202.0" y="815.8181818181819"/>
      <point x="59.81818181818182" y="617.4545454545455"/>
      <point x="59.81818181818182" y="372.09090909090907" type="curve" smooth="yes"/>
      <point x="59.81818181818182" y="186.45454545454544"/>
      <point x="138.72727272727272" y="-4.0"/>
    </contour>
  </outline>
</glyph>
<glyph name="eeMatra-tamil" format="2">
  <advance width="621.8181818181819"/>
  <unicode hex="0BC7"/>
  <note>
uni0BC7
</note>
  <outline>
    <contour>
      <point x="394.54545454545456" y="-4.545454545454546" type="curve" smooth="yes"/>
      <point x="495.3636363636364" y="-4.545454545454546"/>
      <point x="565.5454545454545" y="54.0"/>
      <point x="565.5454545454545" y="147.27272727272728" type="curve" smooth="yes"/>
      <point x="565.5454545454545" y="243.45454545454547"/>
      <point x="504.6363636363636" y="298.27272727272725"/>
      <point x="418.54545454545456" y="298.27272727272725" type="curve" smooth="yes"/>
      <point x="318.8181818181818" y="298.27272727272725"/>
      <point x="241.36363636363637" y="220.54545454545456"/>
      <point x="234.1818181818182" y="81.0" type="curve"/>
      <point x="259.27272727272725" y="56.63636363636364" type="line"/>
      <point x="269.3636363636364" y="191.8181818181818"/>
      <point x="321.27272727272725" y="249.8181818181818"/>
      <point x="397.3636363636364" y="249.8181818181818" type="curve" smooth="yes"/>
      <point x="466.27272727272725" y="249.8181818181818"/>
      <point x="502.09090909090907" y="205.27272727272728"/>
      <point x="502.09090909090907" y="143.27272727272728" type="curve" smooth="yes"/>
      <point x="502.09090909090907" y="76.9090909090909"/>
      <point x="454.0" y="36.27272727272727"/>
      <point x="384.8181818181818" y="36.27272727272727" type="curve" smooth="yes"/>
      <point x="241.63636363636363" y="36.27272727272727"/>
      <point x="110.18181818181819" y="176.1818181818182"/>
      <point x="110.18181818181819" y="400.1818181818182" type="curve" smooth="yes"/>
      <point x="110.18181818181819" y="625.1818181818181"/>
      <point x="241.63636363636363" y="775.0"/>
      <point x="384.3636363636364" y="775.0" type="curve" smooth="yes"/>
      <point x="454.0" y="775.0"/>
      <point x="502.09090909090907" y="734.3636363636364"/>
      <point x="502.09090909090907" y="668.0" type="curve" smooth="yes"/>
      <point x="502.09090909090907" y="606.0"/>
      <point x="466.27272727272725" y="561.4545454545455"/>
      <point x="397.3636363636364" y="561.4545454545455" type="curve" smooth="yes"/>
      <point x="321.72727272727275" y="561.4545454545455"/>
      <point x="271.1818181818182" y="617.2727272727273"/>
      <point x="261.09090909090907" y="753.7272727272727" type="curve"/>
      <point x="235.54545454545453" y="730.3636363636364" type="line"/>
      <point x="243.1818181818182" y="588.0"/>
      <point x="319.27272727272725" y="513.5454545454545"/>
      <point x="418.54545454545456" y="513.5454545454545" type="curve" smooth="yes"/>
      <point x="504.6363636363636" y="513.5454545454545"/>
      <point x="565.5454545454545" y="567.8181818181819"/>
      <point x="565.5454545454545" y="664.0" type="curve" smooth="yes"/>
      <point x="565.5454545454545" y="757.2727272727273"/>
      <point x="494.90909090909093" y="815.8181818181819"/>
      <point x="394.54545454545456" y="815.8181818181819" type="curve" smooth="yes"/>
      <point x="220.27272727272728" y="815.8181818181819"/>
      <point x="65.27272727272727" y="648.2727272727273"/>
      <point x="65.27272727272727" y="400.1818181818182" type="curve" smooth="yes"/>
      <point x="65.27272727272727" y="152.54545454545453"/>
      <point x="220.72727272727272" y="-4.545454545454546"/>
    </contour>
  </outline>
</glyph>
<glyph name="aiMatra-tamil" format="2">
  <advance width="1265.4545454545455"/>
  <unicode hex="0BC8"/>
  <note>
uni0BC8
</note>
  <outline>
    <contour>
      <point x="1037.090909090909" y="-5.909090909090909" type="line"/>
      <point x="1142.909090909091" y="45.63636363636363"/>
      <point x="1203.8181818181818" y="141.9090909090909"/>
      <point x="1203.8181818181818" y="261.8181818181818" type="curve" smooth="yes"/>
      <point x="1203.8181818181818" y="444.72727272727275"/>
      <point x="1070.7272727272727" y="555.3636363636364"/>
      <point x="887.6363636363636" y="555.3636363636364" type="curve" smooth="yes"/>
      <point x="666.6363636363636" y="555.3636363636364"/>
      <point x="525.9090909090909" y="394.72727272727275"/>
      <point x="525.9090909090909" y="199.27272727272728" type="curve" smooth="yes"/>
      <point x="525.9090909090909" y="79.63636363636364"/>
      <point x="583.3636363636364" y="-5.0"/>
      <point x="689.1818181818181" y="-5.0" type="curve" smooth="yes"/>
      <point x="793.9090909090909" y="-5.0"/>
      <point x="862.3636363636364" y="75.18181818181819"/>
      <point x="862.3636363636364" y="191.72727272727272" type="curve" smooth="yes"/>
      <point x="862.3636363636364" y="410.1818181818182"/>
      <point x="663.6363636363636" y="555.3636363636364"/>
      <point x="439.27272727272725" y="555.3636363636364" type="curve" smooth="yes"/>
      <point x="234.0909090909091" y="555.3636363636364"/>
      <point x="62.18181818181818" y="440.45454545454544"/>
      <point x="62.18181818181818" y="231.72727272727272" type="curve" smooth="yes"/>
      <point x="62.18181818181818" y="84.72727272727272"/>
      <point x="155.1818181818182" y="-4.0"/>
      <point x="266.72727272727275" y="-4.0" type="curve" smooth="yes"/>
      <point x="366.54545454545456" y="-4.0"/>
      <point x="434.90909090909093" y="56.81818181818182"/>
      <point x="434.90909090909093" y="149.0909090909091" type="curve" smooth="yes"/>
      <point x="434.90909090909093" y="238.36363636363637"/>
      <point x="374.1818181818182" y="294.45454545454544"/>
      <point x="289.72727272727275" y="294.45454545454544" type="curve" smooth="yes"/>
      <point x="193.63636363636363" y="294.45454545454544"/>
      <point x="123.45454545454545" y="220.36363636363637"/>
      <point x="108.72727272727273" y="128.54545454545453" type="curve"/>
      <point x="130.54545454545456" y="102.45454545454545" type="line"/>
      <point x="146.54545454545453" y="187.27272727272728"/>
      <point x="193.72727272727272" y="246.0"/>
      <point x="266.3636363636364" y="246.0" type="curve" smooth="yes"/>
      <point x="335.27272727272725" y="246.0"/>
      <point x="372.0" y="202.8181818181818"/>
      <point x="372.0" y="145.0909090909091" type="curve" smooth="yes"/>
      <point x="372.0" y="79.27272727272728"/>
      <point x="326.1818181818182" y="36.27272727272727"/>
      <point x="256.54545454545456" y="36.27272727272727" type="curve" smooth="yes"/>
      <point x="175.0" y="36.27272727272727"/>
      <point x="106.54545454545455" y="105.81818181818181"/>
      <point x="106.54545454545455" y="229.1818181818182" type="curve" smooth="yes"/>
      <point x="106.54545454545455" y="414.72727272727275"/>
      <point x="252.63636363636363" y="515.0"/>
      <point x="429.8181818181818" y="515.0" type="curve" smooth="yes"/>
      <point x="640.3636363636364" y="515.0"/>
      <point x="796.1818181818181" y="394.0"/>
      <point x="796.1818181818181" y="191.8181818181818" type="curve" smooth="yes"/>
      <point x="796.1818181818181" y="98.9090909090909"/>
      <point x="752.8181818181819" y="36.27272727272727"/>
      <point x="678.4545454545455" y="36.27272727272727" type="curve" smooth="yes"/>
      <point x="604.7272727272727" y="36.27272727272727"/>
      <point x="568.2727272727273" y="105.72727272727273"/>
      <point x="568.2727272727273" y="195.72727272727272" type="curve" smooth="yes"/>
      <point x="568.2727272727273" y="371.45454545454544"/>
      <point x="687.4545454545455" y="515.0"/>
      <point x="878.1818181818181" y="515.0" type="curve" smooth="yes"/>
      <point x="1033.6363636363637" y="515.0"/>
      <point x="1139.1818181818182" y="413.09090909090907"/>
      <point x="1139.1818181818182" y="254.1818181818182" type="curve" smooth="yes"/>
      <point x="1139.1818181818182" y="154.36363636363637"/>
      <point x="1091.4545454545455" y="72.27272727272728"/>
      <point x="1018.2727272727273" y="25.81818181818182" type="curve"/>
    </contour>
  </outline>
</glyph>
<glyph name="halant-tamil" format="2">
  <unicode hex="0BCD"/>
  <note>
uni0BCD
</note>
  <anchor x="0.0" y="548.5454545454545" name="_top"/>
  <outline>
    <contour>
      <point x="0.0" y="636.0909090909091" type="curve" smooth="yes"/>
      <point x="28.09090909090909" y="636.0909090909091"/>
      <point x="50.54545454545455" y="659.0909090909091"/>
      <point x="50.54545454545455" y="685.6363636363636" type="curve" smooth="yes"/>
      <point x="50.54545454545455" y="712.1818181818181"/>
      <point x="28.09090909090909" y="735.1818181818181"/>
      <point x="0.0" y="735.1818181818181" type="curve" smooth="yes"/>
      <point x="-28.09090909090909" y="735.1818181818181"/>
      <point x="-50.54545454545455" y="712.1818181818181"/>
      <point x="-50.54545454545455" y="685.6363636363636" type="curve" smooth="yes"/>
      <point x="-50.54545454545455" y="659.0909090909091"/>
      <point x="-28.09090909090909" y="636.0909090909091"/>
    </contour>
  </outline>
</glyph>
<glyph name="om-tamil" format="2">
  <advance width="994.7272727272727"/>
  <unicode hex="0BD0"/>
  <note>
uni0BD0
</note>
  <outline>
    <contour>
      <point x="339.3636363636364" y="-379.3636363636364" type="curve" smooth="yes"/>
      <point x="577.5454545454545" y="-379.3636363636364"/>
      <point x="603.4545454545455" y="-139.63636363636363"/>
      <point x="765.1818181818181" y="-139.63636363636363" type="curve" smooth="yes"/>
      <point x="808.6363636363636" y="-139.63636363636363" type="line"/>
      <point x="808.6363636363636" y="-99.81818181818181" type="line"/>
      <point x="760.1818181818181" y="-99.81818181818181" type="line" smooth="yes"/>
      <point x="609.9090909090909" y="-99.81818181818181"/>
      <point x="479.54545454545456" y="60.72727272727273"/>
      <point x="616.0909090909091" y="220.72727272727272" type="curve"/>
      <point x="621.5454545454545" y="216.72727272727272" type="line"/>
      <point x="577.8181818181819" y="132.72727272727272"/>
      <point x="610.5454545454545" y="-5.0"/>
      <point x="748.0909090909091" y="-5.0" type="curve" smooth="yes"/>
      <point x="850.6363636363636" y="-5.0"/>
      <point x="933.0909090909091" y="73.0909090909091"/>
      <point x="933.0909090909091" y="201.9090909090909" type="curve" smooth="yes"/>
      <point x="933.0909090909091" y="423.45454545454544"/>
      <point x="713.0909090909091" y="555.3636363636364"/>
      <point x="473.1818181818182" y="555.3636363636364" type="curve" smooth="yes"/>
      <point x="241.54545454545453" y="555.3636363636364"/>
      <point x="62.18181818181818" y="427.3636363636364"/>
      <point x="62.18181818181818" y="237.45454545454547" type="curve" smooth="yes"/>
      <point x="62.18181818181818" y="95.36363636363636"/>
      <point x="156.72727272727272" y="4.545454545454546"/>
      <point x="269.3636363636364" y="4.545454545454546" type="curve" smooth="yes"/>
      <point x="370.1818181818182" y="4.545454545454546"/>
      <point x="438.09090909090907" y="65.81818181818181"/>
      <point x="438.09090909090907" y="158.63636363636363" type="curve" smooth="yes"/>
      <point x="438.09090909090907" y="247.9090909090909"/>
      <point x="377.3636363636364" y="303.45454545454544"/>
      <point x="292.90909090909093" y="303.45454545454544" type="curve" smooth="yes"/>
      <point x="194.9090909090909" y="303.45454545454544"/>
      <point x="123.81818181818181" y="229.9090909090909"/>
      <point x="109.0909090909091" y="137.54545454545453" type="curve"/>
      <point x="130.9090909090909" y="111.45454545454545" type="line"/>
      <point x="146.9090909090909" y="196.27272727272728"/>
      <point x="196.8181818181818" y="255.54545454545453"/>
      <point x="270.0" y="255.54545454545453" type="curve" smooth="yes"/>
      <point x="337.90909090909093" y="255.54545454545453"/>
      <point x="374.6363636363636" y="212.36363636363637"/>
      <point x="374.6363636363636" y="154.63636363636363" type="curve" smooth="yes"/>
      <point x="374.6363636363636" y="88.81818181818181"/>
      <point x="328.8181818181818" y="45.81818181818182"/>
      <point x="259.1818181818182" y="45.81818181818182" type="curve" smooth="yes"/>
      <point x="177.54545454545453" y="45.81818181818182"/>
      <point x="106.54545454545455" y="117.0"/>
      <point x="106.54545454545455" y="234.9090909090909" type="curve" smooth="yes"/>
      <point x="106.54545454545455" y="401.6363636363636"/>
      <point x="270.6363636363636" y="515.0"/>
      <point x="473.0" y="515.0" type="curve" smooth="yes"/>
      <point x="681.9090909090909" y="515.0"/>
      <point x="867.6363636363636" y="403.8181818181818"/>
      <point x="867.6363636363636" y="209.63636363636363" type="curve" smooth="yes"/>
      <point x="867.6363636363636" y="103.18181818181819"/>
      <point x="816.4545454545455" y="35.72727272727273"/>
      <point x="739.1818181818181" y="35.72727272727273" type="curve" smooth="yes"/>
      <point x="634.9090909090909" y="35.72727272727273"/>
      <point x="614.3636363636364" y="164.45454545454547"/>
      <point x="682.0909090909091" y="258.1818181818182" type="curve"/>
      <point x="636.5454545454545" y="293.54545454545456" type="line"/>
      <point x="442.27272727272725" y="131.72727272727272"/>
      <point x="520.6363636363636" y="-66.0"/>
      <point x="667.5454545454545" y="-117.72727272727273" type="curve"/>
      <point x="667.5454545454545" y="-122.27272727272727" type="line"/>
      <point x="537.8181818181819" y="-149.1818181818182"/>
      <point x="520.0" y="-331.6363636363636"/>
      <point x="319.90909090909093" y="-331.6363636363636" type="curve" smooth="yes"/>
      <point x="217.54545454545456" y="-331.6363636363636"/>
      <point x="152.0909090909091" y="-272.6363636363636"/>
      <point x="173.63636363636363" y="-176.8181818181818" type="curve"/>
      <point x="130.27272727272728" y="-168.0" type="line"/>
      <point x="102.36363636363636" y="-303.90909090909093"/>
      <point x="216.36363636363637" y="-379.3636363636364"/>
    </contour>
    <contour>
      <point x="233.72727272727272" y="-251.0" type="line"/>
      <point x="268.6363636363636" y="-251.0" type="line"/>
      <point x="268.6363636363636" y="-103.0909090909091" type="line"/>
      <point x="233.72727272727272" y="-103.0909090909091" type="line"/>
    </contour>
    <contour>
      <point x="247.72727272727272" y="-251.0" type="line"/>
      <point x="435.09090909090907" y="-251.0" type="line"/>
      <point x="435.09090909090907" y="-219.1818181818182" type="line"/>
      <point x="247.72727272727272" y="-219.1818181818182" type="line"/>
    </contour>
    <contour>
      <point x="325.54545454545456" y="-251.0" type="line"/>
      <point x="358.3636363636364" y="-251.0" type="line"/>
      <point x="358.3636363636364" y="-166.63636363636363" type="line" smooth="yes"/>
      <point x="358.3636363636364" y="-146.45454545454547"/>
      <point x="368.6363636363636" y="-133.27272727272728"/>
      <point x="389.45454545454544" y="-133.27272727272728" type="curve" smooth="yes"/>
      <point x="410.3636363636364" y="-133.27272727272728"/>
      <point x="419.6363636363636" y="-146.45454545454547"/>
      <point x="419.6363636363636" y="-166.63636363636363" type="curve" smooth="yes"/>
      <point x="419.6363636363636" y="-251.0" type="line"/>
      <point x="454.54545454545456" y="-251.0" type="line"/>
      <point x="454.54545454545456" y="-171.8181818181818" type="line" smooth="yes"/>
      <point x="454.54545454545456" y="-119.18181818181819"/>
      <point x="423.45454545454544" y="-100.63636363636364"/>
      <point x="389.45454545454544" y="-100.63636363636364" type="curve" smooth="yes"/>
      <point x="355.0" y="-100.63636363636364"/>
      <point x="325.54545454545456" y="-119.18181818181819"/>
      <point x="325.54545454545456" y="-171.8181818181818" type="curve" smooth="yes"/>
    </contour>
    <contour>
      <point x="339.3636363636364" y="-77.36363636363636" type="curve" smooth="yes"/>
      <point x="355.6363636363636" y="-77.36363636363636"/>
      <point x="368.3636363636364" y="-63.63636363636363"/>
      <point x="368.3636363636364" y="-48.90909090909091" type="curve" smooth="yes"/>
      <point x="368.3636363636364" y="-35.18181818181818"/>
      <point x="355.6363636363636" y="-21.454545454545453"/>
      <point x="339.3636363636364" y="-21.454545454545453" type="curve" smooth="yes"/>
      <point x="323.09090909090907" y="-21.454545454545453"/>
      <point x="309.90909090909093" y="-35.18181818181818"/>
      <point x="309.90909090909093" y="-48.90909090909091" type="curve" smooth="yes"/>
      <point x="309.90909090909093" y="-63.63636363636363"/>
      <point x="323.09090909090907" y="-77.36363636363636"/>
    </contour>
  </outline>
</glyph>
<glyph name="zero-tamil" format="2">
  <advance width="603.1818181818181"/>
  <unicode hex="0BE6"/>
  <note>
uni0BE6
</note>
  <outline>
    <contour>
      <point x="304.1818181818182" y="-4.545454545454546" type="curve" smooth="yes"/>
      <point x="444.45454545454544" y="-4.545454545454546"/>
      <point x="542.0" y="109.72727272727273"/>
      <point x="542.0" y="275.1818181818182" type="curve" smooth="yes"/>
      <point x="542.0" y="435.6363636363636"/>
      <point x="449.45454545454544" y="554.9090909090909"/>
      <point x="305.54545454545456" y="554.9090909090909" type="curve" smooth="yes"/>
      <point x="146.63636363636363" y="554.9090909090909"/>
      <point x="61.72727272727273" y="430.3636363636364"/>
      <point x="61.72727272727273" y="275.1818181818182" type="curve" smooth="yes"/>
      <point x="61.72727272727273" y="116.81818181818181"/>
      <point x="146.63636363636363" y="-4.545454545454546"/>
    </contour>
    <contour>
      <point x="291.54545454545456" y="40.09090909090909" type="curve" smooth="yes"/>
      <point x="169.45454545454547" y="40.09090909090909"/>
      <point x="107.27272727272728" y="145.9090909090909"/>
      <point x="107.27272727272728" y="275.1818181818182" type="curve" smooth="yes"/>
      <point x="107.27272727272728" y="399.90909090909093"/>
      <point x="170.36363636363637" y="510.72727272727275"/>
      <point x="293.8181818181818" y="510.72727272727275" type="curve" smooth="yes"/>
      <point x="413.90909090909093" y="510.72727272727275"/>
      <point x="476.90909090909093" y="412.6363636363636"/>
      <point x="476.90909090909093" y="275.1818181818182" type="curve" smooth="yes"/>
      <point x="476.90909090909093" y="131.36363636363637"/>
      <point x="408.90909090909093" y="40.09090909090909"/>
    </contour>
  </outline>
</glyph>
